<svg width="115" height="122" viewBox="0 0 115 122" fill="none" xmlns="http://www.w3.org/2000/svg">
<g clip-path="url(#clip0_186_27)">
<path d="M33.1619 16.5119L49.0347 19.3991C49.9521 19.5659 50.931 19.7461 51.9672 19.9368C63.4524 22.0507 81.9767 25.4602 101.818 26.4141L88.8158 33.6297C88.7508 33.6648 88.686 33.7008 88.6216 33.7375L89.1119 34.6091L89.1169 34.6062L89.295 34.5074C92.1496 32.9674 95.6938 33.1185 98.7949 34.4136C101.964 35.7372 104.57 38.2139 105.452 41.1256C107.232 47.0017 103.407 53.4975 97.5309 57.0841C91.6636 60.6653 84.2586 61.7859 77.0092 62.0744L76.9546 63.0685C86.3532 64.4842 93.3253 73.2985 91.6984 81.4056C90.8849 85.4597 87.9899 89.0441 84.0862 91.4338C80.1853 93.8218 75.3249 94.9855 70.6539 94.2412L70.298 94.1845L70.1316 94.5043C67.4593 99.6423 61.9319 103.283 55.6738 104.829C49.9389 106.245 43.6625 105.883 38.5277 103.36C40.7667 102.797 42.3266 101.047 43.0417 98.9897C43.9146 96.478 43.5664 93.414 41.617 91.3104C39.7255 89.2693 37.1309 88.0673 34.3196 87.3795C31.5074 86.6914 28.443 86.5092 25.5695 86.5342C24.7068 86.5418 23.8431 86.5601 22.9802 86.5784C20.9605 86.6212 18.945 86.6639 16.9559 86.5681C14.361 86.443 11.8599 86.0824 9.54829 85.1918L29.4194 61L29.8541 60.4708L29.2176 60.2179L10.5107 52.7865C19.0413 51.2187 26.1925 45.9531 30.5016 39.2766C34.9409 32.3982 36.3918 23.9711 33.1619 16.5119Z" stroke="#F40000"/>
<path d="M98.193 52.0219L98.1904 52.0181C97.5114 51.0141 96.8472 49.9958 96.2275 48.9537L96.0169 48.5995L96.3243 48.3251C102.167 43.1104 107.806 37.6843 111.73 31.271C113.51 27.9796 115.104 24.4616 114.274 20.9956C113.209 17.4085 108.859 15.3081 104.597 15.6532C101.418 16.0745 98.3554 16.9569 95.2674 17.8973C94.9317 17.9995 94.5956 18.1025 94.2591 18.2055C91.51 19.0476 88.7285 19.8996 85.8605 20.4522C79.5416 21.9388 77.6766 21.6004 77.019 21.3855L76.9923 21.3768L76.9667 21.3651C76.918 21.3429 76.8773 21.3179 76.8591 21.3068L76.8568 21.3054C76.846 21.2988 76.8408 21.2957 76.8389 21.2945C76.8383 21.2942 76.8381 21.294 76.8381 21.294L76.7281 21.2408L76.654 21.1367C76.5101 20.9344 76.3734 20.7247 76.2491 20.5042L76.2377 20.484L76.2282 20.4628C76.2181 20.4401 76.2115 20.425 76.2055 20.4113C76.1971 20.3922 76.19 20.376 76.1766 20.3467L76.1629 20.3167L76.1533 20.2853C75.5484 18.3091 75.0228 16.3165 74.5001 14.3347L74.4131 14.0052C73.8611 11.9132 73.3073 9.83401 72.6576 7.77805C72.5444 7.44597 72.4353 7.11427 72.3268 6.78437C71.6536 4.73775 71.0032 2.76034 69.5427 1.18783C69.0925 0.774293 68.464 0.521791 67.7875 0.500805C67.12 0.480096 66.4787 0.687174 65.9957 1.06443C65.0686 2.14072 64.7126 3.4953 64.5214 4.91945C64.4545 5.41809 64.4095 5.90753 64.3648 6.39393C64.3446 6.61383 64.3244 6.83312 64.3023 7.05236C64.2342 7.72862 64.1479 8.39668 63.9789 8.99321C63.9201 9.38478 63.8613 9.77633 63.8025 10.1679C63.1847 14.2809 62.5672 18.3924 61.9784 22.506C63.5381 18.3682 65.0755 14.1538 66.5372 10.0223L67.507 10.1494C67.5673 10.9072 67.6178 11.6795 67.6699 12.4784C67.7649 13.9323 67.8657 15.4742 68.0419 17.1762L68.0435 17.1911L68.0441 17.2061C68.1627 19.9545 68.5584 22.5449 69.7364 24.6177C70.8967 26.6595 72.8441 28.2472 76.1856 28.9513C81.8074 29.8653 87.4788 28.9161 93.1444 27.9678C94.2754 27.7786 95.406 27.5893 96.536 27.4149C97.0831 27.3201 97.6255 27.2137 98.174 27.1061C98.3734 27.067 98.5737 27.0277 98.7753 26.9888L100.093 26.7342L99.2631 27.7889C96.2447 31.624 95.7918 32.0465 90.758 36.7429L90.4225 37.0559L90.4187 37.0595C89.7145 37.7031 88.9676 38.3341 88.2296 38.9577C87.7574 39.3567 87.2888 39.7526 86.8373 40.1468C85.6662 41.1694 84.5678 42.2148 83.6559 43.3903C81.5802 46.4105 82.0252 49.4672 83.465 52.5458C84.1883 54.0922 85.154 55.6227 86.1587 57.1323C86.4105 57.5106 86.6653 57.8884 86.9192 58.2649C87.6687 59.376 88.4097 60.4748 89.0386 61.5356C90.4332 63.6873 91.9126 65.8009 93.3984 67.9227L93.427 67.9636C94.9036 70.0721 96.386 72.1891 97.7865 74.3462L98.1799 74.9521L97.4742 75.1068C96.5951 75.2996 95.7078 75.4491 94.8209 75.576L94.8077 75.5779L94.7943 75.5791L94.2883 75.6239L94.2718 75.6254L94.2552 75.6257C88.9015 75.7435 85.3227 75.9911 82.3314 77.1937C79.3659 78.3859 76.9256 80.5409 73.9304 84.6098L73.9248 84.6173L73.9248 84.6173C71.4076 87.9062 69.1494 91.3419 66.9178 94.8098C66.5783 95.3373 66.2394 95.8657 65.9002 96.3944C64.0129 99.3367 62.1188 102.29 60.0862 105.164L59.5698 105.895L59.2182 105.072C59.2066 105.045 59.1956 105.019 59.1845 104.994C59.1663 104.951 59.1479 104.908 59.1268 104.859C57.8692 102.176 57.0677 99.3644 56.2799 96.6005C56.2291 96.4223 56.1783 96.2443 56.1275 96.0665C55.2863 93.123 54.4267 90.2407 53.0157 87.5358C50.6619 83.9916 47.1958 82.5122 43.3413 82.2827C39.4606 82.0516 35.209 83.0926 31.396 84.5761L31.3821 84.5815L31.368 84.5861C29.6526 85.1385 27.9504 85.7324 26.2399 86.3293C25.5508 86.5697 24.8603 86.8107 24.167 87.0495L22.4717 87.6337L23.6201 86.2566C24.7984 84.8437 25.9886 83.4389 27.1908 82.0421L27.1928 82.0397L28.0197 81.0913L28.0241 81.0862C28.3892 80.6788 28.7616 80.2693 29.1365 79.8571C31.0753 77.7253 33.0786 75.5225 34.458 73.1729C36.0896 70.3936 36.798 67.4904 35.4847 64.3449L35.4795 64.3326L35.475 64.3199C34.0239 60.2428 31.1781 57.0634 27.6978 54.2793C24.9741 52.1006 21.8954 50.1883 18.8209 48.2786C17.9559 47.7413 17.0912 47.2043 16.2349 46.6615L15.5543 46.2301L16.243 45.8118C16.826 45.4578 17.4723 45.1685 18.3785 44.7822C18.5543 44.7073 18.7405 44.6285 18.9389 44.5445C19.7683 44.1933 20.8106 43.752 22.1901 43.1309C26.9721 40.7821 29.1581 35.8315 29.4679 31.1314L29.4687 31.1202L29.4699 31.109C29.6122 29.8288 29.5605 28.5386 29.5018 27.2061L29.4975 27.1069C29.4406 25.8178 29.3819 24.4881 29.5131 23.1575L29.5168 23.1197L29.5262 23.0828C29.5589 22.9549 29.6008 22.8072 29.6525 22.6497L29.6753 22.5802L29.7171 22.5202L29.7425 22.4837L29.8826 22.2823L30.1278 22.2699C30.158 22.2684 30.2013 22.265 30.252 22.2609C30.3726 22.2513 30.5351 22.2383 30.6636 22.2401M98.193 52.0219L39.1716 96.6011M98.193 52.0219C100.896 55.9405 103.684 59.5502 106.13 62.6986C106.254 62.8584 106.377 63.0169 106.5 63.1742C108.793 66.1254 110.744 68.6371 112.018 70.6102L112.022 70.617L112.027 70.6237C114.792 74.6174 114.988 80.014 111.28 83.4806M98.193 52.0219L111.28 83.4806M30.6636 22.2401C37.7888 22.3078 46.2101 25.6189 54.6811 29.7146L54.6824 29.7152C56.0552 30.3837 57.4162 31.0702 58.7654 31.7749C56.1651 29.4506 53.4332 27.2414 50.5796 25.1557C47.3883 22.8916 42.2597 19.4731 37.0328 17.4753C31.7698 15.4638 26.6292 14.9725 23.1897 18.203C20.8165 20.5361 20.4036 23.695 19.9844 26.9022C19.9571 27.1108 19.9298 27.3197 19.9019 27.5286L19.9004 27.54L19.8983 27.5513C19.6592 28.8754 19.3415 30.1875 18.9467 31.4822L18.9326 31.5286L18.9098 31.5714C18.6024 32.1483 18.2737 32.7254 17.9053 33.2861L17.8984 33.2966L17.8982 33.2966C17.8879 33.3115 17.8783 33.3239 17.8713 33.3327C17.8652 33.3404 17.8596 33.3472 17.8566 33.3508L17.8358 33.3798L17.8024 33.4119C17.6916 33.5182 17.5551 33.6267 17.4452 33.7139C17.4026 33.7478 17.364 33.7784 17.3325 33.8045L17.2467 33.8756L17.1388 33.9035C13.1932 34.9236 8.60186 36.5588 5.2368 38.9732C1.88201 41.3803 -0.160897 44.482 0.69615 48.4845C1.54316 51.785 4.46533 54.3522 7.55333 56.5109L7.55871 56.5147L7.55868 56.5147C8.08399 56.8923 8.61079 57.2693 9.13809 57.6468C11.9884 59.6871 14.8534 61.7378 17.576 63.9313L17.577 63.932C18.1942 64.4318 18.7764 64.9614 19.3318 65.5079L19.3575 65.5332L19.3793 65.562C19.8186 66.1409 20.2171 66.7434 20.5723 67.3662L20.7318 67.6458L20.5433 67.9067C20.0217 68.629 19.4341 69.321 18.8644 69.992C18.7235 70.1579 18.5837 70.3226 18.4462 70.4861L18.4379 70.496L18.4378 70.4959C15.1094 74.253 11.8032 78.0139 8.6694 81.8847L8.66421 81.8911L8.66416 81.891C6.95571 83.9315 5.29994 86.172 4.22951 88.5371C3.16555 90.8878 2.69251 93.3328 3.29568 95.8147C4.66075 99.3897 6.83927 101.353 9.48995 102.288C12.1766 103.236 15.404 103.147 18.8674 102.491C22.3253 101.836 25.9625 100.627 29.4465 99.3846C30.1832 99.122 30.9139 98.8576 31.6347 98.5968C34.3058 97.6303 36.8409 96.713 39.0404 96.1186M30.6636 22.2401C30.6632 22.2401 30.6628 22.2401 30.6624 22.2401L30.6576 22.74L30.6648 22.2401C30.6644 22.2401 30.664 22.2401 30.6636 22.2401ZM39.0404 96.1186C39.0406 96.1185 39.0409 96.1185 39.0411 96.1184L39.1716 96.6011M39.0404 96.1186C39.0397 96.1188 39.039 96.119 39.0383 96.1192L39.1716 96.6011M39.0404 96.1186C39.2069 96.0726 39.3818 96.0275 39.5515 95.9838C39.6588 95.9561 39.764 95.929 39.8637 95.9025L40.3265 95.7796L40.4693 96.2367C40.7716 97.2045 41.0638 98.1728 41.3554 99.1389C42.8629 104.135 44.3523 109.07 47.1314 113.574M39.1716 96.6011C39.3363 96.5555 39.5021 96.5128 39.6679 96.4701C39.776 96.4423 39.8842 96.4144 39.9921 96.3857C40.2913 97.3438 40.5814 98.3055 40.8717 99.2678C42.3793 104.266 43.8906 109.276 46.7092 113.842M47.1314 113.574C47.1303 113.572 47.1292 113.57 47.1281 113.569L46.7092 113.842M47.1314 113.574C47.1325 113.576 47.1336 113.577 47.1347 113.579L46.7092 113.842M47.1314 113.574C49.7405 117.574 53.351 120.378 57.2173 121.228C61.0556 122.073 65.2231 121.011 69.0353 117.131M46.7092 113.842C52.0315 122.006 61.5573 125.468 69.4033 117.47M98.8702 27.4797C98.6717 27.518 98.4734 27.5569 98.275 27.5958C98.2225 27.6061 98.17 27.6164 98.1175 27.6267C98.2333 27.4802 98.353 27.3283 98.4773 27.1705L98.8702 27.4797ZM98.8702 27.4797C98.7043 27.6904 98.5463 27.8907 98.395 28.0818C98.5858 28.0444 98.7759 28.0071 98.965 27.9706L98.8702 27.4797ZM67.0086 10.1891L67.4799 10.3559C67.3536 10.713 67.2267 11.0708 67.0992 11.4291C67.0705 11.0083 67.0409 10.5954 67.0086 10.1891ZM67.0086 10.1891L66.5102 10.2288C66.5395 10.5979 66.5668 10.9747 66.5932 11.3596C66.7323 10.9688 66.8708 10.5786 67.0086 10.1891ZM69.4033 117.47L69.025 117.143C69.0284 117.139 69.0319 117.135 69.0353 117.131M69.4033 117.47L69.0463 117.12C69.0427 117.123 69.039 117.127 69.0353 117.131M69.4033 117.47L111.28 83.4806M69.0353 117.131C72.7017 112.886 75.7053 108.251 78.6891 103.561C78.8753 103.269 79.0613 102.976 79.2475 102.683C82.0426 98.285 84.8564 93.8576 88.1998 89.7299L88.2113 89.7156L88.224 89.7022C88.408 89.5063 88.5973 89.3181 88.7874 89.1349L88.9216 89.0056L89.1077 88.9957L89.2869 88.9861C93.1184 88.7818 97.1318 88.5678 100.93 87.8294C104.777 87.0814 108.364 85.8016 111.28 83.4806M60.8674 26.8242C61.1314 26.1394 61.3953 25.451 61.6588 24.7597L61.1715 24.6343C61.069 25.3642 60.9676 26.0941 60.8674 26.8242Z" stroke="#FAFFFD"/>
</g>
<defs>
<clipPath id="clip0_186_27">
<rect width="115" height="122" fill="white"/>
</clipPath>
</defs>
</svg>
