<svg width="115" height="122" viewBox="0 0 115 122" fill="none" xmlns="http://www.w3.org/2000/svg">
<g clip-path="url(#clip0_186_15)">
<path d="M29.2882 83.6378L29.3445 83.8626L29.5524 83.9649C40.8081 89.5028 51.6529 96.755 62.5125 104.095C47.577 104.376 33.7093 103.78 19.8366 103.174C17.7102 78.952 15.6175 53.9647 13.5262 28.9403C20.3143 47.8294 24.7983 65.721 29.2882 83.6378Z" stroke="#F40000"/>
<path d="M9.57035 18.0664C30.4958 11.585 51.556 5.39281 73.196 1.99125C74.2426 1.88236 75.4506 1.71818 76.7762 1.53802C80.874 0.981109 86.095 0.271531 91.1441 0.570546C97.8135 0.965523 103.961 3.11126 106.708 9.53657C108.311 14.3336 108.915 19.3707 109.522 24.4414C109.712 26.024 109.902 27.6098 110.123 29.1926C110.636 33.8395 111.225 38.4762 111.819 43.108L111.934 44.0085C112.49 48.3433 113.045 52.6741 113.542 57.0117L113.542 57.0147C115.144 70.2925 114.606 83.7123 112.892 96.9752C112.76 97.8573 112.633 98.7867 112.503 99.7474C111.94 103.885 111.298 108.601 109.774 112.605C108.839 115.062 107.585 117.208 105.846 118.765C104.118 120.312 101.886 121.301 98.9394 121.412C81.246 121.708 63.5495 121.204 45.8479 120.699C44.4653 120.66 43.0827 120.621 41.7 120.582C39.4008 120.339 36.2749 120.277 32.7963 120.209C32.5072 120.203 32.2156 120.197 31.9219 120.191C28.0713 120.114 23.8279 120.01 19.7444 119.642C15.6569 119.273 11.7585 118.642 8.59244 117.522C5.42262 116.401 3.06796 114.819 1.93809 112.604C0.465059 109.319 0.468135 105.577 0.512612 101.897C0.583986 98.0318 0.684703 94.1704 0.785477 90.3069C0.848893 87.8756 0.912331 85.4435 0.968497 83.009L0.968528 83.0074C1.3555 63.6074 1.79628 44.2085 2.29086 24.8107C4.49656 46.3449 6.22225 67.9316 6.87341 89.5623C6.91006 90.8094 6.9429 92.1715 6.97681 93.5781C7.04073 96.23 7.10848 99.0403 7.21279 101.537C7.29267 103.449 7.3944 105.19 7.5335 106.546C7.60299 107.224 7.68269 107.814 7.77567 108.287C7.86439 108.738 7.97704 109.149 8.14338 109.414L8.17286 109.461L8.21196 109.501C8.2252 109.514 8.23703 109.527 8.25478 109.546L8.27284 109.566C8.29801 109.593 8.33269 109.63 8.37301 109.667L8.39955 109.692L8.42935 109.712C9.09797 110.172 9.81149 110.564 10.559 110.881L10.5742 110.887L10.5898 110.892C14.2869 112.18 21.1435 112.839 28.7332 113.234C34.2023 113.519 40.0999 113.667 45.5462 113.804C47.6806 113.858 49.7458 113.91 51.6886 113.967L51.6886 113.968L51.7006 113.968C55.9629 113.992 61.16 114.101 66.5877 114.215C70.6802 114.301 74.9038 114.39 78.9568 114.447C83.665 114.513 88.1384 114.537 91.892 114.463C95.6353 114.39 98.6946 114.219 100.557 113.89L100.672 113.87L100.766 113.801C101.32 113.394 101.798 112.729 102.219 111.909C102.644 111.082 103.034 110.055 103.392 108.878C104.107 106.524 104.71 103.519 105.211 100.204C106.212 93.5691 106.812 85.6281 107.067 79.0139H107.067L107.067 79.0049C107.329 66.3127 105.99 56.9409 104.488 46.4238C104.106 43.7475 103.713 40.9971 103.334 38.0989L103.333 38.0924C102.784 34.2871 102.469 31.6508 102.198 29.3798C101.664 24.9109 101.299 21.857 99.6494 14.0946L99.6465 14.0811L99.6429 14.0679C99.4742 13.4448 99.2802 12.8299 99.061 12.2233L99.0493 12.1907L99.0331 12.1601C98.8731 11.8564 98.695 11.5624 98.4998 11.2799L98.483 11.2556L98.4635 11.2334L98.4366 11.2029C98.3602 11.116 98.2712 11.0149 98.1749 10.9193L98.1358 10.8805L98.0891 10.8512C95.7937 9.40629 93.988 8.73624 91.6881 8.43826C89.7926 8.19269 87.5541 8.20046 84.4394 8.21128C83.839 8.21337 83.206 8.21557 82.5366 8.21609L82.5253 8.2161L82.5141 8.21661C73.5885 8.62586 64.0564 9.90437 56.6478 10.8981C55.4391 11.0602 54.2869 11.2147 53.2031 11.3567M9.57035 18.0664C16.0006 17.1966 24.0944 15.8937 31.882 14.6347C32.162 14.5894 32.4416 14.5442 32.7206 14.4991C40.6455 13.2176 48.1803 11.9992 53.2031 11.3567M9.57035 18.0664C9.21701 18.1759 8.8637 18.2854 8.51044 18.395L8.5402 18.7082C15.3628 17.8123 24.3087 16.3658 32.7935 14.9938C40.7248 13.7113 48.2531 12.494 53.2674 11.8525M53.2031 11.3567C53.2034 11.3566 53.2037 11.3566 53.204 11.3565L53.2674 11.8525M53.2031 11.3567C53.2029 11.3567 53.2027 11.3567 53.2025 11.3567L53.2674 11.8525M53.2674 11.8525C54.3538 11.7102 55.5079 11.5554 56.7179 11.3932C64.1279 10.3993 73.6354 9.12424 82.537 8.71609" stroke="#FAFFFD"/>
<path d="M76.3538 39.7838C73.3997 39.9664 70.4447 40.1352 67.489 40.2903C64.9394 40.4126 62.4113 40.5977 59.8904 40.7822C55.9624 41.0697 52.0522 41.3559 48.1065 41.4012C44.0318 41.3388 39.963 41.145 35.8847 40.9508C35.0951 40.9132 34.3051 40.8756 33.5147 40.8389C30.2831 40.6889 27.0455 40.5546 23.8021 40.5019C31.3101 39.1647 38.9365 38.6439 46.5907 38.5332L46.6015 38.533L46.6122 38.5324C56.5536 37.9602 66.5238 38.2821 76.3538 39.7838Z" stroke="#FAFFFD"/>
<path d="M80.0007 58.6235C66.4137 59.6107 47.7685 60.0827 32.2982 58.7221C33.4067 58.5766 34.5107 58.4254 35.6152 58.2741C39.5082 57.7408 43.4068 57.2068 47.5316 56.9177C58.3886 56.1795 69.2906 56.7533 80.0007 58.6235Z" stroke="#FAFFFD"/>
<path d="M84.4019 82.3738C80.0765 82.6246 75.7557 82.9481 71.4384 83.2714C59.1141 84.1942 46.8179 85.1149 34.5223 84.3348C36.5617 84.0111 38.5971 83.6641 40.6291 83.3177C41.7376 83.1287 42.8452 82.9399 43.9519 82.7551C48.5274 81.9912 53.0971 81.2946 57.7066 80.9293C66.6356 80.2467 75.6103 80.7337 84.4019 82.3738Z" stroke="#FAFFFD"/>
</g>
<defs>
<clipPath id="clip0_186_15">
<rect width="115" height="122" fill="white"/>
</clipPath>
</defs>
</svg>
