<svg width="115" height="122" viewBox="0 0 115 122" fill="none" xmlns="http://www.w3.org/2000/svg">
<g clip-path="url(#clip0_186_64)">
<path d="M22.2047 70.0574L22.4144 70.4745C22.3347 70.4131 22.254 70.3892 22.2026 70.3793C22.129 70.3653 22.0661 70.3708 22.0294 70.3765C22.0379 70.3295 22.0508 70.2975 22.055 70.2872L22.0555 70.2859C22.0718 70.2449 22.0897 70.2177 22.0949 70.21C22.1011 70.2006 22.1051 70.1955 22.105 70.1954C22.1048 70.1953 22.0949 70.207 22.0687 70.2329C21.9986 70.302 21.8832 70.4024 21.767 70.4901L22.0046 70.854L22.0229 70.8821L22.0511 70.9252C21.9373 71.0284 21.8193 71.1049 21.6995 71.1571C21.6516 71.0885 21.6241 71.0121 21.6141 70.9381C21.5917 70.7722 21.6602 70.6512 21.6717 70.6308L21.6725 70.6293C21.6936 70.5916 21.7147 70.5657 21.7229 70.5559C21.7231 70.5557 21.7233 70.5554 21.7235 70.5552C21.7317 70.5453 21.7393 70.5371 21.7452 70.5311C21.7515 70.5246 21.7559 70.5206 21.7568 70.5197L21.7569 70.5196C21.7586 70.518 21.7595 70.5172 21.7595 70.5172C21.7595 70.5172 21.7551 70.521 21.7441 70.5298L21.7315 70.54L21.7196 70.5509C21.5389 70.7164 21.3768 70.7542 21.2416 70.7414C21.0945 70.7275 20.9164 70.6468 20.7383 70.4665C20.3791 70.103 20.102 69.4081 20.2039 68.5707C20.3256 67.6343 20.7224 66.8429 21.1747 66.018L21.1917 65.9869L21.2042 65.9537C21.9345 64.0139 22.6869 62.0831 23.4405 60.1493C24.6872 56.9499 25.9373 53.7421 27.0962 50.4707L27.0962 50.4707L27.0975 50.4669C27.4675 49.3948 27.8316 48.3134 28.1949 47.2341C28.4423 46.499 28.6895 45.7649 28.9379 45.0354L28.9404 45.0281L28.9427 45.0207C29.1369 44.3868 29.3787 43.7791 29.6756 43.2932C29.9702 42.811 30.2888 42.4979 30.6208 42.3598C31.0248 42.2458 31.3751 42.3234 31.7157 42.5565C32.0826 42.8075 32.4375 43.2418 32.7731 43.8247C33.4435 44.989 33.9429 46.5752 34.3273 47.91C34.3274 47.9105 34.3276 47.911 34.3277 47.9115L34.3312 47.9237L34.3313 47.9241L34.3314 47.9248L34.3313 47.9248L34.3345 47.9356C34.5663 48.72 34.7483 49.5373 34.8777 50.3762C34.8815 50.5674 34.9006 50.7035 34.9198 50.8217C34.9224 50.838 34.925 50.8535 34.9274 50.8684C34.9431 50.9635 34.9544 51.0322 34.9598 51.1311C34.9724 51.3625 34.9511 51.7762 34.7717 52.7941C33.6926 56.8032 31.4014 59.505 29.1089 62.2083C28.5793 62.8327 28.0498 63.4572 27.535 64.0979C26.598 65.1975 25.6474 66.2614 24.6922 67.3304C24.2541 67.8207 23.815 68.3121 23.3758 68.8086C23.226 68.9663 23.0753 69.1437 22.9362 69.3073C22.8749 69.3796 22.8158 69.4491 22.76 69.5131C22.5628 69.7396 22.3858 69.9238 22.2047 70.0574ZM29.2462 54.119L29.8667 54.4704C30.1708 54.0482 30.4774 53.6224 30.7798 53.1889L30.7892 53.1753L30.7978 53.1612C31.0483 52.7461 31.2077 52.4928 31.3151 52.3232C31.3282 52.3025 31.3408 52.2827 31.3529 52.2636C31.4351 52.1341 31.4948 52.0401 31.5422 51.9516C31.6021 51.8399 31.6422 51.7385 31.6977 51.5943C31.7065 51.5715 31.7159 51.547 31.726 51.5207C31.7808 51.3776 31.8573 51.1782 31.9801 50.8725L32.0004 50.8218L32.0094 50.768C32.0096 50.7664 32.0114 50.7566 32.0138 50.7426C32.0203 50.7056 32.032 50.6395 32.035 50.6208L32.0462 50.5512L32.0377 50.4813C31.9231 49.533 31.7422 48.6047 31.4976 47.7118L31.4977 47.7118L31.494 47.6995C31.465 47.6033 31.4197 47.4531 31.3665 47.2825L30.9708 46.0139L30.4321 47.2288C30.3633 47.3839 30.2964 47.5348 30.2312 47.682C29.174 50.0679 28.5497 51.4768 27.1947 54.0577C26.2803 55.7479 25.3374 57.404 24.3838 59.0514L25.2226 59.5937C25.8749 58.686 26.5436 57.7863 27.215 56.8829C27.8939 55.9694 28.5757 55.0522 29.2462 54.119Z" stroke="#F40000"/>
<path d="M34.6953 47.3708C34.7336 47.504 34.7706 47.639 34.8082 47.7731L34.81 47.7792C34.7704 47.6348 34.7198 47.452 34.6953 47.3708Z" fill="#F40000"/>
<path d="M62.9211 40.3566L62.9271 40.378L62.935 40.3988C63.3092 41.3847 63.3899 42.5213 63.1785 43.3568C63.0732 43.7731 62.9057 44.0751 62.708 44.2581C62.5309 44.4221 62.3058 44.5143 61.994 44.4873C61.639 44.3908 61.2964 44.0532 60.8904 43.4885C60.762 43.31 60.6416 43.1304 60.5163 42.9436C60.4424 42.8333 60.3667 42.7205 60.2867 42.6039C60.0859 42.3111 59.8679 42.0101 59.627 41.7501C59.1407 41.1091 58.268 40.4425 57.1832 40.1984C56.0634 39.9464 54.7537 40.1538 53.4715 41.2257C53.1034 41.4847 52.7354 41.7505 52.3695 42.0269C52.865 41.2253 53.3871 40.4619 53.9457 39.8042C54.9984 38.5648 56.1021 37.7947 57.3073 37.7604L57.3304 37.7597L57.3534 37.7569C57.5622 37.7316 57.7716 37.7274 57.9806 37.7443L58.938 37.8219L58.4524 36.9932C58.4382 36.969 58.4245 36.9455 58.4111 36.9225C58.2823 36.7016 58.1861 36.5365 58.0325 36.3829C57.9236 36.2741 57.7749 36.1621 57.5671 36.0058C57.4993 35.9548 57.4251 35.899 57.344 35.837L57.3234 35.8213L57.3013 35.8078C57.0133 35.6316 56.7131 35.4907 56.4038 35.3879L56.4038 35.3878L56.397 35.3857C56.3625 35.3748 56.3312 35.3671 56.3126 35.3626C56.3071 35.3613 56.3026 35.3602 56.2989 35.3593C56.2867 35.3564 56.2824 35.3553 56.2773 35.3539L56.2425 35.3443L56.2068 35.3397C55.962 35.3085 55.7155 35.3095 55.4709 35.3427L55.4168 35.3501L55.3655 35.3689C55.2122 35.4253 55.0619 35.4932 54.9152 35.5721L54.8771 35.5925L54.8431 35.6192C53.6091 36.5878 52.3697 38.1624 51.1785 39.9384C50.7511 40.5756 50.3263 41.2443 49.9068 41.9278C50.3558 40.6104 50.8682 39.234 51.4303 37.9393C52.0376 36.5408 52.6961 35.2536 53.3867 34.2435C54.0823 33.226 54.7675 32.5543 55.4095 32.2844C57.0804 31.7092 58.5671 32.4063 59.8729 33.9667C61.1893 35.5396 62.2322 37.9043 62.9211 40.3566Z" stroke="#F40000"/>
<path d="M84.9176 43.0442L84.9213 43.0534L84.9254 43.0625C87.4371 48.6463 88.4304 55.5223 88.4307 62.2689L88.4307 62.2704C88.4324 62.7914 88.4259 63.3121 88.4113 63.8322C88.2639 63.0532 88.1084 62.2779 87.9466 61.5061C87.217 57.7875 86.3032 54.1645 85.3937 50.5585C85.3344 50.3234 85.2751 50.0884 85.2159 49.8534L85.2117 49.8368L85.2064 49.8205C85.0656 49.3887 84.9228 48.8265 84.7511 48.1502C84.6326 47.6834 84.5003 47.1622 84.3452 46.592C83.9731 45.2234 83.4844 43.6337 82.7797 42.0375L82.7737 42.0238L82.7668 42.0104C82.3951 41.2891 81.9945 40.6807 81.5695 40.2627C81.1522 39.8523 80.6264 39.547 80.0349 39.652C79.742 39.704 79.484 39.8482 79.2561 40.059C79.3223 39.8965 79.3934 39.7508 79.4683 39.6212C79.6841 39.2479 79.9238 39.0207 80.1614 38.892C80.3966 38.7647 80.659 38.7178 80.9514 38.7515C81.5552 38.8211 82.2889 39.2386 83.0215 40.0049C83.7443 40.7611 84.4211 41.8117 84.9176 43.0442Z" stroke="#F40000"/>
<path d="M44.421 34.8534C44.3774 34.8342 44.3032 34.7789 44.2313 34.6528C44.212 34.6109 44.1939 34.567 44.177 34.5213L43.8262 34.6044C43.6562 34.043 43.5082 33.4861 43.417 32.9302L44.104 33.0242C44.3125 32.2145 44.6069 31.4685 44.9722 30.8154L44.9764 30.8079L44.9803 30.8002L44.9879 30.7856L44.1698 30.2243C43.9232 30.5014 43.6967 30.8105 43.4925 31.1466L43.4727 31.1793L43.458 31.2146C43.4107 31.3286 43.3683 31.446 43.3307 31.566C43.3676 30.915 43.5336 30.2862 43.8883 29.6804L43.8971 29.6653L43.9049 29.6497C44.3123 28.8273 44.8252 28.1679 45.3968 27.7051C45.9602 27.2488 46.5641 26.9965 47.1661 26.9416C47.7394 26.944 48.4368 27.0138 48.9776 27.42C49.491 27.8055 49.9793 28.5878 49.9126 30.2925C49.8021 32.5877 48.9855 34.6585 47.9985 36.4147C47.6116 37.0479 47.1943 37.6809 46.7446 38.0974C46.3071 38.5026 45.9516 38.6082 45.6061 38.4761C44.736 37.9854 44.5205 36.8951 44.715 35.3743L44.7624 35.0041L44.421 34.8534Z" stroke="#F40000"/>
<path d="M108.253 114.256L108.642 114.557C108.633 114.566 108.619 114.579 108.601 114.593C108.598 114.595 108.56 114.626 108.5 114.653L108.159 114.386C108.193 114.346 108.224 114.303 108.253 114.256ZM108.253 114.256L108.436 114.371L108.261 114.246C108.259 114.249 108.256 114.253 108.253 114.256ZM114.431 76.6572L114.432 76.6611C114.64 87.1184 114.454 97.723 112.731 107.865C112.29 110.138 111.73 112.608 110.869 114.649C110.001 116.71 108.879 118.211 107.391 118.733C106.642 118.979 105.869 118.977 105.042 118.88C104.66 118.835 104.277 118.771 103.881 118.705L103.776 118.688C103.352 118.618 102.914 118.547 102.473 118.503C97.213 117.636 91.9282 118.137 86.7356 118.629C86.0124 118.697 85.2909 118.765 84.5715 118.83C79.5875 119.252 74.5968 119.333 69.5868 119.416C68.8954 119.427 68.2036 119.438 67.5114 119.45L67.5087 119.451C62.28 119.571 57.0414 120.018 51.8206 120.462C49.6598 120.646 47.5021 120.83 45.3494 120.991C37.9844 121.539 30.6503 121.817 23.3303 120.92C23.1294 120.883 22.9283 120.846 22.7272 120.81C16.9899 119.764 11.1538 118.7 6.35806 113.963L6.34999 113.955L6.34156 113.947C3.4913 111.377 1.75988 107.68 1.33059 102.575L1.33064 102.575L1.32993 102.568C0.526802 94.4351 0.536878 86.2089 0.546972 77.9684C0.550336 75.2225 0.553701 72.4749 0.526981 69.7287C0.438252 51.6837 0.538325 33.6377 1.28632 15.6377C1.69457 25.329 1.96598 35.033 2.05171 44.7416C2.07785 50.9054 2.07247 57.0655 2.06709 63.2271C2.06298 67.9444 2.05886 72.6625 2.06887 77.3839L2.0689 77.3877C2.08631 79.1777 2.09439 80.9709 2.10247 82.7657C2.11994 86.6459 2.13745 90.5336 2.24939 94.4126H2.24922L2.24993 94.4255C2.29748 95.2943 2.33354 96.0789 2.36718 96.811C2.51042 99.9279 2.60977 102.09 3.36538 105.719L3.36901 105.737L3.37388 105.754C3.89454 107.588 4.74796 109.191 5.8568 110.371C6.28757 110.844 7.26755 111.799 8.34314 112.702C8.88328 113.156 9.45456 113.603 9.99859 113.971C10.5253 114.328 11.0558 114.632 11.5229 114.787C18.5394 117.873 25.8158 118.718 33.1923 118.681C38.0353 118.657 42.956 118.25 47.8771 117.844C50.4366 117.633 52.9963 117.421 55.545 117.264L55.5574 117.263L55.5698 117.261C59.851 116.782 64.1432 116.609 68.4514 116.492C69.3956 116.466 70.341 116.443 71.2871 116.419C74.6517 116.337 78.0269 116.254 81.3977 116.051C83.3974 115.938 85.3975 115.749 87.3867 115.561C87.9768 115.506 88.5659 115.45 89.1538 115.397C91.73 115.162 94.2912 114.967 96.8521 114.97V114.97L96.8634 114.97C98.2477 114.941 100.242 115.199 102.124 115.461C102.292 115.484 102.46 115.508 102.625 115.531C103.376 115.636 104.094 115.736 104.719 115.81C105.469 115.899 106.131 115.956 106.568 115.926L106.635 115.921L106.698 115.899C106.87 115.84 107.007 115.793 107.11 115.758C107.154 115.743 107.192 115.73 107.224 115.718C107.331 115.68 107.435 115.641 107.535 115.574C107.601 115.531 107.669 115.47 107.715 115.428C107.726 115.418 107.736 115.409 107.744 115.402C107.809 115.346 107.912 115.259 108.099 115.121C108.222 115.031 108.336 114.927 108.441 114.812L108.444 114.814C108.527 114.733 108.599 114.641 108.663 114.544C108.681 114.52 108.702 114.491 108.718 114.466C108.719 114.464 108.722 114.46 108.726 114.454C108.73 114.447 108.735 114.438 108.74 114.428C108.743 114.422 108.75 114.409 108.757 114.392C108.784 114.347 108.81 114.302 108.835 114.256L108.846 114.261C108.869 114.213 108.894 114.159 108.917 114.111C108.929 114.085 108.94 114.06 108.95 114.039C108.976 113.987 108.998 113.942 109.008 113.919L109.008 113.918C109.01 113.916 109.015 113.904 109.02 113.89C109.02 113.89 109.021 113.889 109.021 113.888C110.502 110.711 110.866 108.455 111.531 104.336L111.586 103.994L111.587 103.994L111.588 103.981C113.536 89.4837 112.822 72.2249 111.975 56.0724L111.975 56.0714C111.515 47.6202 111.065 39.1679 110.623 30.7145L110.623 30.7145L110.622 30.7053C110.537 29.5066 110.471 28.4066 110.409 27.3656C110.162 23.2729 109.971 20.0916 108.918 15.4118L108.913 15.3927L108.908 15.3739C108.486 14.0092 107.976 12.7082 107.385 11.4901L107.378 11.4763L107.371 11.4629C107.311 11.3573 107.256 11.2564 107.203 11.1589C107.058 10.8937 106.927 10.6537 106.757 10.4111C106.516 10.0658 106.198 9.7091 105.635 9.17558C103.517 7.16271 101.629 6.14347 99.5836 5.5706C97.8956 5.0978 96.1024 4.93225 94.0365 4.74153C93.6366 4.70461 93.2264 4.66675 92.8048 4.62553L92.7936 4.62443L92.7824 4.62384C87.872 4.36607 82.9468 4.24804 78.0229 4.44182L78.0161 4.44218C75.0501 4.59958 72.0893 4.86574 69.1388 5.13373L68.9083 5.15466C66.0329 5.41589 63.1673 5.67622 60.2998 5.8393C57.8795 5.9533 55.4404 6.01999 52.9955 6.08684C49.558 6.18082 46.1091 6.27512 42.6851 6.50167C40.7667 6.61806 38.8685 6.79542 36.9799 6.9719C33.4453 7.30216 29.9442 7.6293 26.4066 7.54773L26.4066 7.54766L26.398 7.54761C23.0892 7.52829 19.782 7.28482 16.459 7.01668C16.0781 6.98595 15.697 6.95488 15.3156 6.9238C12.3759 6.68421 9.42224 6.44348 6.46462 6.34356C6.10754 6.32786 5.75046 6.30807 5.39318 6.2852C12.9107 4.509 20.525 4.01984 28.1746 3.52842C28.8111 3.48753 29.4478 3.44662 30.0847 3.40496L30.0847 3.405L30.0912 3.4045C31.1999 3.3175 32.308 3.22877 33.4156 3.14008C41.301 2.50868 49.1627 1.87918 57.0395 1.88975V1.88982L57.0482 1.88968C61.1457 1.82387 65.2416 1.51075 69.3195 1.19901C70.3854 1.11753 71.45 1.03614 72.5132 0.959285C77.6533 0.5877 82.77 0.320865 87.888 0.646791V0.646835L87.8946 0.647169C88.3161 0.668398 88.7373 0.688296 89.1579 0.708171C93.4917 0.912937 97.7737 1.11527 101.887 2.7452C104.127 3.83374 106.309 5.47733 108.071 7.85021C109.911 10.9231 111.114 14.7702 111.515 18.9059L111.516 18.9126C112.162 24.7613 112.402 30.6661 112.643 36.5897C112.763 39.5419 112.883 42.4988 113.054 45.4556C113.167 47.5998 113.287 49.7425 113.407 51.8843C113.87 60.1387 114.331 68.3812 114.431 76.6572ZM108.117 114.663C108.06 114.64 108.012 114.611 107.972 114.577C108.003 114.547 108.034 114.516 108.064 114.483L108.308 114.696C108.254 114.697 108.188 114.69 108.117 114.663ZM108.93 114.04L108.726 113.94C108.724 113.937 108.722 113.933 108.72 113.93L108.933 114.037C108.932 114.038 108.931 114.039 108.93 114.04ZM108.941 114.027L108.713 113.92C108.691 113.886 108.664 113.853 108.63 113.822L108.972 113.985C108.97 113.989 108.966 113.994 108.962 114C108.958 114.006 108.953 114.013 108.947 114.02C108.946 114.022 108.944 114.024 108.941 114.027Z" stroke="#FAFFFD"/>
<path d="M108.277 114.218C108.255 114.245 108.213 114.299 108.146 114.387C108.19 114.336 108.226 114.291 108.253 114.256C108.261 114.244 108.269 114.231 108.277 114.218Z" fill="#FAFFFD"/>
<path d="M108.524 113.769C108.516 113.787 108.506 113.808 108.494 113.834L108.501 113.819C108.509 113.803 108.517 113.786 108.524 113.769Z" fill="#FAFFFD"/>
<mask id="path-9-inside-1_186_64" fill="white">
<path d="M95.8894 76.2483C93.703 75.3457 91.4692 74.7691 89.2483 74.1041C86.7096 73.3447 84.1512 72.4988 81.5545 72.4837C81.2071 70.5739 80.81 68.6853 80.386 66.8113C81.2824 67.7034 82.0015 69.0056 82.7153 70.1973C82.8847 70.506 83.0332 70.8032 83.193 71.1527C82.9757 70.1376 82.6649 69.1738 82.2699 68.2897C81.8478 67.3074 79.9949 63.6019 79.3239 65.6496C79.2806 66.6474 79.7059 67.5561 79.9368 68.4609C80.3731 69.8383 80.8557 71.181 81.3825 72.484C81.2353 72.4853 81.0885 72.478 80.941 72.485C76.0179 72.573 71.0871 72.504 66.1638 72.7069C65.8579 69.8022 65.375 65.6705 64.9427 63.1453C64.9479 63.1518 64.9529 63.1587 64.9581 63.1651C65.8483 64.3998 66.7347 65.7219 67.2567 67.395C67.3672 67.7262 67.4678 68.0648 67.5652 68.4048C67.4754 67.2132 67.2404 66.0571 66.8723 64.9949C66.5201 64.0066 64.285 58.7768 63.5971 61.0543C63.4518 61.9763 63.8615 63.0828 63.9704 64.0153C64.5238 66.9804 65.2072 69.8864 66.0162 72.714C63.0926 72.8378 60.1717 73.0576 57.2569 73.4664C57.3109 70.6237 57.143 67.7812 56.7566 64.9981C56.5911 67.8371 56.6865 70.6971 57.04 73.4966C56.8846 73.5188 56.7292 73.5381 56.5739 73.5614C54.4857 73.9715 52.3897 74.2157 50.2902 74.348C50.6732 71.7644 50.7267 69.0939 50.4476 66.4799C50.1903 69.0845 50.1156 71.7229 50.225 74.3512C47.7627 74.5036 45.2956 74.4997 42.83 74.4192C43.129 73.0831 43.3656 71.7168 43.5379 70.3305C43.6564 70.8019 43.7686 71.2508 43.8689 71.6534C43.7853 70.9803 43.7033 70.306 43.6199 69.632C43.8396 67.6123 43.9146 65.5627 43.8438 63.5186C43.6102 64.6916 43.4225 65.8131 43.2667 66.9201C43.0618 65.4032 42.8062 63.9028 42.5011 62.4249C41.7802 59.2264 40.8978 56.116 40.1662 52.922C40.0852 52.5966 40.0045 52.2708 39.924 51.9444C42.3181 46.7897 44.7714 42.3463 47.6466 37.2716C49.3208 34.3833 50.9305 31.3569 52.7888 28.7312C52.9793 29.0349 53.1703 29.3444 53.3632 29.6691C53.2317 29.2836 53.0925 28.8965 52.9493 28.5099C53.417 27.86 53.8961 27.2286 54.4016 26.64C56.3722 24.2466 57.2107 25.0949 60.6068 31.1829C61.4003 32.6584 63.7241 37.529 65.2794 40.4819C67.1306 44.0625 68.2684 45.9733 69.7766 49.2109C71.2338 52.3464 72.684 55.4926 74.0476 58.7237C75.2657 61.6969 76.4575 64.6981 77.5913 67.7466C77.5544 67.5757 77.5179 67.4045 77.4806 67.2336C75.7883 59.7356 73.5818 52.5262 70.8971 45.723C72.5049 41.4371 74.1179 37.8922 76.5411 34.5222C80.0746 30.3612 83.0889 28.462 84.7908 33.3862C85.9164 36.1854 86.4858 39.8066 87.9212 44.913C90.2952 53.461 92.0336 62.35 94.0173 71.1103C94.0928 71.3873 94.2533 72.3152 94.1784 71.5691C93.8713 67.4027 93.431 63.2619 93.0028 59.1208C92.179 51.1264 90.4029 43.4568 88.5754 35.8818C87.5685 31.681 85.7042 26.8973 82.389 26.8278C79.8276 26.6753 77.7341 29.3314 75.9538 31.8071C73.5298 35.6468 71.974 40.523 70.8091 45.4949C70.415 44.5113 70.0099 43.5383 69.5937 42.5758C66.9938 37.0418 64.503 31.3524 61.6048 26.1608C59.8979 23.1878 57.6063 19.8614 54.7908 21.3912C53.5311 22.273 52.3974 23.5186 51.4536 25.058C50.1958 22.6221 48.6052 20.6258 46.5728 19.9682C44.9229 19.4323 43.202 19.7409 41.6807 20.8455C38.812 22.8185 37.7248 28.3859 39.0955 32.5697C40.0777 35.9609 42.3171 37.8651 44.2906 39.7959C42.6675 43.6739 41.2009 47.6967 39.8988 51.8423C38.5532 46.3889 37.2495 40.8917 35.1389 37.3778C33.8365 35.1933 31.5779 33.027 29.7546 35.1334C28.1681 37.1246 27.0265 39.8223 25.8006 42.304C20.8297 52.7998 16.9524 64.3512 13.5546 76.1657C11.2148 76.814 8.87895 77.5002 6.53711 78.1191C12.6266 77.8394 18.6936 76.7961 24.7904 76.84C32.072 77.1505 39.3333 78.2801 46.6234 78.2118C50.6481 78.3659 54.6421 77.6323 58.6414 77.0817C62.9125 76.6596 67.193 76.4768 71.4727 76.4189C75.4319 76.4506 79.3777 75.9758 83.3289 75.7487C85.5331 75.7949 87.7278 76.1434 89.9252 76.3778C92.072 76.5578 94.2199 76.7378 96.3543 77.1449C97.2703 77.3128 98.2088 77.5297 99.1492 77.84C98.0861 77.2052 96.9973 76.6735 95.8894 76.2483ZM40.7068 32.4835C39.7715 28.3735 40.6776 24.8983 43.1564 23.361C45.8439 21.7459 48.2891 22.7759 50.8724 25.9969C50.1739 27.1736 49.5254 28.4234 48.8912 29.6274C47.288 32.914 45.7499 36.284 44.3113 39.7466C42.8485 37.2653 41.2312 34.8299 40.7068 32.4835ZM40.1901 74.3081C38.5507 74.205 36.9101 74.0773 35.2689 73.9627C35.9087 70.4866 36.6023 66.9435 36.4104 63.3247C36.2884 61.8803 36.0756 60.3208 35.4254 59.197C34.9362 58.3424 33.9773 58.0867 33.5359 59.1577C32.9908 60.7536 33.0454 62.6945 33.0811 64.4496C33.1394 66.1965 33.4099 68.9516 33.5359 70.1362C33.7428 71.8622 33.5292 72.4547 32.5109 73.2852C32.3453 73.4151 32.1749 73.5307 32.0006 73.6314C32.2163 73.5963 32.4301 73.5396 32.6408 73.4616C34.4135 72.8805 34.3447 71.1264 34.3806 68.8271C34.4142 66.6705 34.417 64.2668 34.5701 62.4602C35.2711 65.9383 34.9478 69.818 34.9589 73.9413C33.2191 73.822 31.4787 73.7244 29.7386 73.6938C30.5813 69.5975 31.4812 64.9001 30.2765 60.7874C29.8808 59.7519 28.8784 59.225 28.2196 60.0064C27.498 60.9008 27.584 62.5344 27.6984 63.7991C28.4932 68.3999 29.6718 67.8652 28.0716 72.9493C27.9264 73.3896 28.143 72.8962 28.2316 72.7607C28.8142 71.6292 29.4897 70.4506 29.5962 68.97C29.7429 67.6794 29.337 66.4768 29.1195 65.2614C28.9012 64.2684 28.8267 63.216 28.901 62.1756C28.9162 62.0154 28.9445 61.8587 28.985 61.709L28.9936 61.7137C29.0015 61.7245 29.0103 61.7336 29.0198 61.7409C29.0726 61.8303 29.118 61.929 29.155 62.0349C29.9291 65.7671 29.7983 69.0694 29.7105 73.6931C27.7689 73.6597 25.8277 73.7106 23.888 73.9198C20.4346 74.3487 17.0217 75.2062 13.6174 76.1484C19.0073 63.1381 25.7658 48.3022 30.8815 38.9912C31.0029 38.7751 31.1348 38.5729 31.276 38.3863C31.3042 38.3588 31.3307 38.3277 31.3597 38.3023C31.3993 38.2736 31.4296 38.2513 31.4542 38.233C31.4792 38.2199 31.5049 38.2115 31.5302 38.2001C32.6941 38.7079 33.9402 40.7187 34.9351 43.3373C36.7301 48.0297 38.0781 53.0708 39.7309 57.8756C40.5369 60.2015 41.4458 62.4502 42.1188 64.8767C42.3197 65.5677 42.6903 66.9908 43.0702 68.4816C42.8562 70.4442 42.7375 72.4279 42.7151 74.4167C41.8732 74.3884 41.0315 74.3522 40.1901 74.3081Z"/>
</mask>
<path d="M95.8894 76.2483C93.703 75.3457 91.4692 74.7691 89.2483 74.1041C86.7096 73.3447 84.1512 72.4988 81.5545 72.4837C81.2071 70.5739 80.81 68.6853 80.386 66.8113C81.2824 67.7034 82.0015 69.0056 82.7153 70.1973C82.8847 70.506 83.0332 70.8032 83.193 71.1527C82.9757 70.1376 82.6649 69.1738 82.2699 68.2897C81.8478 67.3074 79.9949 63.6019 79.3239 65.6496C79.2806 66.6474 79.7059 67.5561 79.9368 68.4609C80.3731 69.8383 80.8557 71.181 81.3825 72.484C81.2353 72.4853 81.0885 72.478 80.941 72.485C76.0179 72.573 71.0871 72.504 66.1638 72.7069C65.8579 69.8022 65.375 65.6705 64.9427 63.1453C64.9479 63.1518 64.9529 63.1587 64.9581 63.1651C65.8483 64.3998 66.7347 65.7219 67.2567 67.395C67.3672 67.7262 67.4678 68.0648 67.5652 68.4048C67.4754 67.2132 67.2404 66.0571 66.8723 64.9949C66.5201 64.0066 64.285 58.7768 63.5971 61.0543C63.4518 61.9763 63.8615 63.0828 63.9704 64.0153C64.5238 66.9804 65.2072 69.8864 66.0162 72.714C63.0926 72.8378 60.1717 73.0576 57.2569 73.4664C57.3109 70.6237 57.143 67.7812 56.7566 64.9981C56.5911 67.8371 56.6865 70.6971 57.04 73.4966C56.8846 73.5188 56.7292 73.5381 56.5739 73.5614C54.4857 73.9715 52.3897 74.2157 50.2902 74.348C50.6732 71.7644 50.7267 69.0939 50.4476 66.4799C50.1903 69.0845 50.1156 71.7229 50.225 74.3512C47.7627 74.5036 45.2956 74.4997 42.83 74.4192C43.129 73.0831 43.3656 71.7168 43.5379 70.3305C43.6564 70.8019 43.7686 71.2508 43.8689 71.6534C43.7853 70.9803 43.7033 70.306 43.6199 69.632C43.8396 67.6123 43.9146 65.5627 43.8438 63.5186C43.6102 64.6916 43.4225 65.8131 43.2667 66.9201C43.0618 65.4032 42.8062 63.9028 42.5011 62.4249C41.7802 59.2264 40.8978 56.116 40.1662 52.922C40.0852 52.5966 40.0045 52.2708 39.924 51.9444C42.3181 46.7897 44.7714 42.3463 47.6466 37.2716C49.3208 34.3833 50.9305 31.3569 52.7888 28.7312C52.9793 29.0349 53.1703 29.3444 53.3632 29.6691C53.2317 29.2836 53.0925 28.8965 52.9493 28.5099C53.417 27.86 53.8961 27.2286 54.4016 26.64C56.3722 24.2466 57.2107 25.0949 60.6068 31.1829C61.4003 32.6584 63.7241 37.529 65.2794 40.4819C67.1306 44.0625 68.2684 45.9733 69.7766 49.2109C71.2338 52.3464 72.684 55.4926 74.0476 58.7237C75.2657 61.6969 76.4575 64.6981 77.5913 67.7466C77.5544 67.5757 77.5179 67.4045 77.4806 67.2336C75.7883 59.7356 73.5818 52.5262 70.8971 45.723C72.5049 41.4371 74.1179 37.8922 76.5411 34.5222C80.0746 30.3612 83.0889 28.462 84.7908 33.3862C85.9164 36.1854 86.4858 39.8066 87.9212 44.913C90.2952 53.461 92.0336 62.35 94.0173 71.1103C94.0928 71.3873 94.2533 72.3152 94.1784 71.5691C93.8713 67.4027 93.431 63.2619 93.0028 59.1208C92.179 51.1264 90.4029 43.4568 88.5754 35.8818C87.5685 31.681 85.7042 26.8973 82.389 26.8278C79.8276 26.6753 77.7341 29.3314 75.9538 31.8071C73.5298 35.6468 71.974 40.523 70.8091 45.4949C70.415 44.5113 70.0099 43.5383 69.5937 42.5758C66.9938 37.0418 64.503 31.3524 61.6048 26.1608C59.8979 23.1878 57.6063 19.8614 54.7908 21.3912C53.5311 22.273 52.3974 23.5186 51.4536 25.058C50.1958 22.6221 48.6052 20.6258 46.5728 19.9682C44.9229 19.4323 43.202 19.7409 41.6807 20.8455C38.812 22.8185 37.7248 28.3859 39.0955 32.5697C40.0777 35.9609 42.3171 37.8651 44.2906 39.7959C42.6675 43.6739 41.2009 47.6967 39.8988 51.8423C38.5532 46.3889 37.2495 40.8917 35.1389 37.3778C33.8365 35.1933 31.5779 33.027 29.7546 35.1334C28.1681 37.1246 27.0265 39.8223 25.8006 42.304C20.8297 52.7998 16.9524 64.3512 13.5546 76.1657C11.2148 76.814 8.87895 77.5002 6.53711 78.1191C12.6266 77.8394 18.6936 76.7961 24.7904 76.84C32.072 77.1505 39.3333 78.2801 46.6234 78.2118C50.6481 78.3659 54.6421 77.6323 58.6414 77.0817C62.9125 76.6596 67.193 76.4768 71.4727 76.4189C75.4319 76.4506 79.3777 75.9758 83.3289 75.7487C85.5331 75.7949 87.7278 76.1434 89.9252 76.3778C92.072 76.5578 94.2199 76.7378 96.3543 77.1449C97.2703 77.3128 98.2088 77.5297 99.1492 77.84C98.0861 77.2052 96.9973 76.6735 95.8894 76.2483ZM40.7068 32.4835C39.7715 28.3735 40.6776 24.8983 43.1564 23.361C45.8439 21.7459 48.2891 22.7759 50.8724 25.9969C50.1739 27.1736 49.5254 28.4234 48.8912 29.6274C47.288 32.914 45.7499 36.284 44.3113 39.7466C42.8485 37.2653 41.2312 34.8299 40.7068 32.4835ZM40.1901 74.3081C38.5507 74.205 36.9101 74.0773 35.2689 73.9627C35.9087 70.4866 36.6023 66.9435 36.4104 63.3247C36.2884 61.8803 36.0756 60.3208 35.4254 59.197C34.9362 58.3424 33.9773 58.0867 33.5359 59.1577C32.9908 60.7536 33.0454 62.6945 33.0811 64.4496C33.1394 66.1965 33.4099 68.9516 33.5359 70.1362C33.7428 71.8622 33.5292 72.4547 32.5109 73.2852C32.3453 73.4151 32.1749 73.5307 32.0006 73.6314C32.2163 73.5963 32.4301 73.5396 32.6408 73.4616C34.4135 72.8805 34.3447 71.1264 34.3806 68.8271C34.4142 66.6705 34.417 64.2668 34.5701 62.4602C35.2711 65.9383 34.9478 69.818 34.9589 73.9413C33.2191 73.822 31.4787 73.7244 29.7386 73.6938C30.5813 69.5975 31.4812 64.9001 30.2765 60.7874C29.8808 59.7519 28.8784 59.225 28.2196 60.0064C27.498 60.9008 27.584 62.5344 27.6984 63.7991C28.4932 68.3999 29.6718 67.8652 28.0716 72.9493C27.9264 73.3896 28.143 72.8962 28.2316 72.7607C28.8142 71.6292 29.4897 70.4506 29.5962 68.97C29.7429 67.6794 29.337 66.4768 29.1195 65.2614C28.9012 64.2684 28.8267 63.216 28.901 62.1756C28.9162 62.0154 28.9445 61.8587 28.985 61.709L28.9936 61.7137C29.0015 61.7245 29.0103 61.7336 29.0198 61.7409C29.0726 61.8303 29.118 61.929 29.155 62.0349C29.9291 65.7671 29.7983 69.0694 29.7105 73.6931C27.7689 73.6597 25.8277 73.7106 23.888 73.9198C20.4346 74.3487 17.0217 75.2062 13.6174 76.1484C19.0073 63.1381 25.7658 48.3022 30.8815 38.9912C31.0029 38.7751 31.1348 38.5729 31.276 38.3863C31.3042 38.3588 31.3307 38.3277 31.3597 38.3023C31.3993 38.2736 31.4296 38.2513 31.4542 38.233C31.4792 38.2199 31.5049 38.2115 31.5302 38.2001C32.6941 38.7079 33.9402 40.7187 34.9351 43.3373C36.7301 48.0297 38.0781 53.0708 39.7309 57.8756C40.5369 60.2015 41.4458 62.4502 42.1188 64.8767C42.3197 65.5677 42.6903 66.9908 43.0702 68.4816C42.8562 70.4442 42.7375 72.4279 42.7151 74.4167C41.8732 74.3884 41.0315 74.3522 40.1901 74.3081Z" stroke="#FAFFFD" stroke-width="2" mask="url(#path-9-inside-1_186_64)"/>
<path d="M68.5323 56.6624C69.0091 58.0316 69.4806 59.505 69.916 60.9472C68.9726 59.054 68.0914 57.0895 67.217 55.1052C67.0466 54.7187 66.8765 54.3313 66.7062 53.9435C65.8307 51.9499 64.9512 49.9472 64.0175 48.0033L64.0137 47.9955L64.0097 47.9877C63.4272 46.876 62.7588 45.8662 62.0166 44.9803C61.6143 44.4999 61.1668 44.0946 60.6832 43.7791C60.5698 43.7034 60.446 43.6436 60.3151 43.5972C60.3913 43.6084 60.467 43.6246 60.5424 43.6461C62.4261 44.4811 63.957 46.3411 65.2609 48.7334C66.5658 51.1275 67.6011 53.9736 68.532 56.6616L68.5323 56.6624Z" stroke="#FAFFFD"/>
<path d="M77.2778 49.5338C78.5986 51.7896 79.5403 54.5559 80.0848 57.5433C79.5478 55.8645 78.9707 54.2184 78.3964 52.5805C78.2809 52.251 78.1655 51.9218 78.0505 51.5928C77.7957 50.8184 77.5406 50.1478 77.2778 49.5338Z" stroke="#FAFFFD"/>
<path d="M29.8267 47.0965C30.037 46.7606 30.2469 46.4525 30.4568 46.183C30.3875 46.3071 30.3212 46.4329 30.2568 46.5578L30.2567 46.5577L30.2522 46.5668C29.6541 47.7859 29.125 49.0771 28.6703 50.4266C28.3622 51.3093 28.0665 52.1952 27.772 53.0773C27.0495 55.2419 26.3345 57.3838 25.4619 59.401C24.4735 61.6601 23.3811 63.8054 22.1938 65.8213C23.1447 63.472 24.0482 61.0793 24.9031 58.6466L24.9033 58.646L24.9315 58.5655C26.3533 54.5012 27.7815 50.4189 29.8267 47.0965Z" stroke="#FAFFFD"/>
<path d="M59.8472 67.1167C59.7491 66.8634 59.644 66.6088 59.5306 66.352L59.5241 66.3373L59.5167 66.3231C58.9691 65.2722 58.388 64.2629 57.8128 63.2638C57.7651 63.1809 57.7174 63.0981 57.6698 63.0153C57.0478 61.9343 56.4354 60.8602 55.8686 59.7334C55.7548 59.4852 55.626 59.2348 55.5011 58.9921C55.4769 58.9452 55.4529 58.8985 55.4292 58.8522C55.2786 58.5583 55.1354 58.2713 55.0138 57.9775C54.7734 57.3972 54.6275 56.8143 54.6904 56.1754C54.7149 56.0213 54.7584 55.8823 54.8145 55.766L54.3642 55.5486L54.8145 55.766C54.8723 55.6462 54.9387 55.5604 55.001 55.5046C55.0624 55.4496 55.1145 55.4281 55.151 55.4209C55.184 55.4144 55.2192 55.4164 55.2607 55.4331C55.3913 55.495 55.536 55.6196 55.7006 55.8217C55.8647 56.0233 56.0179 56.2625 56.1847 56.5233C57.7098 59.1577 58.867 62.2451 59.5796 65.5972C59.681 66.0966 59.7681 66.6037 59.8472 67.1167Z" stroke="#FAFFFD"/>
</g>
<defs>
<clipPath id="clip0_186_64">
<rect width="115" height="122" fill="white"/>
</clipPath>
</defs>
</svg>
