<svg width="115" height="122" viewBox="0 0 115 122" fill="none" xmlns="http://www.w3.org/2000/svg">
<g clip-path="url(#clip0_186_41)">
<path d="M13.3377 117.82C9.59328 117.843 6.35525 117.772 3.13986 117.696L6.92071 94.8749L6.92853 97.2672C6.93206 98.3506 7.22281 99.682 7.66819 101.173C8.11579 102.672 8.7328 104.373 9.41271 106.206C9.53531 106.537 9.66002 106.872 9.78625 107.211C10.9975 110.464 12.3495 114.095 13.3377 117.82Z" stroke="#F40000"/>
<path d="M59.3394 114.812C51.8205 114.658 44.8094 114.49 37.813 114.321L49.4477 77.2274C50.7554 89.8582 55.0333 102.368 59.3394 114.812Z" stroke="#F40000"/>
<path d="M80.1068 117.216C80.5295 98.1174 80.3261 79.0215 80.0977 59.9346C88.5827 78.9983 93.6917 97.9176 98.7743 116.875C91.427 117.038 85.7427 117.128 80.1068 117.216Z" stroke="#F40000"/>
<path d="M22.5636 78.2265C22.4525 78.1764 22.3407 78.1271 22.2282 78.0786C26.0099 79.1944 28.0438 80.7979 29.1295 82.8475C30.4815 85.4 30.4418 88.7636 30.1444 93.1469L30.1334 93.237C29.1603 101.175 28.113 109.718 22.9077 117.148C21.4153 119.018 19.7353 120.242 17.7987 120.903C15.8531 121.566 13.6112 121.672 10.9821 121.245L10.9727 121.243L10.9633 121.242C7.36744 120.796 3.62739 119.828 1.63411 117.304C0.522112 115.857 0.375651 114.229 0.575297 112.47C0.672076 111.618 0.84776 110.754 1.02696 109.872L1.04676 109.775C1.22974 108.875 1.41371 107.955 1.49901 107.058C1.60969 106.359 1.63969 106.172 1.6692 105.985C1.70132 105.781 1.73288 105.577 1.86733 104.714L1.86776 104.711C2.24278 102.205 2.60214 99.7004 2.96125 97.1974C3.78322 91.4683 4.60385 85.7484 5.60783 80.051C5.55527 82.1021 5.51084 84.1518 5.46645 86.2004C5.27142 95.2 5.07688 104.177 4.1943 113.142L4.19203 113.165L4.19191 113.188C4.18816 113.878 4.2739 114.486 4.51354 115.015C4.75779 115.554 5.14487 115.974 5.67921 116.313C6.70534 116.964 8.32952 117.343 10.6727 117.755L10.6727 117.755L10.6852 117.757C11.5112 117.881 12.8212 118.009 14.0625 117.985C14.6827 117.974 15.3015 117.924 15.8408 117.81C16.3439 117.704 16.8415 117.53 17.194 117.225C18.1702 116.646 19.1062 115.684 19.9845 114.489C20.8804 113.271 21.7375 111.782 22.5324 110.144C24.1214 106.869 25.4804 102.955 26.4095 99.309C27.2942 96.1385 27.9544 92.9252 28.3866 89.6866L28.388 89.676L28.3889 89.6653L28.3955 89.5926C28.6018 87.3032 28.8343 84.7228 27.7592 82.3826L27.7467 82.3555L27.7312 82.3301C26.5499 80.4018 24.6334 79.159 22.5636 78.2265Z" stroke="#FAFFFD"/>
<path d="M35.879 100.134C36.9542 88.1216 38.0447 76.1227 40.1103 64.2335C39.9894 70.4148 40.0122 76.5949 40.035 82.7681C40.0364 83.1353 40.0377 83.5026 40.0391 83.8698C40.0703 92.5088 40.0847 101.135 39.6903 109.755L39.6898 109.766L39.6898 109.778C39.6897 110.18 39.7145 110.581 39.7638 110.981L39.768 111.014L39.7766 111.047C39.8298 111.248 39.8955 111.447 39.9732 111.642L39.99 111.685L40.0142 111.723C40.0814 111.83 40.1538 111.928 40.2235 112.018L40.2342 112.032L40.2459 112.045C40.2532 112.053 40.2588 112.059 40.2632 112.064L40.2703 112.072L40.2875 112.09L40.3066 112.107C40.5172 112.294 40.7419 112.468 40.979 112.628L40.9789 112.628L40.9903 112.635C41.0455 112.671 41.1117 112.714 41.1939 112.769L41.2263 112.791L41.2616 112.807C44.1824 114.166 47.075 114.733 51.371 114.816L51.3789 114.816L51.3868 114.816C51.4436 114.815 51.4919 114.814 51.5266 114.813L51.5675 114.812L51.6077 114.804C51.9822 114.732 52.2069 114.698 52.3545 114.675C52.3682 114.673 52.3819 114.671 52.3955 114.669C52.51 114.652 52.6246 114.636 52.7301 114.6C52.8435 114.562 52.9438 114.504 53.0394 114.448C53.0485 114.443 53.0576 114.438 53.0667 114.433C53.1854 114.364 53.3656 114.26 53.6802 114.096L53.7395 114.065L53.7886 114.019C55.386 112.537 56.7518 109.97 57.913 106.856C59.0803 103.725 60.0638 99.9777 60.8637 96.0726C62.4634 88.2637 63.3396 79.7726 63.4714 74.2205C63.5733 70.6028 63.6498 66.9485 63.3563 63.3047L63.3556 63.2962L63.3546 63.2877C63.2214 62.1297 63.0903 61.1205 62.4266 60.3232C61.7627 59.5257 60.6419 59.0207 58.7884 58.5833C57.9891 58.3768 57.2034 58.2154 56.4246 58.0852C57.8301 58.1499 59.219 58.3122 60.5829 58.6371L60.602 58.6417L60.6213 58.6447C61.5499 58.7903 62.3995 59.1632 63.0678 59.7082C63.7334 60.2511 64.187 60.9377 64.388 61.6777C67.4278 74.4966 67.0081 87.8995 64.5497 100.81C63.8459 104.285 62.739 107.692 61.2445 110.983L61.2398 110.993L61.2356 111.004C59.8649 114.428 57.4958 117.878 53.1861 118.6C50.7275 118.891 47.492 118.731 44.4303 118.092C41.3509 117.449 38.5296 116.337 36.845 114.788L36.845 114.788L36.8403 114.783C35.0925 113.216 34.8948 110.93 35.1042 108.695L35.1043 108.695L35.105 108.686C35.2482 106.785 35.4292 104.891 35.6108 102.991C35.7016 102.041 35.7925 101.089 35.8789 100.135L35.879 100.134Z" stroke="#FAFFFD"/>
<path d="M105.175 43.3258L105.166 43.3196L105.156 43.3138C102.712 41.8738 100.167 40.9372 97.499 40.177C99.1288 40.4052 100.745 40.7048 102.281 41.1266C106.017 42.1533 109.174 43.8783 110.865 46.9607C112.111 49.4129 112.725 52.0362 113.099 54.7365C113.324 56.3616 113.459 57.9762 113.594 59.5969C113.686 60.6995 113.778 61.8049 113.899 62.9184C114.564 72.2286 114.655 81.5731 114.281 90.8983C114.255 91.4485 114.23 91.9987 114.205 92.5487C113.905 99.1335 113.605 105.705 111.985 112.097C110.986 114.788 109.841 117.636 107.293 119.286C106.496 119.746 105.578 119.986 104.583 120.131C103.903 120.23 103.22 120.282 102.526 120.334C102.188 120.36 101.848 120.386 101.504 120.417C97.2509 120.705 92.9947 120.948 88.7354 121.145C88.5048 121.151 88.2687 121.156 88.0281 121.163C85.9597 121.215 83.5635 121.276 81.4607 120.887C79.1239 120.455 77.324 119.503 76.6757 117.537C76.4378 115.966 76.4174 114.374 76.4518 112.752C76.4625 112.246 76.4787 111.735 76.4951 111.22C76.5309 110.091 76.5672 108.947 76.5468 107.815C76.5533 107.427 76.5597 107.039 76.5661 106.65C76.6576 101.124 76.749 95.605 77.0054 90.0913L77.0055 90.0894C77.6956 73.9034 78.8869 57.735 81.8789 41.7648C81.5567 51.4275 81.6688 61.1043 81.7807 70.7685C81.8681 78.3136 81.9555 85.8511 81.8359 93.3683C81.8129 94.6785 81.781 96.2698 81.7462 97.9982C81.6943 100.581 81.6363 103.47 81.5929 106.184C81.5207 110.704 81.4879 114.794 81.5955 116.202L81.6227 116.556L81.9662 116.647C83.2864 116.996 84.823 117.053 86.5199 117.013C87.3717 116.993 88.275 116.948 89.2205 116.9L89.2912 116.897C90.2175 116.85 91.1861 116.802 92.1996 116.77L92.2077 116.77L92.2158 116.77C93.1369 116.711 94.1898 116.651 95.2789 116.588C96.5865 116.513 97.9464 116.435 99.1933 116.354C100.344 116.28 101.417 116.201 102.296 116.118C103.162 116.036 103.875 115.947 104.284 115.844L104.395 115.816L104.482 115.743C105.128 115.207 105.658 114.388 106.104 113.388C106.552 112.383 106.931 111.158 107.255 109.77C107.903 106.994 108.343 103.512 108.658 99.7176C109.113 94.2401 109.313 88.0616 109.498 82.3469C109.569 80.1463 109.638 78.0145 109.718 76.018C109.732 75.6809 109.745 75.3437 109.759 75.0064C110.027 68.3911 110.295 61.7475 110.039 55.1039L110.039 55.095L110.038 55.0862C110.001 54.5814 109.973 54.0768 109.945 53.5749C109.852 51.916 109.762 50.2862 109.341 48.7758C108.778 46.7562 107.628 44.9253 105.175 43.3258Z" stroke="#FAFFFD"/>
<path d="M77.711 5.28548L77.7109 5.28557L77.7184 5.29493C80.0905 8.25917 80.5943 12.6325 80.1262 17.1911C79.6601 21.7311 78.241 26.3458 76.8975 29.6823C75.3305 33.5351 73.5171 37.3109 71.4659 40.9929C73.2878 35.7392 75.3526 28.3379 75.9697 24.6936L75.9698 24.6932C76.6673 20.5554 76.776 16.4994 76.2989 13.2343C76.0604 11.6022 75.673 10.1503 75.1277 8.97945C74.5859 7.81603 73.8695 6.89092 72.9494 6.37039C72.9281 6.35748 72.9085 6.34614 72.8927 6.33696L72.889 6.3348C72.8718 6.32486 72.8594 6.31767 72.8466 6.30996L71.311 5.38355L72.1458 6.97082C72.4788 7.60403 72.5778 8.40183 72.2366 9.444C71.8063 10.406 71.0809 11.24 70.2091 12.0401C69.6663 12.5382 69.1015 12.9944 68.5279 13.4578C68.1545 13.7595 67.7774 14.0641 67.4001 14.3853C61.7116 18.9311 55.8217 23.2949 49.845 27.5729C36.6253 36.9677 23.3988 46.3554 10.1655 55.7363C25.7389 40.9715 42.6058 27.2554 60.0616 14.0899L60.0676 14.0854L60.0734 14.0808C60.369 13.8436 60.6662 13.6064 60.9639 13.3687C62.4378 12.1921 63.9274 11.003 65.3274 9.7433L66.2018 8.95656L65.0286 8.87289C63.8127 8.78616 62.3243 8.76863 60.3254 8.7855C57.6204 8.80481 54.9178 8.83371 52.2163 8.86259C47.8573 8.9092 43.5009 8.95577 39.1411 8.96202C39.0396 8.96131 38.9391 8.96092 38.8395 8.96054C37.7774 8.95641 36.8271 8.95273 35.9981 8.57054C35.2326 8.18016 34.7804 7.52663 34.665 6.86267C34.552 6.21214 34.7553 5.52416 35.3603 5.00305C36.4792 4.27318 37.7931 3.78747 39.1993 3.40313C40.1509 3.14302 41.1177 2.93568 42.0867 2.72786C42.5674 2.62478 43.0486 2.52157 43.5288 2.41175C49.8408 1.29337 56.2581 0.539952 62.6952 0.5145V0.514597L62.7051 0.514364C65.5104 0.447971 68.4781 0.596196 71.144 1.29094C73.8081 1.98519 76.1341 3.21512 77.711 5.28548Z" stroke="#FAFFFD"/>
<path d="M65.416 31.9863C60.6674 35.8455 54.0388 38.1114 47.104 37.2891L72.4196 17.2121C73.0033 22.683 70.1829 28.1122 65.416 31.9863Z" stroke="#F40000"/>
</g>
<defs>
<clipPath id="clip0_186_41">
<rect width="115" height="122" fill="white"/>
</clipPath>
</defs>
</svg>
