<svg width="806" height="549" viewBox="0 0 806 549" fill="none" xmlns="http://www.w3.org/2000/svg">
<g clip-path="url(#clip0_13_384)">
<path d="M723.068 535.024C704.991 548.046 681.565 548.7 658.921 547.1C655.759 546.877 652.62 546.616 649.509 546.333C649.49 546.328 649.466 546.33 649.447 546.325C649.297 546.311 649.147 546.297 649.004 546.288C648.362 546.228 647.72 546.168 647.084 546.108L647.234 546.394L647.706 547.284C647.536 546.986 647.367 546.695 647.198 546.397C647.148 546.308 647.092 546.219 647.042 546.129C641.176 535.921 635.358 525.338 633.874 513.682C632.34 501.583 636.651 487.883 647.3 481.937C648.696 481.159 650.175 480.54 651.709 480.09C652.346 479.896 652.991 479.739 653.644 479.6C657.637 478.714 661.795 478.907 665.689 480.159C669.584 481.412 673.074 483.679 675.802 486.728C678.529 489.777 680.395 493.498 681.208 497.507C682.021 501.516 681.752 505.669 680.428 509.54C689.456 500.283 687.771 485.265 684.657 472.714C681.537 460.164 677.76 446.198 684.106 434.925C687.634 428.65 693.838 424.757 700.8 423.189C701.013 423.143 701.227 423.097 701.441 423.057C709.736 421.377 718.359 422.888 725.589 427.288C738.901 435.677 745.739 451.582 747.958 467.163C751.533 492.235 743.621 520.216 723.068 535.024Z" fill="#F2F2F2"/>
<path d="M717.232 494.832C716.707 500.362 715.379 505.787 713.288 510.934C711.362 515.488 708.766 519.729 705.585 523.516C698.973 531.255 690.599 537.294 681.167 541.123C674.033 544.045 666.559 546.053 658.921 547.1C655.759 546.877 652.62 546.615 649.509 546.333C649.49 546.328 649.466 546.33 649.447 546.325C649.297 546.311 649.147 546.296 649.004 546.288C648.362 546.228 647.72 546.168 647.084 546.107L647.234 546.394L647.706 547.284C647.536 546.986 647.367 546.694 647.197 546.397C647.148 546.307 647.092 546.218 647.042 546.129C652.768 540.424 657.043 533.43 659.509 525.733C661.975 518.035 662.561 509.859 661.216 501.889C659.809 493.975 656.551 486.505 651.709 480.09C652.346 479.896 652.991 479.739 653.644 479.6C655.484 482.116 657.098 484.79 658.468 487.59C663.381 497.577 664.949 508.88 662.939 519.827C661.069 529.733 656.413 538.9 649.516 546.252C650.12 546.209 650.73 546.16 651.326 546.106C662.63 545.148 673.91 542.718 684.162 537.741C692.925 533.589 700.533 527.347 706.316 519.563C712.525 511 715.261 500.7 715.731 490.231C716.093 478.952 714.911 467.677 712.217 456.719C709.606 445.545 705.636 434.733 700.398 424.524C700.281 424.292 700.257 424.024 700.332 423.776C700.407 423.527 700.574 423.317 700.8 423.188C700.988 423.062 701.218 423.014 701.441 423.057C701.55 423.085 701.651 423.138 701.736 423.212C701.822 423.285 701.89 423.377 701.935 423.48C702.581 424.741 703.215 426.003 703.825 427.279C708.906 437.909 712.647 449.129 714.962 460.681C717.209 471.826 718.408 483.484 717.232 494.832Z" fill="white"/>
<path d="M33.6274 174.188C33.0892 174.188 32.5558 174.087 32.0545 173.891C31.2438 173.58 30.5471 173.029 30.0568 172.312C29.5665 171.595 29.3059 170.746 29.3096 169.878V124.894C29.3079 123.372 28.7023 121.912 27.6257 120.835C26.549 119.759 25.0893 119.153 23.5667 119.151H14.3551C10.5492 119.147 6.90041 117.633 4.20923 114.942C1.51805 112.251 0.00426547 108.602 0 104.796V14.3551C0.00426801 10.5492 1.51805 6.90041 4.20923 4.20923C6.90041 1.51805 10.5492 0.00426547 14.3551 0H339.274C343.08 0.00427053 346.728 1.51805 349.42 4.20923C352.111 6.90041 353.624 10.5492 353.629 14.3551V104.796C353.624 108.602 352.111 112.251 349.42 114.942C346.728 117.633 343.08 119.147 339.274 119.151H88.4828C87.6867 119.152 86.8995 119.318 86.1708 119.639C85.4421 119.959 84.7878 120.427 84.2492 121.014L36.7901 172.788C36.3894 173.228 35.9011 173.58 35.3565 173.821C34.8119 174.063 34.223 174.188 33.6274 174.188ZM14.3551 1.91283C11.0564 1.91655 7.89378 3.22864 5.56121 5.56121C3.22863 7.89378 1.91656 11.0564 1.91283 14.3551V104.796C1.91656 108.095 3.22864 111.257 5.56121 113.59C7.89378 115.923 11.0564 117.235 14.3551 117.238H23.5667C25.5964 117.241 27.5424 118.048 28.9777 119.483C30.4129 120.919 31.2202 122.865 31.2224 124.894V169.878C31.2225 170.36 31.3682 170.831 31.6404 171.229C31.9127 171.627 32.2988 171.933 32.7482 172.108C33.1976 172.283 33.6894 172.318 34.159 172.209C34.6287 172.099 35.0543 171.85 35.3801 171.495L82.8392 119.721C83.5572 118.94 84.4294 118.315 85.4008 117.888C86.3722 117.461 87.4216 117.24 88.4828 117.238H339.274C342.572 117.235 345.735 115.923 348.068 113.59C350.4 111.257 351.712 108.095 351.716 104.796V14.3551C351.712 11.0564 350.4 7.89378 348.068 5.56121C345.735 3.22864 342.572 1.91656 339.274 1.91283H14.3551Z" fill="#CCCCCC"/>
<path d="M35.2114 40.7339C42.1488 40.7339 47.7727 35.11 47.7727 28.1726C47.7727 21.2352 42.1488 15.6113 35.2114 15.6113C28.274 15.6113 22.6501 21.2352 22.6501 28.1726C22.6501 35.11 28.274 40.7339 35.2114 40.7339Z" fill="#CCCCCC"/>
<path d="M324.619 97.6785H29.01C28.1295 97.6796 27.2575 97.507 26.4438 97.1708C25.6301 96.8346 24.8906 96.3413 24.2676 95.7191C23.6447 95.0969 23.1505 94.3581 22.8133 93.5447C22.4762 92.7314 22.3026 91.8596 22.3026 90.9792C22.3026 90.0987 22.4762 89.2269 22.8133 88.4136C23.1505 87.6002 23.6447 86.8614 24.2676 86.2392C24.8906 85.617 25.6301 85.1237 26.4438 84.7874C27.2575 84.4512 28.1295 84.2787 29.01 84.2798H324.619C325.499 84.2787 326.371 84.4512 327.185 84.7874C327.999 85.1237 328.738 85.617 329.361 86.2392C329.984 86.8614 330.478 87.6002 330.815 88.4136C331.153 89.2269 331.326 90.0987 331.326 90.9792C331.326 91.8596 331.153 92.7314 330.815 93.5447C330.478 94.3581 329.984 95.0969 329.361 95.7191C328.738 96.3413 327.999 96.8346 327.185 97.1708C326.371 97.507 325.499 97.6796 324.619 97.6785Z" fill="#CCCCCC"/>
<path d="M228.316 69.2058H29.01C28.1295 69.2069 27.2575 69.0344 26.4438 68.6982C25.6301 68.362 24.8906 67.8687 24.2676 67.2465C23.6447 66.6243 23.1505 65.8854 22.8133 65.0721C22.4762 64.2587 22.3026 63.3869 22.3026 62.5065C22.3026 61.626 22.4762 60.7542 22.8133 59.9409C23.1505 59.1276 23.6447 58.3887 24.2676 57.7665C24.8906 57.1443 25.6301 56.651 26.4438 56.3148C27.2575 55.9786 28.1295 55.8061 29.01 55.8071H228.316C229.196 55.8061 230.068 55.9786 230.882 56.3148C231.696 56.651 232.435 57.1443 233.058 57.7665C233.681 58.3887 234.175 59.1276 234.512 59.9409C234.849 60.7542 235.023 61.626 235.023 62.5065C235.023 63.3869 234.849 64.2587 234.512 65.0721C234.175 65.8854 233.681 66.6243 233.058 67.2465C232.435 67.8687 231.696 68.362 230.882 68.6982C230.068 69.0344 229.196 69.2069 228.316 69.2058Z" fill="#CCCCCC"/>
<path d="M33.6274 493.245C33.0892 493.244 32.5558 493.143 32.0545 492.948C31.2439 492.636 30.5471 492.085 30.0569 491.369C29.5666 490.652 29.306 489.803 29.3096 488.934V443.951C29.3079 442.428 28.7023 440.969 27.6257 439.892C26.549 438.815 25.0893 438.21 23.5667 438.208H14.3551C10.5492 438.204 6.90042 436.69 4.20924 433.999C1.51806 431.307 0.0042756 427.659 0 423.853V333.412C0.004268 329.606 1.51805 325.957 4.20923 323.266C6.90041 320.575 10.5492 319.061 14.3551 319.057H339.274C343.08 319.061 346.728 320.575 349.42 323.266C352.111 325.957 353.624 329.606 353.629 333.412V423.853C353.624 427.659 352.111 431.307 349.42 433.999C346.728 436.69 343.08 438.204 339.274 438.208H88.4828C87.6867 438.209 86.8995 438.375 86.1708 438.695C85.4421 439.016 84.7878 439.484 84.2492 440.07L36.7901 491.844C36.3894 492.285 35.9011 492.637 35.3565 492.878C34.8119 493.119 34.223 493.244 33.6274 493.245ZM14.3551 320.969C11.0564 320.973 7.89378 322.285 5.56121 324.618C3.22863 326.95 1.91655 330.113 1.91283 333.412V423.853C1.91656 427.152 3.22864 430.314 5.56121 432.647C7.89378 434.979 11.0564 436.291 14.3551 436.295H23.5667C25.5964 436.297 27.5424 437.105 28.9777 438.54C30.4129 439.975 31.2202 441.921 31.2224 443.951V488.934C31.2225 489.417 31.3682 489.887 31.6404 490.285C31.9127 490.683 32.2988 490.99 32.7482 491.165C33.1976 491.34 33.6894 491.375 34.159 491.265C34.6287 491.156 35.0543 490.907 35.3801 490.551L82.8392 438.778C83.5572 437.996 84.4294 437.372 85.4008 436.945C86.3722 436.517 87.4216 436.296 88.4828 436.295H339.274C342.572 436.291 345.735 434.979 348.068 432.647C350.4 430.314 351.712 427.152 351.716 423.853V333.412C351.712 330.113 350.4 326.95 348.068 324.618C345.735 322.285 342.572 320.973 339.274 320.969L14.3551 320.969Z" fill="#CCCCCC"/>
<path d="M513.445 327.436C512.849 327.436 512.261 327.311 511.716 327.07C511.171 326.828 510.683 326.476 510.283 326.036L462.823 274.262C462.285 273.675 461.63 273.207 460.902 272.887C460.173 272.566 459.386 272.4 458.59 272.399H207.799C203.993 272.395 200.344 270.881 197.653 268.19C194.962 265.499 193.448 261.85 193.444 258.044V167.603C193.448 163.797 194.962 160.148 197.653 157.457C200.344 154.766 203.993 153.252 207.799 153.248H532.717C536.523 153.252 540.172 154.766 542.863 157.457C545.554 160.148 547.068 163.797 547.073 167.603V258.044C547.068 261.85 545.554 265.499 542.863 268.19C540.172 270.881 536.523 272.395 532.717 272.399H523.506C521.983 272.401 520.523 273.007 519.447 274.083C518.37 275.16 517.765 276.62 517.763 278.142V323.126C517.767 323.994 517.506 324.843 517.016 325.56C516.525 326.277 515.829 326.827 515.018 327.139C514.517 327.335 513.983 327.436 513.445 327.436ZM207.799 155.161C204.5 155.165 201.338 156.477 199.005 158.809C196.672 161.142 195.36 164.304 195.357 167.603V258.044C195.36 261.343 196.672 264.505 199.005 266.838C201.338 269.171 204.5 270.483 207.799 270.486H458.59C459.651 270.488 460.7 270.709 461.672 271.136C462.643 271.563 463.515 272.188 464.233 272.969L511.692 324.743C512.018 325.098 512.444 325.347 512.914 325.457C513.383 325.566 513.875 325.531 514.324 325.356C514.774 325.181 515.16 324.875 515.432 324.477C515.704 324.079 515.85 323.608 515.85 323.126V278.142C515.852 276.113 516.66 274.167 518.095 272.731C519.53 271.296 521.476 270.489 523.506 270.486H532.717C536.016 270.483 539.179 269.171 541.511 266.838C543.844 264.506 545.156 261.343 545.16 258.044V167.603C545.156 164.304 543.844 161.142 541.511 158.809C539.179 156.477 536.016 155.165 532.717 155.161L207.799 155.161Z" fill="#3F3D56"/>
<path d="M35.2114 359.791C42.1488 359.791 47.7727 354.167 47.7727 347.229C47.7727 340.292 42.1488 334.668 35.2114 334.668C28.274 334.668 22.6501 340.292 22.6501 347.229C22.6501 354.167 28.274 359.791 35.2114 359.791Z" fill="#CCCCCC"/>
<path d="M324.619 416.735H29.01C28.1295 416.736 27.2575 416.563 26.4438 416.227C25.6301 415.891 24.8906 415.397 24.2676 414.775C23.6447 414.153 23.1505 413.414 22.8133 412.601C22.4762 411.788 22.3026 410.916 22.3026 410.035C22.3026 409.155 22.4762 408.283 22.8133 407.47C23.1505 406.656 23.6447 405.917 24.2676 405.295C24.8906 404.673 25.6301 404.18 26.4438 403.844C27.2575 403.507 28.1295 403.335 29.01 403.336H324.619C326.396 403.336 328.1 404.042 329.356 405.298C330.612 406.555 331.318 408.259 331.318 410.035C331.318 411.812 330.612 413.516 329.356 414.772C328.1 416.029 326.396 416.735 324.619 416.735Z" fill="#CCCCCC"/>
<path d="M228.316 388.262H29.01C28.1295 388.263 27.2575 388.091 26.4438 387.755C25.6301 387.419 24.8906 386.925 24.2676 386.303C23.6447 385.681 23.1505 384.942 22.8133 384.129C22.4762 383.315 22.3026 382.444 22.3026 381.563C22.3026 380.683 22.4762 379.811 22.8133 378.998C23.1505 378.184 23.6447 377.445 24.2676 376.823C24.8906 376.201 25.6301 375.708 26.4438 375.371C27.2575 375.035 28.1295 374.863 29.01 374.864H228.316C229.196 374.863 230.068 375.035 230.882 375.371C231.696 375.708 232.435 376.201 233.058 376.823C233.681 377.445 234.175 378.184 234.512 378.998C234.849 379.811 235.023 380.683 235.023 381.563C235.023 382.444 234.849 383.315 234.512 384.129C234.175 384.942 233.681 385.681 233.058 386.303C232.435 386.925 231.696 387.419 230.882 387.755C230.068 388.091 229.196 388.263 228.316 388.262Z" fill="#CCCCCC"/>
<path d="M228.655 193.144C235.593 193.144 241.216 187.52 241.216 180.583C241.216 173.645 235.593 168.021 228.655 168.021C221.718 168.021 216.094 173.645 216.094 180.583C216.094 187.52 221.718 193.144 228.655 193.144Z" fill="#3F3D56"/>
<path d="M518.063 250.089H222.454C220.677 250.089 218.973 249.383 217.717 248.126C216.46 246.87 215.754 245.166 215.754 243.389C215.754 241.613 216.46 239.908 217.717 238.652C218.973 237.396 220.677 236.69 222.454 236.69H518.063C519.839 236.69 521.543 237.396 522.8 238.652C524.056 239.908 524.762 241.613 524.762 243.389C524.762 245.166 524.056 246.87 522.8 248.126C521.543 249.383 519.839 250.089 518.063 250.089Z" fill="#F40000"/>
<path d="M421.759 221.616H222.454C221.573 221.618 220.701 221.445 219.887 221.109C219.074 220.773 218.334 220.279 217.711 219.657C217.088 219.035 216.594 218.296 216.257 217.483C215.92 216.669 215.746 215.798 215.746 214.917C215.746 214.037 215.92 213.165 216.257 212.352C216.594 211.538 217.088 210.799 217.711 210.177C218.334 209.555 219.074 209.062 219.887 208.725C220.701 208.389 221.573 208.217 222.454 208.218H421.759C422.64 208.217 423.512 208.389 424.326 208.725C425.139 209.062 425.879 209.555 426.502 210.177C427.125 210.799 427.619 211.538 427.956 212.352C428.293 213.165 428.467 214.037 428.467 214.917C428.467 215.798 428.293 216.669 427.956 217.483C427.619 218.296 427.125 219.035 426.502 219.657C425.879 220.279 425.139 220.773 424.326 221.109C423.512 221.445 422.64 221.618 421.759 221.616Z" fill="#F40000"/>
<path d="M517.934 344.653C518.221 343.276 518.806 341.98 519.649 340.854C520.491 339.728 521.57 338.801 522.81 338.137C524.049 337.474 525.419 337.09 526.823 337.013C528.227 336.936 529.631 337.168 530.935 337.693L553.372 311.911L558.138 329.02L536.101 350.88C535.075 353.013 533.302 354.696 531.118 355.609C528.934 356.522 526.491 356.603 524.251 355.835C522.012 355.068 520.132 353.505 518.968 351.444C517.803 349.383 517.435 346.967 517.934 344.653Z" fill="#FFB8B8"/>
<path d="M641.076 223.669C654.049 223.669 664.566 213.152 664.566 200.179C664.566 187.205 654.049 176.688 641.076 176.688C628.102 176.688 617.585 187.205 617.585 200.179C617.585 213.152 628.102 223.669 641.076 223.669Z" fill="#FFB8B8"/>
<path d="M613.479 523.516L601.755 523.515L596.176 478.288L613.482 478.289L613.479 523.516Z" fill="#FFB8B8"/>
<path d="M616.47 534.882L578.662 534.881V534.403C578.662 532.47 579.043 530.557 579.783 528.771C580.522 526.986 581.606 525.363 582.972 523.997C584.339 522.63 585.961 521.547 587.747 520.807C589.532 520.068 591.446 519.687 593.378 519.687H593.379L616.471 519.688L616.47 534.882Z" fill="#2F2E41"/>
<path d="M648.867 535.95L637.142 535.949L635.518 491.802L648.87 490.723L648.867 535.95Z" fill="#FFB8B8"/>
<path d="M651.857 547.315L614.05 547.314V546.836C614.05 544.903 614.43 542.99 615.17 541.204C615.909 539.419 616.993 537.797 618.36 536.43C619.726 535.064 621.349 533.98 623.134 533.24C624.92 532.501 626.833 532.12 628.766 532.12H628.767L651.858 532.121L651.857 547.315Z" fill="#2F2E41"/>
<path d="M645.532 527.696L636.401 526.621C635.366 526.496 634.41 526.001 633.711 525.227C633.013 524.452 632.618 523.451 632.601 522.408L630.89 403.489C630.885 403.152 630.761 402.828 630.542 402.573C630.322 402.318 630.02 402.149 629.688 402.094C629.356 402.04 629.015 402.104 628.725 402.275C628.435 402.446 628.215 402.714 628.103 403.031L615.435 438.8L616.341 505.847C616.356 506.953 615.944 508.023 615.191 508.834C614.438 509.645 613.401 510.135 612.296 510.201L600.376 510.707C599.285 510.769 598.212 510.417 597.37 509.721C596.529 509.024 595.981 508.036 595.838 506.953L589.612 431.109L589.608 431.061L599.055 351.852L670.004 356.985L650.309 523.926C650.184 524.972 649.681 525.936 648.894 526.636C648.107 527.336 647.091 527.724 646.038 527.726C645.869 527.726 645.7 527.716 645.532 527.696Z" fill="#2F2E41"/>
<path d="M599.357 358.874C598.721 358.534 598.18 358.038 597.786 357.433C597.393 356.828 597.158 356.133 597.105 355.413C597.105 355.413 603.485 315.737 605.824 314.992L600.708 272.563C600.095 267.388 600.522 262.142 601.965 257.135C603.407 252.127 605.835 247.458 609.106 243.401C612.256 239.466 616.171 236.21 620.615 233.829C625.058 231.448 629.938 229.993 634.959 229.55C635.674 229.486 636.386 229.436 637.093 229.403C643.146 229.078 649.188 230.22 654.705 232.732C660.222 235.243 665.052 239.049 668.783 243.827C672.653 248.646 675.301 254.328 676.503 260.39C677.706 266.453 677.426 272.716 675.687 278.647L672.818 288.631V358.407C672.815 359.089 672.653 359.759 672.343 360.366C672.034 360.973 671.587 361.499 671.038 361.902C662.104 368.458 652.008 370.776 642.197 370.776C623.632 370.776 606.085 362.475 599.357 358.874Z" fill="#F40000"/>
<path d="M544.278 346.105L531.938 336.877C531.454 336.515 531.052 336.055 530.757 335.528C530.462 335 530.282 334.416 530.229 333.814C530.175 333.212 530.248 332.605 530.444 332.034C530.641 331.462 530.955 330.938 531.367 330.496L604.88 251.616C607.24 249.106 610.422 247.525 613.847 247.161C617.273 246.797 620.716 247.673 623.551 249.631L623.551 249.631C625.278 250.835 626.719 252.406 627.77 254.23C628.821 256.054 629.458 258.088 629.633 260.186C629.809 262.284 629.52 264.396 628.787 266.369C628.054 268.343 626.895 270.131 625.392 271.606L549.87 345.73C549.207 346.388 548.346 346.81 547.42 346.932C546.494 347.055 545.553 346.87 544.741 346.408C544.581 346.316 544.426 346.215 544.278 346.105Z" fill="#F40000"/>
<path d="M638.723 335.661C639.262 334.362 640.08 333.198 641.118 332.25C642.156 331.301 643.389 330.592 644.731 330.172C646.073 329.752 647.49 329.631 648.884 329.818C650.277 330.005 651.613 330.496 652.797 331.255L679.659 310.124L681.141 327.822L655.405 345.175C653.998 347.079 651.941 348.4 649.625 348.889C647.309 349.378 644.894 349 642.838 347.828C640.782 346.655 639.227 344.769 638.468 342.526C637.71 340.284 637.801 337.841 638.723 335.661Z" fill="#FFB8B8"/>
<path d="M662.766 343.91C662.055 343.689 661.414 343.286 660.907 342.741C660.4 342.196 660.044 341.527 659.875 340.802L657.161 329.406C656.962 328.597 657.006 327.747 657.287 326.963C657.567 326.178 658.073 325.494 658.74 324.994L676.997 305.25L650.142 263.841C648.11 261.338 646.964 258.232 646.884 255.009C646.804 251.786 647.794 248.627 649.7 246.027C651.22 243.955 653.26 242.321 655.614 241.291C657.968 240.261 660.552 239.872 663.105 240.163C665.658 240.454 668.089 241.414 670.151 242.947C672.214 244.479 673.834 246.53 674.849 248.89L699.815 297.486C702.297 302.314 702.916 307.887 701.554 313.142C700.193 318.397 696.945 322.968 692.431 325.983L666.917 343.026C666.135 343.725 665.124 344.112 664.076 344.113C663.631 344.113 663.19 344.044 662.766 343.91Z" fill="#F40000"/>
<path d="M658.482 221.179C657.929 221.511 657.306 221.711 656.663 221.764C656.019 221.817 655.372 221.721 654.772 221.484C654.171 221.247 653.634 220.875 653.2 220.396C652.767 219.918 652.449 219.346 652.272 218.725L652.257 218.667C651.779 216.712 652.156 214.667 652.28 212.658C652.404 210.65 652.195 208.445 650.82 206.977C648.256 204.239 643.729 205.722 640.04 205.045C637.878 204.575 635.962 203.333 634.65 201.552C633.338 199.771 632.72 197.573 632.912 195.369C632.962 194.952 633.042 194.534 633.132 194.116C633.357 193.056 633.334 191.96 633.063 190.911C632.793 189.863 632.283 188.891 631.574 188.073C630.865 187.255 629.976 186.612 628.977 186.195C627.978 185.778 626.895 185.599 625.815 185.671C622.091 185.903 618.077 187.054 614.98 184.311C613.844 183.229 613.053 181.836 612.703 180.307C612.354 178.778 612.463 177.179 613.016 175.711C614.749 170.623 619.708 167.937 624.622 166.449C630.7 164.657 637.1 164.243 643.358 165.235C649.616 166.228 655.575 168.602 660.8 172.186C663.92 174.361 666.838 177.099 668.182 180.657C669.526 184.215 668.911 188.716 665.936 191.085C668.265 193.525 669.912 196.534 670.712 199.811C671.512 203.087 671.437 206.517 670.494 209.755C669.043 214.518 662.025 219.115 658.482 221.179Z" fill="#2F2E41"/>
<path d="M806 547.07C805.999 547.323 805.898 547.566 805.719 547.745C805.54 547.924 805.297 548.025 805.044 548.026H440.649C440.396 548.026 440.152 547.925 439.973 547.746C439.794 547.567 439.693 547.323 439.693 547.07C439.693 546.816 439.794 546.573 439.973 546.393C440.152 546.214 440.396 546.113 440.649 546.113H805.044C805.297 546.114 805.54 546.215 805.719 546.394C805.898 546.573 805.999 546.816 806 547.07Z" fill="#3F3D56"/>
</g>
<defs>
<clipPath id="clip0_13_384">
<rect width="806" height="548.026" fill="white"/>
</clipPath>
</defs>
</svg>
