<svg width="806" height="579" viewBox="0 0 806 579" fill="none" xmlns="http://www.w3.org/2000/svg">
<g clip-path="url(#clip0_10_170)">
<path d="M591.349 0.334717H0.252117V378.899H591.349V0.334717Z" fill="#E6E6E6"/>
<path d="M574.447 47.8159H17.1546V356.503H574.447V47.8159Z" fill="white"/>
<path d="M591.097 0H0V25.1117H591.097V0Z" fill="#F40000"/>
<path d="M18.6619 17.494C21.2326 17.494 23.3166 15.41 23.3166 12.8393C23.3166 10.2685 21.2326 8.18457 18.6619 8.18457C16.0912 8.18457 14.0072 10.2685 14.0072 12.8393C14.0072 15.41 16.0912 17.494 18.6619 17.494Z" fill="white"/>
<path d="M36.3281 17.494C38.8988 17.494 40.9828 15.41 40.9828 12.8393C40.9828 10.2685 38.8988 8.18457 36.3281 8.18457C33.7574 8.18457 31.6734 10.2685 31.6734 12.8393C31.6734 15.41 33.7574 17.494 36.3281 17.494Z" fill="white"/>
<path d="M53.9943 17.494C56.565 17.494 58.649 15.41 58.649 12.8393C58.649 10.2685 56.565 8.18457 53.9943 8.18457C51.4236 8.18457 49.3396 10.2685 49.3396 12.8393C49.3396 15.41 51.4236 17.494 53.9943 17.494Z" fill="white"/>
<path d="M194.721 73.2063H85.7227V191.46H194.721V73.2063Z" fill="#E6E6E6"/>
<path d="M350.299 73.2063H241.301V191.46H350.299V73.2063Z" fill="#E6E6E6"/>
<path d="M505.876 73.2063H396.878V191.46H505.876V73.2063Z" fill="#E6E6E6"/>
<path d="M194.721 212.864H85.7227V331.117H194.721V212.864Z" fill="#E6E6E6"/>
<path d="M350.299 212.864H241.301V331.117H350.299V212.864Z" fill="#E6E6E6"/>
<path d="M505.876 212.864H396.878V331.117H505.876V212.864Z" fill="#E6E6E6"/>
<path d="M267.646 243.256L287.561 235.382L289.877 274.749C289.877 274.749 294.045 286.791 292.656 291.422C292.656 291.422 293.582 299.296 291.266 299.759C288.95 300.222 282.464 301.149 282.006 300.685C281.547 300.221 281.543 298.832 281.543 298.832C281.543 298.832 276.911 302.074 276.448 305.779C276.448 305.779 256.996 311.8 256.533 306.242C256.07 300.684 266.259 296.052 266.259 296.052L274.132 284.011L267.646 243.256Z" fill="white"/>
<path d="M309.794 243.256L329.706 235.382L332.022 274.749C332.022 274.749 336.19 286.791 334.801 291.422C334.801 291.422 335.727 299.296 333.411 299.759C331.095 300.222 324.61 301.149 324.151 300.685C323.693 300.221 323.688 298.832 323.688 298.832C323.688 298.832 319.056 302.074 318.593 305.779C318.593 305.779 299.141 311.8 298.678 306.242C298.215 300.684 308.404 296.052 308.404 296.052L316.277 284.011L309.794 243.256Z" fill="white"/>
<path d="M311.739 91.2329C311.739 91.2329 307.499 103.082 312.412 108.425L308.316 122.501C308.316 122.501 322.869 166.162 318.712 172.261C318.712 172.261 303.188 180.022 272.137 169.488L284.75 120.56L282.948 99.9078L285.443 90.2051L290.987 89.655C290.987 89.655 287.661 102.129 293.759 104.07C299.858 106.011 305.807 89.9668 305.807 89.9668L311.739 91.2329Z" fill="#3F3D56"/>
<path d="M115.905 167.72L121.257 169.91L146.798 136.342L154.824 175.747L160.176 174.775C163.608 140.802 166.41 106.15 162.973 89.7614L143.149 88.9097L134.149 117.616L129.77 137.076L115.905 167.72Z" fill="white"/>
<path d="M440.696 89.4927C440.696 89.4927 433.392 99.6455 433.749 103.743C434.105 107.84 438.736 174.638 438.736 174.638L449.602 175.172L446.394 127.078L449.065 114.074L455.656 174.638L469.016 174.994L457.082 96.4403L454.766 89.4936L440.696 89.4927Z" fill="white"/>
<path d="M481.973 253.059C480.034 250.732 476.7 249.474 473.499 248.794C473.591 248.503 463.765 246.473 463.598 246.891L459.893 243.939L448.509 249.85L442.112 245.495L439.141 246.55C439.262 246.025 429.916 247.644 429.916 247.644C428.131 247.709 425.851 247.82 423.299 248.017C414.361 248.704 413.672 271.854 413.672 271.854C417.785 270.172 422.169 269.253 426.611 269.145L429.027 296.833C441.453 295.767 454.485 297.007 467.992 300.042L474.326 278.276L489.077 272.54C489.077 272.54 486.557 258.559 481.973 253.059Z" fill="#3F3D56"/>
<path d="M165.432 239.874C163.834 237.957 161.088 236.92 158.45 236.36C158.529 236.12 150.429 234.448 150.291 234.792L147.238 232.361L137.86 237.231L132.589 233.643L130.141 234.513C130.241 234.081 122.54 235.414 122.54 235.414C121.074 235.467 119.19 235.559 117.088 235.721C109.723 236.288 109.157 255.36 109.157 255.36C112.545 253.974 116.158 253.217 119.818 253.128L121.809 308.975C132.047 308.097 142.785 309.119 153.911 311.619L159.13 260.653L171.284 255.927C171.284 255.927 169.208 244.408 165.432 239.874Z" fill="white"/>
<path d="M687.111 254.74H739.37V226.777C739.37 219.847 736.617 213.201 731.717 208.3C726.817 203.4 720.171 200.647 713.241 200.647C706.311 200.647 699.665 203.4 694.764 208.3C689.864 213.201 687.111 219.847 687.111 226.777V254.74Z" fill="#2F2E41"/>
<path d="M663.783 565.857H652.543L647.196 522.499H663.785L663.783 565.857Z" fill="#FFB6B6"/>
<path d="M666.65 562.187H644.513C640.772 562.187 637.184 563.673 634.539 566.319C631.894 568.964 630.407 572.551 630.407 576.292V576.751H666.65V562.187Z" fill="#2F2E41"/>
<path d="M798.146 550.857L788.359 556.383L762.387 521.259L776.833 513.104L798.146 550.857Z" fill="#FFB6B6"/>
<path d="M798.839 546.252L779.563 557.131C776.305 558.97 773.911 562.029 772.908 565.633C771.905 569.237 772.375 573.092 774.214 576.35L774.439 576.749L806 558.933L798.839 546.252Z" fill="#2F2E41"/>
<path d="M726.31 370.876L727.177 375.212C727.177 375.212 729.779 377.814 728.478 379.115C727.177 380.416 727.611 386.488 727.611 386.488C728.339 397.56 742.805 459.775 745.393 471.926C745.393 471.926 765.343 484.937 780.955 510.524C796.568 536.112 797 542.617 797 542.617L779.655 549.991L736.29 497.514C736.29 497.514 724.146 490.141 719.809 483.637C715.471 477.132 688.578 409.908 688.578 409.908L673.396 480.166C673.396 480.166 674.263 505.754 670.36 522.235C667.96 532.635 666.509 543.232 666.023 553.894L645.64 551.726C645.64 551.726 646.941 490.141 649.109 483.636C649.109 483.636 640.001 408.607 658.217 378.682L672.897 339.545L687.274 334.011L726.31 370.876Z" fill="#2F2E41"/>
<path d="M713.51 207.483C686.146 207.95 686.15 248.655 713.51 249.118C740.873 248.65 740.869 207.946 713.51 207.483Z" fill="#FFB8B8"/>
<path d="M692.45 227.22H697.101L698.367 224.054L697.734 227.22H723.171L722.346 220.594L728.529 227.22H734.696V223.63C734.698 220.856 734.154 218.109 733.094 215.546C732.034 212.983 730.48 210.653 728.52 208.69C726.56 206.728 724.233 205.17 721.671 204.107C719.109 203.044 716.363 202.495 713.589 202.493C710.816 202.491 708.069 203.036 705.505 204.095C702.942 205.155 700.612 206.709 698.65 208.669C696.687 210.629 695.129 212.957 694.066 215.518C693.003 218.08 692.455 220.826 692.453 223.6V223.63L692.45 227.22Z" fill="#2F2E41"/>
<path d="M685.292 261.273L737.001 261.692L726.076 372.551C726.076 372.551 665.604 369.359 665.566 350.901L671.231 334.498L685.292 261.273Z" fill="#F40000"/>
<path d="M739.223 383.268C738.429 382.294 737.857 381.158 737.549 379.94C737.24 378.722 737.203 377.451 737.439 376.216C737.675 374.982 738.178 373.814 738.914 372.796C739.651 371.777 740.601 370.932 741.699 370.32L739.452 350.804L750.979 346.545L753.765 374.152C754.665 376.064 754.833 378.239 754.237 380.266C753.642 382.294 752.325 384.033 750.535 385.155C748.744 386.277 746.605 386.705 744.521 386.357C742.437 386.01 740.552 384.91 739.223 383.268Z" fill="#FFB6B6"/>
<path d="M730.202 271.242L737.006 261.732C737.006 261.732 741.662 260.699 747.163 267.117C752.664 273.534 755.873 353.756 755.873 353.756L735.703 358.34L723.784 301.497L730.202 271.242Z" fill="#F40000"/>
<path d="M616.227 358.238L617.727 429.508L663.866 453.891L747.891 438.887L749.955 364.802L696.688 346.046L616.227 358.238Z" fill="white"/>
<path d="M663.746 454.661L617 429.957L615.477 357.606L696.76 345.29L696.933 345.351L750.706 364.285L748.611 439.506L663.746 454.661ZM618.455 429.059L663.986 453.121L747.172 438.266L749.203 365.318L696.617 346.802L616.977 358.869L618.455 429.059Z" fill="#CACACA"/>
<path d="M662.837 377.561L662.656 377.49L615.955 358.922L616.499 357.553L663.02 376.049L749.854 364.072L750.056 365.532L662.837 377.561Z" fill="#CACACA"/>
<path d="M663.665 376.796L662.192 376.814L663.129 453.9L664.603 453.882L663.665 376.796Z" fill="#CACACA"/>
<path d="M656.935 373.872L640.1 367.047L721.143 354.134L737.977 360.958L656.935 373.872Z" fill="#CACACA"/>
<path d="M616.518 378.912L615.935 380.266L635.46 388.672L636.043 387.319L616.518 378.912Z" fill="#CACACA"/>
<path d="M625.36 403.226L624.777 404.58L644.302 412.986L644.885 411.633L625.36 403.226Z" fill="#F40000"/>
<path d="M359.517 457.254L361.017 528.525L407.156 552.908L491.181 537.903L493.245 463.819L439.979 445.062L359.517 457.254Z" fill="white"/>
<path d="M407.036 553.677L360.29 528.974L358.767 456.622L440.05 444.307L440.223 444.367L493.996 463.302L491.902 538.523L407.036 553.677ZM361.745 528.076L407.277 552.138L490.462 537.283L492.493 464.335L439.908 445.818L360.267 457.885L361.745 528.076Z" fill="#CACACA"/>
<path d="M406.127 476.578L405.946 476.506L359.245 457.938L359.789 456.569L406.31 475.065L493.144 463.089L493.346 464.548L406.127 476.578Z" fill="#CACACA"/>
<path d="M406.955 475.813L405.482 475.831L406.42 552.916L407.893 552.898L406.955 475.813Z" fill="#CACACA"/>
<path d="M396.147 471.211L383.391 466.064L464.433 453.151L477.189 458.298L396.147 471.211Z" fill="#CACACA"/>
<path d="M359.808 477.929L359.226 479.282L378.751 487.689L379.333 486.335L359.808 477.929Z" fill="#CACACA"/>
<path d="M368.65 502.243L368.067 503.597L387.592 512.003L388.175 510.65L368.65 502.243Z" fill="#F40000"/>
<path d="M439.673 467.026L441.415 549.76L494.975 578.065L592.515 560.647L594.909 474.646L533.076 452.874L439.673 467.026Z" fill="#F40000"/>
<path d="M494.835 578.958L440.57 550.281L438.802 466.293L533.159 451.996L533.36 452.067L595.782 474.047L593.35 561.366L494.835 578.958ZM442.259 549.239L495.114 577.171L591.679 559.927L594.037 475.246L532.993 453.751L440.544 467.759L442.259 549.239Z" fill="#3F3D56"/>
<path d="M493.779 489.459L493.57 489.375L439.357 467.821L439.989 466.231L493.992 487.702L594.792 473.799L595.026 475.494L493.779 489.459Z" fill="#3F3D56"/>
<path d="M494.741 488.57L493.031 488.591L494.119 578.075L495.83 578.054L494.741 488.57Z" fill="#3F3D56"/>
<path d="M483.062 483.267L467.386 477.254L561.463 462.263L577.14 468.276L483.062 483.267Z" fill="#3F3D56"/>
<path d="M440.011 491.026L439.335 492.597L462 502.356L462.677 500.785L440.011 491.026Z" fill="#3F3D56"/>
<path d="M450.275 519.251L449.598 520.822L472.264 530.581L472.94 529.01L450.275 519.251Z" fill="white"/>
<path d="M642.387 370.023C643.524 369.489 644.531 368.712 645.336 367.747C646.141 366.781 646.724 365.652 647.045 364.437C647.366 363.222 647.417 361.951 647.194 360.714C646.971 359.478 646.48 358.305 645.754 357.279L656.226 340.657L647.678 331.83L633.219 355.51C631.576 356.843 630.479 358.733 630.136 360.821C629.794 362.908 630.228 365.049 631.358 366.838C632.488 368.627 634.235 369.939 636.267 370.526C638.3 371.113 640.477 370.934 642.387 370.023V370.023Z" fill="#FFB6B6"/>
<path d="M693.238 265.642L685.736 260.699C685.736 260.699 679.946 261.997 673.789 273.841C667.632 285.684 642.8 338.634 642.8 338.634L653.007 348.994L680.237 307.454L693.238 265.642Z" fill="#F40000"/>
</g>
<defs>
<clipPath id="clip0_10_170">
<rect width="806" height="578.958" fill="white"/>
</clipPath>
</defs>
</svg>
