<svg width="680" height="609" viewBox="0 0 680 609" fill="none" xmlns="http://www.w3.org/2000/svg">
<g clip-path="url(#clip0_41_222)">
<path d="M3.81058 136.514C2.47903 136.888 1.3504 137.776 0.672271 138.981C-0.00585523 140.187 -0.178112 141.612 0.193296 142.944L87.4129 454.434C87.7874 455.765 88.6748 456.894 89.8804 457.572C91.086 458.25 92.5113 458.422 93.8437 458.051L415.379 368.018C416.711 367.644 417.839 366.756 418.518 365.551C419.196 364.345 419.368 362.92 418.997 361.587L331.777 50.0982C331.402 48.7667 330.515 47.638 329.31 46.9599C328.104 46.2818 326.679 46.1095 325.346 46.4809L3.81058 136.514Z" fill="#E6E6E6"/>
<path d="M97.8843 443.342L404.288 357.547L321.305 61.1897L14.9019 146.985L97.8843 443.342Z" fill="white"/>
<path d="M55.4123 186.557C53.368 187.13 52.5252 190.526 53.5335 194.127C54.5419 197.728 57.0256 200.192 59.0699 199.62L198.816 160.49C200.86 159.917 201.703 156.522 200.695 152.92C199.686 149.319 197.203 146.855 195.158 147.427L55.4123 186.557Z" fill="#E6E6E6"/>
<path d="M66.6662 226.749C64.6219 227.322 63.7791 230.717 64.7874 234.319C65.7958 237.92 68.2795 240.384 70.3238 239.812L210.07 200.682C212.114 200.109 212.957 196.714 211.948 193.112C210.94 189.511 208.456 187.047 206.412 187.619L66.6662 226.749Z" fill="#E6E6E6"/>
<path d="M77.7907 266.478C75.7464 267.05 74.9036 270.446 75.912 274.047C76.9203 277.649 79.404 280.113 81.4483 279.54L221.194 240.41C223.239 239.838 224.081 236.442 223.073 232.841C222.065 229.24 219.581 226.776 217.537 227.348L77.7907 266.478Z" fill="#E6E6E6"/>
<path d="M89.0446 306.67C87.0003 307.242 86.1575 310.638 87.1659 314.239C88.1742 317.84 90.6579 320.305 92.7022 319.732L232.448 280.602C234.492 280.03 235.335 276.634 234.327 273.033C233.319 269.432 230.835 266.968 228.791 267.54L89.0446 306.67Z" fill="#E6E6E6"/>
<path d="M266.078 128.033C265.219 128.272 264.416 128.678 263.715 129.228C263.013 129.778 262.427 130.461 261.99 131.238C261.552 132.014 261.272 132.869 261.165 133.754C261.059 134.639 261.128 135.537 261.368 136.395C261.608 137.253 262.015 138.056 262.566 138.757C263.117 139.457 263.8 140.043 264.577 140.479C265.354 140.916 266.21 141.195 267.095 141.301C267.98 141.406 268.877 141.336 269.735 141.095L295.86 133.78C297.592 133.295 299.061 132.142 299.943 130.574C300.825 129.006 301.048 127.152 300.563 125.42C300.078 123.688 298.924 122.219 297.356 121.337C295.789 120.456 293.935 120.233 292.203 120.718L266.078 128.033Z" fill="#E6E6E6"/>
<path d="M277.114 167.446C276.255 167.685 275.452 168.091 274.751 168.641C274.049 169.191 273.463 169.874 273.026 170.651C272.588 171.427 272.308 172.282 272.202 173.167C272.095 174.052 272.164 174.95 272.404 175.808C272.644 176.666 273.052 177.469 273.602 178.17C274.153 178.87 274.836 179.456 275.614 179.892C276.391 180.329 277.246 180.608 278.131 180.714C279.016 180.819 279.914 180.749 280.772 180.508L306.896 173.193C308.629 172.708 310.097 171.555 310.979 169.987C311.861 168.419 312.084 166.565 311.599 164.833C311.114 163.101 309.96 161.632 308.393 160.75C306.825 159.868 304.971 159.646 303.239 160.131L277.114 167.446Z" fill="#E6E6E6"/>
<path d="M288.15 206.859C287.292 207.099 286.49 207.505 285.79 208.056C285.089 208.606 284.504 209.288 284.067 210.065C283.631 210.841 283.351 211.696 283.245 212.58C283.138 213.464 283.207 214.361 283.447 215.219C283.688 216.076 284.094 216.878 284.645 217.579C285.195 218.279 285.877 218.865 286.654 219.301C287.43 219.738 288.285 220.017 289.169 220.124C290.053 220.23 290.95 220.161 291.807 219.921L317.932 212.606C319.664 212.121 321.133 210.968 322.015 209.4C322.897 207.832 323.12 205.978 322.635 204.246C322.15 202.514 320.996 201.045 319.429 200.163C317.861 199.281 316.007 199.058 314.275 199.543L288.15 206.859Z" fill="#E6E6E6"/>
<path d="M299.186 246.272C297.456 246.758 295.989 247.912 295.109 249.479C294.229 251.046 294.006 252.899 294.491 254.629C294.976 256.36 296.128 257.828 297.694 258.71C299.26 259.592 301.112 259.817 302.843 259.334L328.968 252.019C330.699 251.532 332.165 250.378 333.045 248.811C333.926 247.244 334.148 245.392 333.663 243.661C333.178 241.93 332.027 240.462 330.46 239.58C328.894 238.698 327.042 238.474 325.311 238.956L299.186 246.272Z" fill="#E6E6E6"/>
<path d="M309.73 314.588C308.636 314.893 307.612 315.41 306.719 316.111C305.825 316.812 305.078 317.682 304.52 318.671C303.963 319.661 303.606 320.751 303.47 321.878C303.334 323.006 303.422 324.149 303.728 325.243C304.035 326.336 304.553 327.359 305.255 328.252C305.957 329.145 306.828 329.891 307.818 330.447C308.808 331.003 309.898 331.359 311.026 331.494C312.154 331.628 313.297 331.539 314.39 331.232L347.679 321.911C349.886 321.293 351.757 319.823 352.881 317.826C354.005 315.828 354.289 313.466 353.671 311.258C353.053 309.051 351.583 307.18 349.585 306.056C347.588 304.933 345.225 304.648 343.018 305.267L309.73 314.588Z" fill="#F40000"/>
<path d="M343.989 280.973L97.6582 349.948L98.2713 352.137L344.602 283.163L343.989 280.973Z" fill="#E6E6E6"/>
<path d="M591.424 575.36L571.668 580.136L543.844 506.207L573.003 499.158L591.424 575.36Z" fill="#A0616A"/>
<path d="M537.584 608.378L537.45 607.826C535.884 601.317 536.964 594.453 540.453 588.74C543.941 583.027 549.554 578.931 556.059 577.351L594.712 568.006L600.779 593.101L537.584 608.378Z" fill="#2F2E41"/>
<path d="M503.966 588.818L483.641 588.817L473.972 510.42L503.969 510.421L503.966 588.818Z" fill="#A0616A"/>
<path d="M508.889 608.26L443.873 608.258V607.689C443.873 600.993 446.534 594.571 451.269 589.836C456.004 585.101 462.426 582.441 469.122 582.441H469.123L508.89 582.443L508.889 608.26Z" fill="#2F2E41"/>
<path d="M473.956 558.213L454.221 323.018L535.915 307.96L536.238 307.902L560.149 323.273L551.826 409.83L590.145 544.78L557.059 553.487L518.679 428.329L509.896 390.269L505.394 439.725L508.736 561.691L473.956 558.213Z" fill="#2F2E41"/>
<path d="M451.691 328.353L451.475 328.079L479.705 115.525L479.741 115.247L479.94 115.048C480.356 114.632 490.247 104.858 500.421 104.858C501.892 104.858 503.29 104.82 504.631 104.786C512.416 104.584 518.566 104.422 525.875 111.732C533.322 119.178 557.617 146.368 557.617 183.607C557.617 219.651 560.9 331.664 560.933 332.791L560.979 334.373L559.652 333.51C559.325 333.299 526.647 312.492 499.241 331.834C490.676 337.879 482.982 339.999 476.403 339.999C461.092 339.999 451.821 328.52 451.691 328.353Z" fill="#F40000"/>
<path d="M515.631 87.3194C535.364 76.5325 542.616 51.7916 531.829 32.059C521.042 12.3264 496.301 5.07432 476.568 15.8612C456.836 26.648 449.584 51.389 460.371 71.1216C471.158 90.8542 495.898 98.1062 515.631 87.3194Z" fill="#A0616A"/>
<path d="M433.766 374.033C435.692 372.54 437.268 370.643 438.382 368.475C439.496 366.307 440.121 363.921 440.213 361.486C440.305 359.05 439.863 356.624 438.916 354.379C437.969 352.133 436.541 350.122 434.733 348.488L457.857 293.943L427.58 299.516L410.262 350.458C407.718 353.677 406.443 357.718 406.679 361.814C406.915 365.911 408.646 369.779 411.543 372.685C414.44 375.591 418.302 377.333 422.398 377.581C426.494 377.83 430.539 376.567 433.766 374.033H433.766Z" fill="#A0616A"/>
<path d="M411.425 331.604L418.871 315.883C418.411 315.606 418.032 315.213 417.771 314.744C410.814 302.687 452.837 202.562 455.638 195.921C455.211 192.309 450.799 154.032 454.025 141.13C457.822 125.942 465.618 118.864 480.094 117.462C496.058 115.962 500.365 137.641 500.406 137.861L500.421 193.593L482.099 257.746L440.316 342.984L411.425 331.604Z" fill="#F40000"/>
<path d="M501.306 66.9311C496.425 67.5662 492.743 62.572 491.035 57.9554C489.328 53.3388 488.026 47.9641 483.783 45.4703C477.985 42.0632 470.566 46.161 463.936 45.0369C456.448 43.7675 451.58 35.832 451.198 28.247C450.817 20.662 453.835 13.3669 456.797 6.37366L457.831 15.0647C457.693 12.1191 458.312 9.18725 459.631 6.54966C460.95 3.91207 462.923 1.65692 465.362 -6.10352e-05L464.03 12.7527C464.865 5.60828 472.562 0.0723273 479.601 1.55287L479.391 9.15141C488.04 8.12305 496.763 7.09325 505.437 7.8767C514.111 8.66016 522.846 11.4045 529.42 17.117C539.254 25.6619 542.845 39.7321 541.639 52.7038C540.434 65.6755 535.079 77.8615 529.498 89.6332C528.094 92.595 526.152 95.9372 522.896 96.3145C519.97 96.6535 517.293 94.2079 516.384 91.4068C515.474 88.6056 515.918 85.5624 516.463 82.6681C517.286 78.2958 518.323 73.8267 517.549 69.4455C516.776 65.0642 513.624 60.7347 509.207 60.1978C504.791 59.6608 500.272 64.7092 502.395 68.6188L501.306 66.9311Z" fill="#2F2E41"/>
<path d="M679.566 608.353H386.54V605.958H680L679.566 608.353Z" fill="#3F3D56"/>
</g>
<defs>
<clipPath id="clip0_41_222">
<rect width="680" height="608.378" fill="white"/>
</clipPath>
</defs>
</svg>
