<svg width="680" height="472" viewBox="0 0 680 472" fill="none" xmlns="http://www.w3.org/2000/svg">
<g clip-path="url(#clip0_29_466)">
<path d="M256.263 92.0972C251.084 73.2155 292.854 57.0241 303.823 72.2295C305.348 70.0678 310.985 68.7547 313.571 69.4178C316.157 70.081 318.332 71.7388 320.454 73.3436C323.372 75.585 326.396 77.906 328.186 81.1289C329.99 84.3384 330.269 88.7152 327.842 91.5003C325.918 93.7152 320.242 95.1476 317.351 95.7311C315.335 96.1423 313.637 96.4738 312.178 96.7126C310.878 94.816 310.215 92.4685 310.454 90.1741C308.491 91.4738 307.165 93.7019 306.953 96.0627C306.913 96.5534 323.253 156.673 323.253 156.673C321.568 157.668 319.486 158.597 317.085 159.445C313.014 153.305 309.672 146.063 307.47 138.49C306.966 143.172 307.046 148.252 307.656 153.411C307.974 156.156 308.451 158.915 309.061 161.673C289.645 165.864 260.44 164.485 247.735 146.66C247.732 146.586 247.73 146.513 247.728 146.439C247.637 143.103 243.087 142.274 241.869 145.381C241.561 146.167 241.277 146.848 241.024 147.39C237.323 134.153 242.111 118.835 256.263 92.0972V92.0972Z" fill="#2F2E41"/>
<path d="M520.19 241.827C515.596 247.276 507.455 247.969 502.006 243.375C501.478 242.93 500.987 242.443 500.537 241.92L439.219 261.341L429.677 245.701L502.674 223.167C508.401 218.941 516.469 220.159 520.695 225.886C524.23 230.678 524.022 237.268 520.19 241.827H520.19Z" fill="#FFB6B6"/>
<path d="M303.035 193.296C303.035 193.296 330.19 162.753 342.018 175.728C353.847 188.702 390.75 245.556 390.75 245.556L476.895 227.381L485.225 250.115L387.412 281.812C380.059 284.195 372 281.724 367.247 275.629L303.035 193.296V193.296Z" fill="#F40000"/>
<path d="M362.012 471.716H227.328L227.205 470.664L227.126 469.963L225.97 460.149L224.331 446.174L223.7 440.802C223.656 440.531 223.612 440.268 223.577 439.996C223.025 436.5 222.71 432.986 222.596 429.482C222.43 424.662 222.649 419.852 223.166 415.103V415.076C223.446 412.509 223.805 409.968 224.252 407.453C224.813 404.22 225.488 401.039 226.267 397.929C227.161 394.319 228.178 390.805 229.29 387.414C230.57 383.445 231.972 379.642 233.417 376.049C233.575 375.664 233.733 375.278 233.882 374.901L233.891 374.893C241.514 356.308 250.171 343.612 250.171 343.612H348.291C348.291 343.612 352.829 363.528 355.081 379.975C355.441 382.577 355.738 385.083 355.958 387.414C356.352 391.716 356.466 395.414 356.124 397.929C355.914 399.488 355.528 400.592 354.932 401.101C349.535 405.71 355.712 415.488 355.712 415.488C355.712 415.488 360.339 422.559 356.308 426.537C355.511 427.326 355.055 428.343 354.836 429.482C354.485 431.365 354.792 433.556 355.274 435.492C355.756 437.438 356.422 439.129 356.79 439.996C356.956 440.382 357.062 440.601 357.062 440.601L357.745 446.007L358.411 451.212L359.541 460.149L359.883 461.727L361.644 469.963L361.793 470.664L362.012 471.716H362.012Z" fill="#2F2E41"/>
<path d="M293.981 151.51L252.8 155.178L245.21 178.797L236.939 179.995C222.804 182.041 214.392 196.865 219.884 210.049L227.162 227.52C227.162 227.52 216.472 260.517 229.601 274.381L235.188 335.444L222.585 375.698L369.907 380.454L344.813 329.961L344.069 298.61C344.069 298.61 360.104 241.943 345.237 223.918L339.437 172.651L309.216 168.118L293.981 151.51H293.981Z" fill="#F40000"/>
<path d="M321.86 121.208C326.104 102.905 314.706 84.6274 296.403 80.3839C278.1 76.1403 259.823 87.5378 255.579 105.841C251.336 124.144 262.733 142.421 281.036 146.665C299.339 150.908 317.617 139.511 321.86 121.208Z" fill="#FFB6B6"/>
<path d="M237.695 94.7497C232.516 75.868 274.286 59.6766 285.255 74.882C286.78 72.7203 292.417 71.4072 295.003 72.0704C297.589 72.7335 299.764 74.3913 301.887 75.9962C304.804 78.2376 307.828 80.5585 309.619 83.7814C311.422 86.9909 311.701 91.3677 309.274 94.1529C307.351 96.3677 301.674 97.8001 298.783 98.3837C296.767 98.7948 295.069 99.1264 293.611 99.3651C292.311 97.4685 291.648 95.121 291.886 92.8266C289.924 94.1263 288.597 96.3544 288.385 98.7152C288.345 99.2059 304.685 159.326 304.685 159.326C303.001 160.321 300.918 161.249 298.518 162.098C294.446 155.957 291.104 148.716 288.902 141.143C288.398 145.824 288.478 150.904 289.088 156.063C289.406 158.809 289.884 161.567 290.494 164.326C271.077 168.517 241.873 167.138 229.167 149.313C229.165 149.239 229.163 149.165 229.161 149.091C229.07 145.756 224.519 144.927 223.301 148.033C222.993 148.82 222.709 149.501 222.456 150.042C218.756 136.806 223.544 121.487 237.695 94.7497L237.695 94.7497Z" fill="#2F2E41"/>
<path d="M528.504 470.664H71.1143L0.140137 471.54L497.89 441.824C514.494 440.833 528.504 454.031 528.504 470.664V470.664Z" fill="#3F3D56"/>
<path d="M640.52 469.963V471.716H0V0H1.75245V469.963H640.52Z" fill="#3F3D56"/>
<path d="M571.984 109.107H455.401C452.712 109.107 450.525 106.927 450.525 104.249C450.525 101.57 452.712 99.3915 455.401 99.3915H571.984C574.673 99.3915 576.859 101.57 576.859 104.249C576.859 106.927 574.673 109.107 571.984 109.107Z" fill="#F40000"/>
<path d="M513.648 124.774C513.213 123.7 511.708 123.7 511.272 124.775C508.232 132.268 503.905 140.66 499.198 147.073C498.444 148.1 499.483 149.472 500.681 149.038L510.771 145.388V207.849H514.149V145.388L524.242 149.039C525.44 149.472 526.479 148.1 525.725 147.073C521.018 140.66 516.69 132.268 513.648 124.774Z" fill="#3F3D56"/>
<path d="M676.995 144.811H605.118C603.46 144.811 602.112 143.468 602.112 141.816C602.112 140.165 603.46 138.822 605.118 138.822H676.995C678.652 138.822 680 140.165 680 141.816C680 143.468 678.652 144.811 676.995 144.811Z" fill="#F2F2F2"/>
<path d="M641.029 154.471C640.76 153.809 639.833 153.809 639.564 154.471C637.69 159.091 635.022 164.265 632.12 168.218C631.655 168.851 632.296 169.697 633.034 169.43L639.255 167.18V205.688H641.337V167.18L647.561 169.43C648.299 169.698 648.939 168.852 648.475 168.219C645.573 164.265 642.904 159.091 641.029 154.471Z" fill="#F2F2F2"/>
<path d="M641.068 242.846C649.693 242.846 656.686 235.853 656.686 227.227C656.686 218.601 649.693 211.609 641.068 211.609C632.442 211.609 625.449 218.601 625.449 227.227C625.449 235.853 632.442 242.846 641.068 242.846Z" fill="#F2F2F2"/>
<path d="M446.548 56.3127H374.671C373.013 56.3127 371.665 54.9689 371.665 53.3175C371.665 51.6661 373.013 50.3229 374.671 50.3229H446.548C448.205 50.3229 449.553 51.6661 449.553 53.3175C449.553 54.9689 448.205 56.3127 446.548 56.3127Z" fill="#F2F2F2"/>
<path d="M410.582 65.972C410.313 65.31 409.385 65.31 409.117 65.9722C407.243 70.5921 404.575 75.7659 401.673 79.7197C401.208 80.3527 401.849 81.1986 402.587 80.9315L408.808 78.681V117.19H410.89V78.6809L417.113 80.9318C417.852 81.1989 418.492 80.353 418.028 79.72C415.125 75.766 412.457 70.5921 410.582 65.972H410.582Z" fill="#F2F2F2"/>
<path d="M410.621 154.347C419.247 154.347 426.239 147.354 426.239 138.729C426.239 130.103 419.247 123.11 410.621 123.11C401.995 123.11 395.002 130.103 395.002 138.729C395.002 147.354 401.995 154.347 410.621 154.347Z" fill="#F2F2F2"/>
<path d="M229.543 441.361C233.228 435.261 231.271 427.328 225.171 423.643C224.58 423.286 223.961 422.977 223.321 422.719L222.027 358.411L204.152 354.396L206.247 430.763C204.084 437.544 207.827 444.794 214.607 446.957C220.281 448.767 226.455 446.453 229.543 441.361Z" fill="#FFB6B6"/>
<path d="M241.978 187.644C241.978 187.644 220.073 182.386 213.063 197.282C206.053 212.178 205.456 276.998 205.456 276.998L201.672 408.452L229.458 407.227L251.617 245.474L241.978 187.644Z" fill="#F40000"/>
<path d="M232.146 460.758C232.639 461.376 233.388 461.735 234.179 461.731H376.425C377.871 461.729 379.041 460.556 379.039 459.11C379.039 458.931 379.02 458.752 378.984 458.576L376.776 448.088C376.59 447.219 375.976 446.503 375.146 446.187C374.85 446.07 374.535 446.011 374.217 446.011H236.378C236.06 446.011 235.745 446.07 235.449 446.187C234.619 446.503 234.005 447.219 233.82 448.088L231.611 458.576C231.452 459.347 231.649 460.148 232.146 460.758Z" fill="#CCCCCC"/>
<path d="M177.688 225.965V390.047C177.692 394.401 181.221 397.929 185.574 397.933H428.727C433.081 397.929 436.609 394.401 436.613 390.047V225.965C436.602 221.615 433.076 218.093 428.727 218.088H185.574C181.225 218.093 177.699 221.615 177.688 225.965Z" fill="#E6E6E6"/>
<path d="M337.557 362.845C337.268 362.748 336.961 362.704 336.654 362.704H279.77C278.096 362.704 276.729 364.063 276.729 365.736V455.602H339.686V365.736C339.686 364.413 338.827 363.239 337.557 362.845ZM314.74 407.041C314.722 410.757 311.699 413.753 307.984 413.736C304.295 413.71 301.316 410.73 301.299 407.041V396.614C301.334 392.908 304.374 389.929 308.081 389.964C311.743 389.999 314.705 392.961 314.74 396.614V407.041Z" fill="#CCCCCC"/>
</g>
<defs>
<clipPath id="clip0_29_466">
<rect width="680" height="471.716" fill="white"/>
</clipPath>
</defs>
</svg>
