<svg width="609" height="491" viewBox="0 0 609 491" fill="none" xmlns="http://www.w3.org/2000/svg">
<path d="M608.124 428.509H5.62383C5.46521 428.553 5.29824 428.561 5.13606 428.531C4.97388 428.502 4.82093 428.435 4.68923 428.337C4.55753 428.24 4.45069 428.113 4.37712 427.968C4.30355 427.822 4.26526 427.662 4.26526 427.5C4.26526 427.338 4.30355 427.178 4.37712 427.032C4.45069 426.887 4.55753 426.76 4.68923 426.663C4.82093 426.565 4.97388 426.498 5.13606 426.469C5.29824 426.439 5.46521 426.447 5.62383 426.491H608.227C608.45 426.554 608.646 426.686 608.785 426.868C608.924 427.05 609 427.272 609 427.5C609 427.728 608.924 427.95 608.785 428.132C608.646 428.314 608.45 428.446 608.227 428.509H608.124Z" fill="#D1D3D4"/>
<path d="M573.014 16.4826H40.7346V322.446H573.014V16.4826Z" fill="white"/>
<path d="M573.034 323.495H40.7347C40.5947 323.495 40.4561 323.468 40.3268 323.415C40.1975 323.362 40.08 323.285 39.981 323.188C39.882 323.09 39.8035 322.975 39.75 322.848C39.6964 322.72 39.6688 322.584 39.6688 322.446V16.4826C39.6688 16.2044 39.7811 15.9376 39.981 15.7409C40.1809 15.5442 40.452 15.4337 40.7347 15.4337H573.034C573.173 15.4337 573.311 15.4609 573.439 15.5139C573.567 15.5668 573.683 15.6444 573.78 15.7421C573.878 15.8398 573.954 15.9556 574.006 16.0827C574.057 16.2099 574.082 16.3458 574.079 16.4826V322.446C574.079 322.721 573.97 322.985 573.774 323.181C573.579 323.377 573.313 323.49 573.034 323.495ZM41.8005 321.478H571.948V17.5315H41.78L41.8005 321.478Z" fill="#D1D3D4"/>
<path d="M573.014 1.95905H40.7346V16.4826H573.014V1.95905Z" fill="white"/>
<path d="M573.034 17.5316H40.7347C40.452 17.5316 40.1809 17.4211 39.981 17.2244C39.7811 17.0277 39.6688 16.7609 39.6688 16.4827V1.95908C39.6688 1.68089 39.7811 1.41409 39.981 1.21737C40.1809 1.02066 40.452 0.910156 40.7347 0.910156H573.034C573.173 0.91013 573.311 0.937388 573.439 0.990345C573.567 1.0433 573.683 1.12089 573.78 1.21857C573.878 1.31624 573.954 1.43204 574.006 1.5592C574.057 1.68635 574.082 1.8223 574.079 1.95908V16.4827C574.079 16.7574 573.97 17.0212 573.774 17.2173C573.579 17.4135 573.313 17.5263 573.034 17.5316ZM41.8005 15.5144H571.948V2.98783H41.78L41.8005 15.5144Z" fill="#D1D3D4"/>
<path d="M324.245 208.718H295.304V300.136H324.245V208.718Z" fill="white"/>
<path d="M324.245 301.165H295.304C295.165 301.168 295.026 301.143 294.897 301.093C294.768 301.042 294.65 300.967 294.551 300.871C294.452 300.775 294.373 300.661 294.319 300.535C294.265 300.409 294.238 300.273 294.238 300.136V208.718C294.238 208.44 294.35 208.173 294.55 207.977C294.75 207.78 295.021 207.669 295.304 207.669H324.245C324.528 207.669 324.799 207.78 324.999 207.977C325.199 208.173 325.311 208.44 325.311 208.718V300.136C325.311 300.273 325.283 300.409 325.229 300.535C325.176 300.661 325.097 300.775 324.997 300.871C324.898 300.967 324.78 301.042 324.651 301.093C324.522 301.143 324.384 301.168 324.245 301.165ZM296.369 299.148H323.2V209.747H296.328L296.369 299.148Z" fill="#D1D3D4"/>
<path d="M184.867 322.446C184.867 322.446 191.201 287.751 215.018 278.23C238.835 268.709 251.769 288.316 251.769 288.316C251.769 288.316 257.918 256.041 295.755 256.041C333.591 256.041 342.323 281.417 342.323 281.417C342.323 281.417 350.091 266.087 367.165 267.135C384.239 268.184 386.842 289.324 386.842 289.324C391.812 287.156 397.188 286.036 402.624 286.036C408.061 286.036 413.437 287.156 418.407 289.324C434.804 296.828 441.712 322.547 441.712 322.547L184.867 322.446Z" fill="white"/>
<path d="M441.712 323.495H184.868C184.711 323.493 184.556 323.458 184.415 323.392C184.273 323.326 184.148 323.23 184.048 323.112C183.862 322.87 183.781 322.565 183.822 322.265C184.089 320.812 190.545 286.883 214.567 277.262C220.792 274.497 227.776 273.85 234.415 275.425C241.055 276.999 246.973 280.704 251.236 285.956C253.47 278.653 263.226 254.972 295.714 254.972C327.627 254.972 339.413 273.126 342.426 279.178C345.193 275.043 353.248 265.239 367.206 266.127C382.333 267.055 386.658 282.95 387.703 287.771C392.67 285.78 397.997 284.803 403.36 284.901C408.722 284.998 414.009 286.166 418.899 288.336C435.563 295.941 442.47 321.155 442.757 322.224C442.799 322.376 442.804 322.535 442.772 322.69C442.74 322.844 442.671 322.988 442.573 323.112C442.472 323.24 442.341 323.342 442.191 323.409C442.041 323.476 441.876 323.506 441.712 323.495ZM186.159 321.478H440.318C438.658 316.213 431.668 296.505 417.997 290.252C413.151 288.16 407.916 287.08 402.624 287.08C397.333 287.08 392.098 288.16 387.252 290.252C387.104 290.332 386.939 290.373 386.77 290.373C386.602 290.373 386.436 290.332 386.289 290.252C386.14 290.174 386.012 290.061 385.915 289.925C385.819 289.788 385.757 289.63 385.735 289.465C385.735 289.264 383.03 269.294 367.042 268.265C351.055 267.236 343.287 281.82 343.225 281.962C343.127 282.143 342.979 282.292 342.797 282.392C342.615 282.492 342.408 282.539 342.2 282.526C341.994 282.517 341.796 282.446 341.631 282.324C341.467 282.201 341.344 282.033 341.278 281.841C341.175 281.578 332.218 257.151 295.693 257.151C280.403 257.151 268.535 262.415 260.418 272.804C256.771 277.472 254.154 282.838 252.732 288.558C252.695 288.761 252.597 288.948 252.451 289.095C252.305 289.243 252.117 289.344 251.912 289.385C251.704 289.428 251.487 289.409 251.29 289.33C251.092 289.251 250.924 289.115 250.805 288.941C246.982 283.497 241.337 279.547 234.856 277.781C228.376 276.015 221.47 276.545 215.346 279.279C194.931 287.388 187.573 315.204 186.159 321.397V321.478Z" fill="#D1D3D4"/>
<path d="M325.106 223.222H293.685L289.913 208.375H328.877L325.106 223.222Z" fill="white"/>
<path d="M325.024 224.271H293.685C293.449 224.273 293.219 224.196 293.033 224.053C292.847 223.91 292.715 223.71 292.66 223.484L288.888 208.638C288.847 208.483 288.841 208.32 288.873 208.163C288.905 208.005 288.974 207.857 289.073 207.73C289.176 207.609 289.304 207.512 289.449 207.446C289.595 207.38 289.753 207.346 289.913 207.347H328.857C329.017 207.346 329.175 207.38 329.321 207.446C329.466 207.512 329.595 207.609 329.697 207.73C329.793 207.859 329.859 208.007 329.89 208.164C329.922 208.321 329.919 208.482 329.882 208.638L326.11 223.484C326.053 223.72 325.912 223.929 325.713 224.073C325.515 224.217 325.27 224.287 325.024 224.271ZM294.423 222.254H324.204L327.443 209.485H291.266L294.423 222.254Z" fill="#D1D3D4"/>
<path d="M274.171 162.001C274.171 162.001 257.774 172.087 251.974 189.011C246.173 205.935 259.311 238.532 259.311 238.532L289.257 206.58L274.171 162.001Z" fill="white"/>
<path d="M259.312 239.581H259.107C258.931 239.549 258.767 239.473 258.63 239.36C258.493 239.247 258.389 239.1 258.328 238.935C257.774 237.584 245.21 205.753 250.99 188.708C256.77 171.663 272.921 161.557 273.536 161.133C273.676 161.064 273.831 161.028 273.987 161.028C274.144 161.028 274.298 161.064 274.438 161.133C274.591 161.184 274.729 161.269 274.843 161.381C274.957 161.493 275.043 161.629 275.094 161.779L290.18 206.237C290.241 206.416 290.253 206.608 290.213 206.792C290.174 206.977 290.084 207.147 289.954 207.286L259.988 239.238C259.904 239.337 259.801 239.418 259.685 239.476C259.569 239.535 259.442 239.571 259.312 239.581ZM273.659 163.635C269.888 166.257 257.692 175.556 253.019 189.354C248.202 203.615 257.262 229.919 259.722 236.596L288.109 206.338L273.659 163.635Z" fill="#D1D3D4"/>
<path d="M345.377 162.001C345.377 162.001 361.774 172.087 367.575 189.011C373.376 205.935 360.237 238.532 360.237 238.532L330.292 206.58L345.377 162.001Z" fill="white"/>
<path d="M360.258 239.581C360.11 239.584 359.964 239.554 359.829 239.495C359.695 239.436 359.575 239.348 359.479 239.238L329.513 207.286C329.383 207.148 329.293 206.977 329.254 206.792C329.214 206.608 329.226 206.416 329.287 206.237L344.373 161.678C344.424 161.528 344.51 161.392 344.624 161.28C344.738 161.168 344.876 161.083 345.029 161.033C345.169 160.964 345.323 160.927 345.48 160.927C345.636 160.927 345.791 160.964 345.931 161.033C346.627 161.456 362.799 171.562 368.579 188.607C374.359 205.652 361.775 237.483 361.242 238.835C361.173 238.999 361.065 239.144 360.925 239.257C360.785 239.37 360.619 239.446 360.442 239.48L360.258 239.581ZM331.562 206.318L359.95 236.575C362.41 229.899 371.469 203.575 366.653 189.334C361.979 175.536 349.784 166.237 346.033 163.615L331.562 206.318Z" fill="#D1D3D4"/>
<path d="M336.318 214.003C344.516 194.719 349.64 166.761 349.64 135.677C349.62 88.5761 323.241 63.9869 313.197 56.3015C312.113 55.4622 310.774 55.006 309.395 55.006C308.016 55.006 306.677 55.4622 305.593 56.3015C295.55 63.9062 269.129 88.4551 269.129 135.596C269.129 166.681 274.295 194.639 282.473 213.923C282.473 213.923 290.671 217.957 309.385 217.957C328.098 217.957 336.318 214.003 336.318 214.003Z" fill="white"/>
<path d="M309.385 219.087C290.61 219.087 282.35 215.052 282.001 214.931C281.778 214.821 281.603 214.635 281.509 214.407C272.962 194.235 268.084 165.612 268.084 135.737C268.084 88.6971 293.869 64.0272 304.978 55.6156C306.255 54.6457 307.823 54.1195 309.436 54.1195C311.049 54.1195 312.617 54.6457 313.894 55.6156C324.962 64.0272 350.788 88.6769 350.788 135.737C350.788 165.692 345.889 194.376 337.363 214.407C337.262 214.63 337.089 214.814 336.871 214.931C336.44 215.093 328.18 219.087 309.385 219.087ZM283.293 213.217C285.014 213.943 293.254 217.009 309.385 217.009C325.516 217.009 333.776 213.943 335.498 213.217C343.819 193.408 348.595 165.168 348.595 135.677C348.595 89.5443 323.384 65.419 312.562 57.189C311.649 56.5131 310.537 56.1476 309.395 56.1476C308.253 56.1476 307.141 56.5131 306.228 57.189C295.406 65.4392 270.195 89.4636 270.195 135.677C270.195 165.228 274.971 193.469 283.293 213.217Z" fill="#D1D3D4"/>
<path d="M305.593 56.3015C293.283 65.9549 283.652 78.5142 277.595 92.8122H341.134C335.095 78.5209 325.485 65.9623 313.197 56.3015C312.113 55.4622 310.774 55.006 309.395 55.006C308.016 55.006 306.677 55.4622 305.593 56.3015Z" fill="white"/>
<path d="M341.196 93.9418H277.656C277.481 93.943 277.309 93.9012 277.155 93.8202C277.001 93.7391 276.871 93.6214 276.775 93.4778C276.678 93.3335 276.618 93.1682 276.6 92.996C276.582 92.8239 276.607 92.65 276.672 92.4894C282.769 78.0241 292.494 65.3166 304.937 55.5551C306.214 54.5852 307.782 54.0591 309.395 54.0591C311.008 54.0591 312.576 54.5852 313.853 55.5551C326.319 65.3092 336.065 78.0174 342.18 92.4894C342.245 92.65 342.27 92.8239 342.252 92.996C342.234 93.1682 342.174 93.3335 342.077 93.4778C341.98 93.6202 341.849 93.7369 341.695 93.8178C341.542 93.8987 341.37 93.9412 341.196 93.9418ZM279.193 91.9246H339.577C333.596 78.3618 324.319 66.454 312.562 57.2496C311.649 56.5737 310.538 56.2082 309.395 56.2082C308.253 56.2082 307.141 56.5737 306.228 57.2496C294.478 66.4404 285.196 78.3252 279.193 91.8641V91.9246Z" fill="#D1D3D4"/>
<path d="M310.963 152.097C324.525 152.097 335.518 141.277 335.518 127.931C335.518 114.585 324.525 103.765 310.963 103.765C297.402 103.765 286.408 114.585 286.408 127.931C286.408 141.277 297.402 152.097 310.963 152.097Z" fill="white"/>
<path d="M310.963 153.125C305.896 153.125 300.942 151.647 296.729 148.876C292.516 146.105 289.232 142.167 287.293 137.56C285.354 132.953 284.846 127.883 285.835 122.992C286.823 118.101 289.263 113.608 292.847 110.081C296.43 106.555 300.995 104.154 305.965 103.181C310.935 102.208 316.086 102.707 320.768 104.616C325.45 106.524 329.451 109.756 332.266 113.902C335.082 118.049 336.584 122.924 336.584 127.911C336.579 134.596 333.878 141.007 329.074 145.734C324.27 150.462 317.757 153.12 310.963 153.125ZM310.963 104.713C306.313 104.713 301.766 106.071 297.9 108.614C294.033 111.157 291.02 114.772 289.241 119.001C287.462 123.23 286.998 127.883 287.907 132.371C288.816 136.86 291.057 140.983 294.347 144.218C297.637 147.453 301.828 149.655 306.389 150.545C310.951 151.436 315.679 150.974 319.974 149.22C324.27 147.466 327.94 144.497 330.521 140.69C333.102 136.882 334.477 132.407 334.473 127.83C334.441 121.715 331.949 115.861 327.544 111.548C323.138 107.235 317.177 104.814 310.963 104.814V104.713Z" fill="#D1D3D4"/>
<path d="M310.963 142.838C319.329 142.838 326.11 136.164 326.11 127.931C326.11 119.698 319.329 113.024 310.963 113.024C302.598 113.024 295.816 119.698 295.816 127.931C295.816 136.164 302.598 142.838 310.963 142.838Z" fill="white"/>
<path d="M310.963 143.887C307.757 143.887 304.622 142.951 301.956 141.198C299.29 139.444 297.211 136.952 295.984 134.037C294.757 131.121 294.436 127.913 295.062 124.818C295.687 121.723 297.231 118.88 299.499 116.649C301.766 114.417 304.655 112.897 307.8 112.282C310.945 111.666 314.205 111.982 317.168 113.19C320.13 114.397 322.662 116.443 324.444 119.066C326.225 121.69 327.176 124.775 327.176 127.931C327.176 132.163 325.468 136.221 322.427 139.213C319.387 142.206 315.263 143.887 310.963 143.887ZM310.963 114.073C308.173 114.073 305.446 114.887 303.127 116.413C300.807 117.939 299 120.108 297.933 122.645C296.866 125.182 296.588 127.973 297.134 130.666C297.68 133.359 299.025 135.831 300.999 137.772C302.973 139.712 305.488 141.032 308.225 141.565C310.961 142.098 313.798 141.82 316.374 140.767C318.95 139.714 321.151 137.932 322.698 135.647C324.245 133.362 325.069 130.677 325.065 127.931C325.06 124.254 323.571 120.729 320.927 118.131C318.283 115.532 314.7 114.073 310.963 114.073Z" fill="#D1D3D4"/>
<path d="M322.974 127.568C322.727 127.566 322.488 127.478 322.3 127.319C322.112 127.16 321.988 126.941 321.949 126.7C321.785 124 320.547 121.471 318.502 119.663C316.457 117.854 313.771 116.911 311.025 117.038C310.89 117.048 310.755 117.031 310.627 116.989C310.499 116.946 310.381 116.88 310.279 116.793C310.073 116.617 309.947 116.368 309.928 116.1C309.909 115.833 309.999 115.569 310.177 115.366C310.356 115.164 310.609 115.04 310.881 115.021C314.135 114.896 317.313 116.011 319.753 118.134C322.193 120.257 323.707 123.224 323.979 126.418C324.014 126.68 323.943 126.945 323.782 127.156C323.622 127.367 323.383 127.508 323.118 127.548L322.974 127.568Z" fill="#D1D3D4"/>
<path d="M305.634 118.47C305.477 118.473 305.321 118.439 305.179 118.373C305.036 118.307 304.912 118.209 304.814 118.087C304.654 117.874 304.584 117.608 304.618 117.345C304.652 117.082 304.789 116.842 304.999 116.675C305.881 116.034 306.907 115.611 307.991 115.445C308.126 115.428 308.263 115.437 308.394 115.473C308.524 115.509 308.647 115.57 308.754 115.652C308.86 115.735 308.949 115.837 309.016 115.954C309.082 116.071 309.124 116.199 309.139 116.332C309.168 116.596 309.093 116.861 308.929 117.071C308.765 117.282 308.524 117.422 308.258 117.462C307.519 117.567 306.817 117.844 306.208 118.269C306.044 118.395 305.842 118.466 305.634 118.47Z" fill="#D1D3D4"/>
<path d="M333.346 207.871C333.237 207.892 333.126 207.892 333.018 207.871C332.76 207.788 332.545 207.608 332.423 207.369C332.3 207.131 332.278 206.854 332.362 206.6C336.599 193.368 340.022 179.895 342.61 166.257C342.632 166.126 342.681 166.001 342.753 165.889C342.825 165.777 342.92 165.681 343.031 165.605C343.142 165.53 343.267 165.478 343.399 165.451C343.531 165.424 343.667 165.424 343.799 165.45C344.065 165.499 344.3 165.65 344.454 165.869C344.607 166.088 344.667 166.358 344.619 166.62C342.037 180.366 338.615 193.946 334.37 207.286C334.282 207.476 334.136 207.634 333.953 207.739C333.769 207.844 333.557 207.89 333.346 207.871Z" fill="white"/>
<path d="M313.279 245.411C313.007 245.411 312.747 245.304 312.555 245.115C312.362 244.926 312.254 244.669 312.254 244.402V225.259C312.254 224.992 312.362 224.735 312.555 224.546C312.747 224.357 313.007 224.251 313.279 224.251C313.551 224.251 313.812 224.357 314.004 224.546C314.196 224.735 314.304 224.992 314.304 225.259V244.402C314.304 244.669 314.196 244.926 314.004 245.115C313.812 245.304 313.551 245.411 313.279 245.411Z" fill="#D1D3D4"/>
<path d="M302.785 255.436C302.515 255.431 302.257 255.323 302.066 255.135C301.875 254.947 301.765 254.693 301.76 254.427V234.397C301.765 234.131 301.875 233.877 302.066 233.689C302.257 233.501 302.515 233.393 302.785 233.388C303.057 233.388 303.317 233.495 303.51 233.684C303.702 233.873 303.81 234.129 303.81 234.397V254.427C303.81 254.695 303.702 254.951 303.51 255.141C303.317 255.33 303.057 255.436 302.785 255.436Z" fill="#D1D3D4"/>
<path d="M240.188 304.776H240.004C239.87 304.752 239.743 304.702 239.629 304.628C239.515 304.555 239.417 304.461 239.341 304.35C239.264 304.239 239.211 304.114 239.184 303.983C239.157 303.852 239.157 303.717 239.184 303.586C239.184 303.182 241.234 293.278 250.15 288.699C256.606 285.371 264.866 285.814 274.746 290.03C274.883 290.073 275.01 290.143 275.118 290.237C275.225 290.331 275.312 290.447 275.371 290.576C275.431 290.705 275.462 290.845 275.463 290.986C275.464 291.128 275.434 291.269 275.376 291.398C275.318 291.528 275.233 291.644 275.127 291.74C275.02 291.835 274.894 291.907 274.757 291.951C274.62 291.995 274.475 292.01 274.332 291.996C274.189 291.981 274.051 291.937 273.926 291.866C264.682 287.832 257.016 287.448 251.133 290.474C243.181 294.508 241.234 303.888 241.213 303.989C241.165 304.218 241.035 304.423 240.847 304.568C240.66 304.712 240.426 304.785 240.188 304.776Z" fill="#D1D3D4"/>
<path d="M356.609 292.774C356.466 292.772 356.324 292.741 356.193 292.682C356.062 292.623 355.946 292.537 355.851 292.431C341.278 276.576 330.251 283.031 330.148 283.091C330.035 283.164 329.907 283.214 329.774 283.238C329.64 283.261 329.503 283.258 329.371 283.227C329.239 283.197 329.114 283.141 329.005 283.062C328.895 282.983 328.803 282.883 328.734 282.769C328.597 282.538 328.556 282.263 328.621 282.003C328.686 281.743 328.852 281.519 329.082 281.377C329.574 281.074 341.667 273.994 357.368 291.079C357.464 291.173 357.54 291.285 357.592 291.407C357.644 291.53 357.671 291.662 357.671 291.795C357.671 291.928 357.644 292.06 357.592 292.183C357.54 292.306 357.464 292.418 357.368 292.511C357.156 292.688 356.886 292.781 356.609 292.774Z" fill="#D1D3D4"/>
<path d="M427.097 89.9679H369.01C368.738 89.9679 368.477 89.8616 368.285 89.6725C368.093 89.4833 367.985 89.2268 367.985 88.9593C367.985 88.6918 368.093 88.4353 368.285 88.2461C368.477 88.057 368.738 87.9507 369.01 87.9507H427.097C427.369 87.9507 427.63 88.057 427.822 88.2461C428.014 88.4353 428.122 88.6918 428.122 88.9593C428.122 89.2268 428.014 89.4833 427.822 89.6725C427.63 89.8616 427.369 89.9679 427.097 89.9679Z" fill="#D1D3D4"/>
<path d="M427.097 102.938H369.01C368.738 102.938 368.477 102.832 368.285 102.643C368.093 102.454 367.985 102.197 367.985 101.93C367.99 101.664 368.1 101.41 368.291 101.222C368.482 101.034 368.74 100.926 369.01 100.921H427.097C427.369 100.921 427.63 101.027 427.822 101.217C428.014 101.406 428.122 101.662 428.122 101.93C428.122 102.197 428.014 102.454 427.822 102.643C427.63 102.832 427.369 102.938 427.097 102.938Z" fill="#D1D3D4"/>
<path d="M427.097 115.929H369.01C368.74 115.924 368.482 115.816 368.291 115.628C368.1 115.44 367.99 115.186 367.985 114.92C367.985 114.653 368.093 114.396 368.285 114.207C368.477 114.018 368.738 113.912 369.01 113.912H427.097C427.369 113.912 427.63 114.018 427.822 114.207C428.014 114.396 428.122 114.653 428.122 114.92C428.122 115.188 428.014 115.444 427.822 115.633C427.63 115.823 427.369 115.929 427.097 115.929Z" fill="#D1D3D4"/>
<path d="M406.498 128.919H369.01C368.738 128.919 368.477 128.813 368.285 128.624C368.093 128.435 367.985 128.178 367.985 127.911C367.985 127.643 368.093 127.387 368.285 127.198C368.477 127.008 368.738 126.902 369.01 126.902H406.498C406.77 126.902 407.031 127.008 407.223 127.198C407.415 127.387 407.523 127.643 407.523 127.911C407.523 128.178 407.415 128.435 407.223 128.624C407.031 128.813 406.77 128.919 406.498 128.919Z" fill="#D1D3D4"/>
<path d="M319.264 252.854C318.994 252.849 318.737 252.741 318.546 252.553C318.355 252.365 318.245 252.111 318.24 251.845V243.514C318.24 243.247 318.348 242.99 318.54 242.801C318.732 242.612 318.993 242.506 319.264 242.506C319.536 242.506 319.797 242.612 319.989 242.801C320.181 242.99 320.289 243.247 320.289 243.514V251.845C320.289 252.113 320.181 252.369 319.989 252.559C319.797 252.748 319.536 252.854 319.264 252.854Z" fill="#D1D3D4"/>
<path d="M254.228 109.434H171.442C171.17 109.434 170.909 109.327 170.717 109.138C170.525 108.949 170.417 108.692 170.417 108.425V60.6383C170.422 60.3725 170.532 60.1189 170.723 59.9309C170.914 59.7428 171.172 59.6349 171.442 59.6298C171.714 59.6298 171.974 59.736 172.167 59.9252C172.359 60.1143 172.467 60.3709 172.467 60.6383V107.416H254.228C254.5 107.416 254.761 107.523 254.953 107.712C255.145 107.901 255.253 108.157 255.253 108.425C255.253 108.692 255.145 108.949 254.953 109.138C254.761 109.327 254.5 109.434 254.228 109.434Z" fill="#D1D3D4"/>
<path d="M180.44 102.071C180.346 102.092 180.248 102.092 180.153 102.071C179.892 101.996 179.672 101.822 179.542 101.588C179.411 101.353 179.38 101.077 179.456 100.82C179.682 100.114 184.95 83.4928 197.391 80.2654C204.339 78.4499 206.205 81.8589 208.008 85.1267C209.812 88.3945 211.267 91.0572 216.904 91.2992H217.273C228.956 91.2992 238.138 65.8225 238.22 65.5602C238.31 65.3061 238.499 65.0975 238.745 64.9802C238.867 64.9221 238.999 64.8883 239.134 64.8805C239.269 64.8727 239.404 64.8912 239.532 64.9349C239.66 64.9786 239.778 65.0467 239.879 65.1352C239.98 65.2238 240.063 65.331 240.122 65.4509C240.181 65.5708 240.215 65.7009 240.223 65.8339C240.231 65.9669 240.212 66.1001 240.168 66.2259C239.758 67.3555 230.391 93.3164 217.252 93.3164H216.822C210.017 93.0138 207.906 89.2821 206.205 86.095C204.503 82.9078 203.294 80.81 198.006 82.2018C186.651 85.1469 181.609 101.244 181.506 101.405C181.429 101.617 181.283 101.798 181.09 101.919C180.897 102.039 180.668 102.093 180.44 102.071Z" fill="#D1D3D4"/>
<path d="M392.806 257.433C389.255 257.433 385.784 256.397 382.831 254.455C379.878 252.513 377.577 249.754 376.218 246.525C374.859 243.296 374.504 239.743 375.196 236.315C375.889 232.888 377.599 229.739 380.11 227.268C382.621 224.796 385.821 223.114 389.304 222.432C392.786 221.75 396.397 222.1 399.677 223.437C402.958 224.775 405.763 227.04 407.735 229.945C409.708 232.851 410.761 236.268 410.761 239.763C410.756 244.447 408.863 248.939 405.497 252.252C402.131 255.564 397.567 257.428 392.806 257.433ZM392.806 224.109C389.661 224.109 386.585 225.027 383.97 226.747C381.354 228.467 379.316 230.912 378.112 233.772C376.908 236.633 376.593 239.78 377.207 242.816C377.82 245.853 379.335 248.642 381.56 250.831C383.784 253.02 386.618 254.511 389.703 255.115C392.789 255.719 395.987 255.409 398.893 254.224C401.799 253.04 404.284 251.033 406.031 248.459C407.779 245.885 408.712 242.858 408.712 239.763C408.706 235.613 407.029 231.634 404.047 228.7C401.066 225.766 397.023 224.115 392.806 224.109Z" fill="#D1D3D4"/>
<path d="M406.765 250.191C406.559 250.19 406.359 250.127 406.191 250.01L392.232 240.59C392.092 240.501 391.977 240.378 391.898 240.233C391.82 240.089 391.779 239.927 391.782 239.763V223.101C391.787 222.835 391.896 222.581 392.088 222.393C392.279 222.205 392.536 222.097 392.806 222.092C393.078 222.092 393.339 222.198 393.531 222.388C393.723 222.577 393.831 222.833 393.831 223.101V239.238L407.359 248.356C407.538 248.479 407.673 248.655 407.743 248.859C407.813 249.063 407.815 249.284 407.749 249.489C407.683 249.694 407.551 249.873 407.374 249.999C407.197 250.126 406.983 250.193 406.765 250.191Z" fill="#D1D3D4"/>
<path d="M376.942 244.321C376.709 244.322 376.482 244.245 376.299 244.102C376.117 243.959 375.989 243.759 375.938 243.535C375.908 243.406 375.904 243.273 375.927 243.143C375.95 243.013 376 242.889 376.072 242.778C376.145 242.667 376.239 242.571 376.35 242.497C376.46 242.423 376.585 242.371 376.717 242.344L392.581 238.774C392.716 238.745 392.855 238.742 392.99 238.766C393.126 238.79 393.256 238.84 393.372 238.913C393.488 238.986 393.588 239.08 393.667 239.192C393.746 239.303 393.802 239.428 393.831 239.561C393.861 239.693 393.864 239.83 393.84 239.964C393.815 240.097 393.765 240.225 393.691 240.339C393.616 240.453 393.52 240.552 393.407 240.63C393.294 240.707 393.167 240.762 393.032 240.791L377.167 244.341L376.942 244.321Z" fill="#D1D3D4"/>
<path d="M232.174 242.546H207.947C207.675 242.546 207.414 242.44 207.222 242.251C207.03 242.062 206.922 241.805 206.922 241.538C206.922 241.27 207.03 241.014 207.222 240.824C207.414 240.635 207.675 240.529 207.947 240.529H232.174C232.445 240.529 232.706 240.635 232.898 240.824C233.091 241.014 233.198 241.27 233.198 241.538C233.198 241.805 233.091 242.062 232.898 242.251C232.706 242.44 232.445 242.546 232.174 242.546Z" fill="#D1D3D4"/>
<path d="M223.34 252.854H207.947C207.675 252.854 207.414 252.748 207.222 252.559C207.03 252.369 206.922 252.113 206.922 251.845C206.922 251.578 207.03 251.321 207.222 251.132C207.414 250.943 207.675 250.837 207.947 250.837H223.34C223.611 250.837 223.872 250.943 224.064 251.132C224.257 251.321 224.365 251.578 224.365 251.845C224.359 252.111 224.25 252.365 224.059 252.553C223.867 252.741 223.61 252.849 223.34 252.854Z" fill="#D1D3D4"/>
<path d="M469.075 108.546C467.808 107.629 466.806 106.402 466.17 104.987C465.534 103.571 465.284 102.017 465.447 100.477C463.847 100.822 462.176 100.636 460.694 99.9508C459.211 99.2651 458 98.1172 457.248 96.6851C455.821 93.7407 455.424 90.4141 456.121 87.2246C453.626 86.0353 451.541 84.1504 450.125 81.8044C448.71 79.4583 448.026 76.7546 448.159 74.0292C448.293 71.3039 449.237 68.6772 450.875 66.4757C452.512 64.2742 454.772 62.5951 457.371 61.6469C456.929 61.4503 456.541 61.1514 456.241 60.7756C455.942 60.3998 455.739 59.9582 455.65 59.4886C453.805 53.4371 457.453 46.6594 463.069 43.6538C465.948 42.2699 469.093 41.5056 472.295 41.4117C475.497 41.3177 478.682 41.8964 481.639 43.1092C481.472 42.3068 481.542 41.4742 481.839 40.7094C482.137 39.9446 482.651 39.2795 483.32 38.7925C484.674 37.841 486.23 37.2063 487.87 36.9367C496.111 35.1802 504.69 35.7893 512.589 38.6916C516.34 40.0835 520.46 42.8873 520.153 46.7603C522.603 46.3489 525.123 46.6782 527.38 47.7047C529.637 48.7311 531.524 50.4066 532.794 52.5102C534.063 54.6137 534.655 57.0466 534.492 59.4879C534.328 61.9293 533.416 64.2644 531.877 66.1856C533.726 67.9289 535.063 70.1306 535.748 72.5588C536.433 74.987 536.44 77.552 535.769 79.984C535.098 82.4159 533.773 84.6248 531.934 86.3782C530.094 88.1316 527.809 89.3647 525.318 89.9478C525.584 89.0401 526.999 89.8469 527.367 90.7143C529.807 96.7658 525.318 103.846 519.599 107.235C513.881 110.624 505.559 111.269 500.783 106.549C500.808 108.113 500.295 109.64 499.328 110.881C498.361 112.122 496.996 113.005 495.454 113.387C492.345 114.076 489.11 113.986 486.046 113.125C482.972 112.5 480.225 110.866 477.253 110.2C474.281 109.534 471.76 110.442 469.075 108.546Z" fill="white"/>
<path d="M491.806 114.799C489.769 114.747 487.743 114.49 485.759 114.033C484.132 113.649 482.541 113.129 481.004 112.479C479.675 111.919 478.305 111.46 476.904 111.108C475.992 110.933 475.066 110.838 474.137 110.825C472.148 110.932 470.175 110.416 468.501 109.353C467.267 108.46 466.256 107.302 465.546 105.967C464.835 104.631 464.444 103.154 464.401 101.647C462.759 101.722 461.129 101.335 459.703 100.531C458.276 99.7276 457.112 98.5404 456.346 97.1087C454.864 94.2124 454.382 90.9193 454.973 87.7289C452.551 86.4231 450.538 84.4915 449.15 82.1424C447.762 79.7933 447.052 77.1159 447.096 74.3988C447.14 71.6817 447.937 69.0281 449.401 66.724C450.865 64.42 452.94 62.5529 455.403 61.3242C455.066 60.8286 454.811 60.2841 454.645 59.7105C452.759 53.659 456.223 46.1148 462.557 42.7058C465.317 41.3434 468.328 40.5429 471.409 40.3523C474.491 40.1617 477.58 40.5848 480.491 41.5964C480.74 40.1646 481.504 38.8687 482.643 37.9453C484.117 36.8923 485.824 36.2007 487.624 35.9282C496.054 34.1267 504.832 34.7428 512.917 37.7032C517.775 39.4985 520.747 42.4234 521.116 45.671C523.611 45.4968 526.105 46.0152 528.316 47.1672C530.526 48.3192 532.364 50.0586 533.62 52.1875C534.875 54.3165 535.499 56.7495 535.419 59.2099C535.339 61.6703 534.559 64.0592 533.168 66.1049C534.825 67.8607 536.031 69.9815 536.685 72.29C537.338 74.5984 537.421 77.0274 536.925 79.3736C536.429 81.7198 535.37 83.9151 533.836 85.7758C532.301 87.6365 530.336 89.1086 528.105 90.0688C528.161 90.1656 528.209 90.2668 528.249 90.3714C530.954 97.1692 526.056 104.592 520.05 108.102C514.639 111.289 506.912 112.298 501.603 108.607C501.184 109.979 500.422 111.226 499.388 112.233C498.353 113.241 497.078 113.978 495.679 114.376C494.417 114.707 493.111 114.85 491.806 114.799ZM465.447 99.3276C465.679 99.32 465.906 99.3993 466.082 99.5495C466.214 99.6557 466.316 99.7924 466.381 99.9473C466.445 100.102 466.469 100.271 466.451 100.437C466.306 101.809 466.527 103.194 467.091 104.457C467.655 105.72 468.544 106.816 469.669 107.638C471.033 108.501 472.642 108.911 474.26 108.808C475.321 108.819 476.379 108.934 477.417 109.151C478.903 109.52 480.356 110.005 481.762 110.604C483.185 111.214 484.66 111.7 486.169 112.056C489.065 112.871 492.121 112.968 495.064 112.338C496.353 112.033 497.503 111.318 498.336 110.304C499.17 109.29 499.641 108.034 499.676 106.731C499.654 106.522 499.697 106.312 499.8 106.128C499.902 105.944 500.059 105.795 500.25 105.702C500.442 105.612 500.658 105.583 500.867 105.619C501.076 105.656 501.269 105.755 501.418 105.904C505.948 110.361 513.717 109.534 519.005 106.428C524.293 103.322 528.536 96.7053 526.322 91.1379C526.268 91.0235 526.191 90.9208 526.097 90.8353L525.502 90.9967C525.327 91.0387 525.144 91.0348 524.972 90.9852C524.799 90.9356 524.643 90.8422 524.518 90.7143C524.395 90.5836 524.308 90.4243 524.265 90.2514C524.222 90.0785 524.225 89.8976 524.272 89.7259C524.359 89.4122 524.545 89.1338 524.802 88.9307C525.06 88.7277 525.377 88.6106 525.707 88.5963C525.89 88.5669 526.077 88.5669 526.26 88.5963C528.282 87.8724 530.103 86.6897 531.573 85.1442C533.044 83.5986 534.124 81.7337 534.726 79.7006C535.313 77.4398 535.287 75.067 534.65 72.8193C534.013 70.5715 532.788 68.5275 531.098 66.8916C530.921 66.7147 530.814 66.4818 530.795 66.2343C530.776 65.9869 530.847 65.7409 530.995 65.5401C532.378 63.7739 533.19 61.64 533.326 59.4145C533.462 57.1891 532.916 54.9747 531.759 53.058C530.602 51.1414 528.887 49.6106 526.836 48.664C524.785 47.7174 522.492 47.3986 520.255 47.7487C520.103 47.7697 519.948 47.7573 519.801 47.7125C519.654 47.6676 519.519 47.5914 519.405 47.4893C519.292 47.3872 519.202 47.2617 519.144 47.1217C519.085 46.9818 519.059 46.8308 519.066 46.6796C519.312 43.4118 515.664 40.85 512.159 39.559C504.449 36.73 496.077 36.1349 488.034 37.8444C486.558 38.0833 485.156 38.6488 483.935 39.4985C483.432 39.8676 483.041 40.3658 482.806 40.9386C482.571 41.5113 482.501 42.1366 482.603 42.7462C482.655 42.9238 482.657 43.1126 482.606 43.2909C482.555 43.4693 482.455 43.63 482.316 43.7547C482.178 43.8809 482.008 43.9681 481.824 44.0072C481.64 44.0462 481.449 44.0357 481.27 43.9766C478.451 42.8098 475.412 42.2476 472.355 42.3276C469.297 42.4076 466.293 43.1279 463.541 44.4406C458.027 47.4058 454.993 53.8607 456.613 59.1054C456.756 59.5895 457.105 60.4367 457.638 60.598C457.844 60.6571 458.026 60.7784 458.158 60.9449C458.291 61.1114 458.367 61.3147 458.375 61.5259C458.378 61.7388 458.314 61.9473 458.194 62.1239C458.073 62.3004 457.9 62.4366 457.699 62.5144C455.289 63.3954 453.195 64.9539 451.678 66.9963C450.16 69.0387 449.286 71.4749 449.164 74.0022C449.042 76.5295 449.677 79.0364 450.99 81.2114C452.303 83.3865 454.237 85.1338 456.551 86.2362C456.752 86.3272 456.916 86.4822 457.016 86.6762C457.117 86.8702 457.148 87.0918 457.105 87.3053C456.432 90.2736 456.793 93.3783 458.129 96.1203C458.77 97.3547 459.805 98.3474 461.076 98.9452C462.346 99.5431 463.781 99.7129 465.16 99.4284C465.254 99.4055 465.351 99.3987 465.447 99.4083V99.3276Z" fill="#231F20"/>
<path d="M456.633 132.268C456.633 132.268 421.625 194.074 416.931 204.886C412.237 215.698 433.021 240.811 441.056 234.72C449.09 228.628 456.633 132.268 456.633 132.268Z" fill="#F40000"/>
<path d="M523.719 454.611C523.719 454.611 525.092 463.688 523.022 467.178C520.207 472.135 518.555 477.648 518.185 483.315C519.818 485.173 521.83 486.672 524.09 487.714C526.35 488.757 528.807 489.32 531.303 489.366C539.604 489.366 547.885 483.073 548.807 480.047C549.729 477.021 542.125 444.888 542.125 444.888L523.719 454.611Z" fill="white"/>
<path d="M531.303 490.234C528.663 490.194 526.062 489.602 523.672 488.496C521.283 487.39 519.161 485.795 517.447 483.819C517.371 483.727 517.316 483.62 517.284 483.505C517.253 483.391 517.245 483.271 517.262 483.154C517.633 477.375 519.329 471.755 522.223 466.714C523.78 464.091 523.165 457.173 522.796 454.752C522.762 454.565 522.789 454.372 522.873 454.202C522.958 454.031 523.097 453.891 523.268 453.804L541.715 444.021C541.845 443.957 541.989 443.923 542.135 443.923C542.281 443.923 542.425 443.957 542.555 444.021C542.684 444.083 542.797 444.17 542.889 444.278C542.981 444.386 543.049 444.511 543.088 444.646C544.359 450.072 550.693 477.183 549.75 480.289C548.807 483.396 540.034 490.234 531.303 490.234ZM519.169 482.952C520.711 484.62 522.582 485.961 524.668 486.894C526.754 487.827 529.012 488.332 531.303 488.378C539.235 488.378 547.147 482.327 547.905 479.724C548.438 477.949 545.056 461.368 541.489 446.199L524.723 455.115C525.01 457.314 525.727 464.434 523.821 467.642C521.143 472.345 519.554 477.573 519.169 482.952Z" fill="#231F20"/>
<path d="M466.656 234.316L506.563 245.491L515.807 128.778C515.807 128.778 482.767 120.851 474.814 124.582C466.861 128.314 466.656 234.316 466.656 234.316Z" fill="#231F20"/>
<path d="M506.563 246.5H506.276L466.451 235.284C466.234 235.227 466.043 235.101 465.906 234.926C465.769 234.751 465.694 234.537 465.693 234.316C465.693 216.505 466.267 127.406 474.404 123.675C482.541 119.943 514.741 127.467 516.115 127.709C516.351 127.77 516.558 127.91 516.7 128.105C516.843 128.3 516.911 128.538 516.894 128.778L507.65 245.491C507.637 245.639 507.592 245.782 507.517 245.911C507.443 246.04 507.341 246.151 507.219 246.238C507.037 246.396 506.806 246.489 506.563 246.5ZM467.619 233.55L505.579 244.18L514.659 129.545C504.944 127.285 481.25 122.646 475.162 125.51C470.55 127.729 467.783 182.677 467.681 233.55H467.619Z" fill="#231F20"/>
<path d="M479.958 433.612V460.924L467.066 464.656L467.374 459.069L461.552 464.979C461.552 464.979 426.913 471.273 427.098 466.593C427.282 461.913 430.787 459.371 435.153 457.052C439.847 454.55 452.186 447.51 452.186 447.51L454.03 427.48" fill="white"/>
<path d="M433.513 469.215C431.224 469.464 428.911 469.057 426.852 468.045C426.627 467.87 426.447 467.645 426.326 467.39C426.205 467.134 426.147 466.854 426.155 466.573C426.36 461.388 430.397 458.504 434.702 456.245C439.006 453.985 449.049 448.176 451.304 446.946L453.087 427.379C453.118 427.138 453.242 426.918 453.432 426.765C453.623 426.611 453.866 426.535 454.112 426.552C454.235 426.562 454.355 426.596 454.465 426.653C454.574 426.709 454.671 426.787 454.749 426.881C454.828 426.975 454.886 427.084 454.921 427.201C454.956 427.317 454.967 427.44 454.953 427.561L453.128 447.631C453.111 447.777 453.059 447.916 452.977 448.039C452.895 448.161 452.786 448.264 452.657 448.337C452.534 448.337 440.359 455.418 435.604 457.899C430.848 460.38 428.184 462.659 428.04 466.673C429.024 468.368 444.13 467.218 461.081 464.152L466.697 458.463C466.835 458.331 467.01 458.241 467.199 458.205C467.389 458.169 467.585 458.189 467.763 458.262C467.935 458.338 468.079 458.464 468.178 458.622C468.277 458.78 468.325 458.964 468.316 459.149L468.07 463.446L479.036 460.279V433.652C479.033 433.532 479.055 433.411 479.1 433.299C479.145 433.186 479.213 433.084 479.299 432.997C479.385 432.911 479.487 432.842 479.601 432.795C479.714 432.749 479.836 432.724 479.958 432.725C480.209 432.725 480.448 432.822 480.625 432.996C480.802 433.17 480.901 433.406 480.901 433.652V460.965C480.904 461.165 480.839 461.362 480.717 461.522C480.595 461.683 480.422 461.799 480.225 461.852L467.332 465.584C467.189 465.623 467.039 465.628 466.893 465.6C466.747 465.572 466.61 465.512 466.492 465.423C466.374 465.333 466.281 465.216 466.22 465.083C466.159 464.949 466.133 464.802 466.144 464.656L466.308 461.509L462.208 465.645C462.071 465.785 461.891 465.877 461.696 465.907C452.396 467.682 442.976 468.788 433.513 469.215Z" fill="#231F20"/>
<path d="M541.859 245.33L552.537 452.735C552.537 452.735 551.513 460.319 535.238 461.267C518.964 462.215 520.604 458.342 520.604 458.342L495.147 306.208L484.714 441.358L449.665 443.597L456.633 230.584L541.859 245.33Z" fill="#2F2E41"/>
<path d="M530.462 462.417C524.6 462.417 521.136 461.59 519.948 459.936C519.593 459.468 519.439 458.881 519.517 458.302L495.577 314.68L485.8 441.419C485.781 441.662 485.672 441.89 485.495 442.06C485.318 442.231 485.084 442.333 484.837 442.346L449.726 444.545C449.583 444.555 449.44 444.536 449.305 444.487C449.171 444.438 449.049 444.362 448.947 444.263C448.844 444.167 448.764 444.051 448.711 443.923C448.658 443.794 448.633 443.655 448.639 443.516L455.608 230.504C455.612 230.358 455.647 230.215 455.713 230.084C455.778 229.953 455.871 229.837 455.986 229.745C456.101 229.653 456.235 229.587 456.379 229.551C456.522 229.514 456.672 229.509 456.818 229.536L542.043 244.342C542.273 244.379 542.483 244.494 542.636 244.667C542.79 244.84 542.877 245.06 542.883 245.29L553.501 452.694C553.501 453.219 552.168 461.288 535.259 462.256C533.516 462.357 531.918 462.417 530.462 462.417ZM521.546 458.706L521.731 458.887C522.366 459.492 524.949 460.904 535.136 460.259C550.201 459.391 551.533 452.674 551.533 452.594L540.936 246.177L457.617 231.795L450.71 442.528L483.812 440.511L494.183 306.248C494.207 306.003 494.32 305.775 494.5 305.605C494.681 305.435 494.917 305.334 495.167 305.32C495.414 305.307 495.658 305.384 495.851 305.537C496.043 305.69 496.172 305.907 496.212 306.147L521.587 458.282C521.639 458.467 521.639 458.662 521.587 458.847L521.546 458.706Z" fill="#231F20"/>
<path d="M508.613 117.623C508.613 117.623 494.942 258.482 501.07 266.55C507.199 274.619 545.015 281.014 547.844 265.36C552.496 239.621 549.893 147.155 544.441 138.461C522.428 119.197 508.613 117.623 508.613 117.623Z" fill="#F40000"/>
<path d="M456.633 132.268C456.633 132.268 437.079 260.196 440.769 263.908C444.458 267.62 464.504 272.642 470.038 268.911C475.572 265.179 483.135 118.289 483.135 118.289C473.16 120.452 463.987 125.29 456.633 132.268Z" fill="#F40000"/>
<path d="M484.201 115.747L482.52 129.404C483.432 132.105 485.347 134.368 487.883 135.737C490.419 137.106 493.387 137.481 496.192 136.786C506.768 134.588 506.891 128.556 506.891 128.556C506.891 128.556 508.326 97.7744 508.326 97.6937C508.072 96.9815 507.728 96.3037 507.301 95.6765C505.723 92.1667 503.468 87.3456 504.145 83.4525C504.713 80.2431 506.341 77.3078 508.777 75.1015C507.523 75.6508 506.158 75.908 504.786 75.8529C503.415 75.7978 502.075 75.432 500.871 74.7839C499.668 74.1358 498.632 73.223 497.845 72.1165C497.058 71.01 496.542 69.7397 496.335 68.4045C496.335 69.7963 495.085 70.8251 493.896 71.5916C492.141 72.9354 489.971 73.6473 487.747 73.6088C484.837 73.286 482.664 70.8453 479.938 69.7963C480.359 70.7164 480.43 71.7551 480.136 72.7221C479.842 73.6891 479.204 74.5195 478.339 75.0611C476.561 76.097 474.44 76.4014 472.436 75.9083C473.768 76.1706 472.641 90.7547 472.621 92.0456C472.433 96.5663 472.542 101.094 472.949 105.601C473.932 113.649 484.201 115.747 484.201 115.747Z" fill="#FFB6B6"/>
<path d="M493.097 138.118C484.304 138.118 481.516 129.807 481.496 129.706C481.465 129.567 481.465 129.422 481.496 129.283L483.054 116.514C480.368 115.747 472.805 112.964 471.903 105.5C471.511 101.296 471.395 97.0714 471.555 92.8525V91.8036C471.555 91.6019 471.555 91.0371 471.555 90.2302C472.149 80.4469 471.965 77.3809 471.678 76.574C471.526 76.4618 471.41 76.3088 471.345 76.1335C471.279 75.9581 471.267 75.7678 471.309 75.5856C471.331 75.4553 471.379 75.3308 471.452 75.2197C471.524 75.1086 471.619 75.0132 471.731 74.9396C471.842 74.8659 471.967 74.8154 472.099 74.7912C472.231 74.767 472.367 74.7696 472.498 74.7989C474.239 75.2164 476.077 74.9715 477.642 74.113C478.308 73.7002 478.802 73.0667 479.035 72.327C479.268 71.5872 479.225 70.7898 478.913 70.0787C478.809 69.897 478.765 69.6881 478.787 69.4808C478.809 69.2734 478.895 69.0778 479.034 68.9207C479.174 68.7637 479.359 68.653 479.565 68.6039C479.771 68.5548 479.987 68.5697 480.184 68.6465C481.338 69.1389 482.437 69.7473 483.463 70.462C484.716 71.4483 486.181 72.1384 487.747 72.4791C489.723 72.4941 491.648 71.8626 493.22 70.6839C494.552 69.8366 495.27 69.0701 495.27 68.344C495.274 68.088 495.375 67.8429 495.553 67.6564C495.731 67.4698 495.974 67.3554 496.233 67.3354C496.49 67.3122 496.746 67.3872 496.948 67.545C497.151 67.7027 497.283 67.931 497.319 68.1826C497.485 69.3746 497.93 70.5125 498.619 71.5064C499.308 72.5003 500.222 73.3231 501.289 73.9099C502.356 74.4967 503.547 74.8314 504.769 74.8877C505.99 74.9439 507.208 74.7202 508.326 74.2341C508.546 74.1328 508.797 74.1137 509.031 74.1805C509.264 74.2473 509.466 74.3954 509.597 74.5972C509.729 74.7968 509.785 75.0359 509.755 75.2722C509.725 75.5084 509.611 75.7266 509.433 75.8881C507.151 77.9374 505.629 80.6776 505.108 83.6744C504.514 87.1238 506.543 91.7431 508.018 94.9302L508.203 95.3134C508.287 95.494 508.383 95.6692 508.49 95.8379C508.934 96.4305 509.216 97.1249 509.31 97.8551C509.31 97.8551 509.31 97.8551 507.875 128.778C507.875 129.04 507.609 135.637 496.356 137.936C495.279 138.108 494.187 138.169 493.097 138.118ZM483.504 129.283C484.337 131.698 486.069 133.712 488.351 134.921C490.633 136.13 493.295 136.443 495.802 135.798C505.354 133.781 505.682 128.738 505.702 128.516C505.723 128.294 507.117 98.0971 507.137 97.6534C507.137 97.6534 506.789 97.0482 506.625 96.7658C506.46 96.5294 506.316 96.2797 506.194 96.0195L506.03 95.6564C504.452 92.1062 502.279 87.2851 502.976 83.2306C503.368 80.9013 504.301 78.6924 505.702 76.7757C503.797 76.8886 501.897 76.4839 500.209 75.6057C498.348 74.566 496.864 72.9789 495.966 71.0671C495.458 71.5649 494.894 72.0047 494.286 72.3783C492.315 73.7897 489.916 74.5009 487.481 74.3954C485.603 74.0516 483.833 73.2776 482.316 72.1362L481.209 71.4302C481.15 72.273 480.898 73.0918 480.472 73.8253C480.046 74.5588 479.457 75.1881 478.749 75.6663C477.276 76.5944 475.533 77.0196 473.789 76.8766C474.059 81.3336 473.984 85.8046 473.564 90.2504C473.564 91.0169 473.564 91.5413 473.564 91.7431V92.7718C473.413 96.9101 473.529 101.054 473.912 105.177C474.793 112.621 484.16 114.638 484.345 114.658C484.592 114.716 484.81 114.86 484.957 115.064C485.104 115.268 485.171 115.519 485.144 115.768L483.504 129.283Z" fill="#231F20"/>
<path d="M482.275 90.6941C482.275 90.6941 476.126 98.5812 477.417 100.114C478.708 101.647 482.336 100.961 482.336 100.961" fill="#FFB6B6"/>
<path d="M480.532 102.111C479.826 102.162 479.117 102.06 478.455 101.813C477.793 101.565 477.194 101.178 476.7 100.679C475.306 98.904 478.585 93.9216 481.557 90.0486C481.72 89.8346 481.963 89.6932 482.232 89.6553C482.501 89.6175 482.775 89.6864 482.992 89.8469C483.102 89.9246 483.195 90.0234 483.265 90.1374C483.335 90.2513 483.381 90.378 483.4 90.5099C483.419 90.6418 483.411 90.7762 483.376 90.9049C483.341 91.0336 483.28 91.154 483.197 91.2589C480.471 94.8293 478.216 98.7022 478.38 99.5696C478.872 100.155 480.983 100.155 482.234 99.9327C482.366 99.9062 482.501 99.9055 482.634 99.9307C482.766 99.9559 482.892 100.006 483.004 100.08C483.116 100.153 483.213 100.247 483.288 100.356C483.363 100.466 483.416 100.59 483.443 100.719C483.47 100.851 483.47 100.986 483.443 101.117C483.416 101.248 483.363 101.373 483.286 101.484C483.21 101.594 483.112 101.689 482.998 101.762C482.884 101.835 482.757 101.885 482.623 101.91C481.934 102.04 481.234 102.108 480.532 102.111Z" fill="#231F20"/>
<path d="M484.201 115.747C484.201 115.747 492.4 115.747 496.151 113.569C496.151 113.569 492.953 122.989 484.099 125.309L484.201 115.747Z" fill="#231F20"/>
<path d="M484.099 126.317C483.87 126.322 483.647 126.251 483.464 126.116C483.338 126.022 483.236 125.899 483.169 125.759C483.101 125.618 483.068 125.464 483.074 125.309L483.177 115.747C483.177 115.48 483.285 115.223 483.477 115.034C483.669 114.845 483.93 114.739 484.201 114.739C484.632 114.739 492.175 114.739 495.618 112.722C495.79 112.604 495.993 112.542 496.202 112.542C496.411 112.542 496.615 112.604 496.786 112.722C496.945 112.855 497.061 113.031 497.12 113.228C497.178 113.425 497.176 113.635 497.114 113.831C496.971 114.234 493.63 123.776 484.345 126.237L484.099 126.317ZM485.206 116.756V123.937C489.141 122.273 492.346 119.284 494.245 115.505C491.298 116.306 488.262 116.747 485.206 116.816V116.756Z" fill="#231F20"/>
<path d="M552.742 231.472H552.64C551.307 231.311 520.152 227.76 510.252 222.294C510.134 222.231 510.029 222.145 509.944 222.041C509.86 221.937 509.798 221.818 509.761 221.69C509.725 221.562 509.715 221.428 509.733 221.296C509.75 221.164 509.794 221.037 509.863 220.922C510 220.694 510.222 220.526 510.482 220.455C510.741 220.383 511.019 220.414 511.257 220.539C520.788 225.804 552.558 229.415 552.865 229.455C553.137 229.471 553.391 229.593 553.572 229.793C553.752 229.994 553.845 230.256 553.828 230.524C553.812 230.791 553.689 231.042 553.485 231.219C553.281 231.397 553.014 231.488 552.742 231.472Z" fill="#231F20"/>
<path d="M544.441 138.461C544.441 138.461 606.259 225.199 579.777 247.63C555.509 268.144 501.89 234.074 501.89 234.074L505.128 205.269C505.128 205.269 547.577 228.527 548.274 217.695C549.278 201.759 528.474 179.994 528.474 179.994C526.604 176.465 525.473 172.602 525.149 168.634C524.825 164.666 525.315 160.675 526.588 156.897C527.799 152.619 530.061 148.699 533.174 145.484C536.287 142.269 540.157 139.857 544.441 138.461Z" fill="#F40000"/>
<path d="M448.004 208.375C447.871 208.356 447.743 208.31 447.627 208.242C447.512 208.173 447.411 208.083 447.331 207.976C447.251 207.87 447.193 207.748 447.161 207.619C447.129 207.491 447.123 207.357 447.143 207.226C449.049 194.639 458.211 146.57 458.314 146.085C458.368 145.826 458.522 145.598 458.744 145.448C458.965 145.297 459.237 145.237 459.503 145.279C459.77 145.332 460.006 145.487 460.159 145.709C460.312 145.932 460.371 146.204 460.322 146.469C460.22 146.953 451.058 194.881 449.172 207.528C449.127 207.791 448.98 208.026 448.762 208.184C448.544 208.342 448.272 208.411 448.004 208.375Z" fill="#231F20"/>
<path d="M439.375 246.399H501.009C502.157 246.378 503.286 246.106 504.314 245.604C505.342 245.101 506.244 244.379 506.954 243.491C507.664 242.603 508.165 241.571 508.42 240.469C508.675 239.367 508.678 238.223 508.428 237.12L495.331 174.77C494.956 172.981 493.975 171.371 492.549 170.202C491.123 169.033 489.336 168.375 487.481 168.335H426.749C425.532 168.354 424.335 168.64 423.244 169.171C422.153 169.702 421.196 170.466 420.442 171.406C419.689 172.347 419.157 173.441 418.887 174.609C418.616 175.777 418.613 176.989 418.878 178.158L431.955 240.307C432.287 242.01 433.207 243.547 434.559 244.658C435.912 245.768 437.614 246.383 439.375 246.399Z" fill="white"/>
<path d="M501.009 247.307H439.375C437.402 247.28 435.498 246.589 433.98 245.348C432.462 244.108 431.422 242.393 431.033 240.489L417.976 178.34C417.687 177.002 417.707 175.617 418.033 174.287C418.359 172.957 418.984 171.716 419.862 170.654C420.692 169.643 421.741 168.826 422.933 168.264C424.124 167.703 425.428 167.41 426.749 167.407H487.481C489.557 167.436 491.56 168.165 493.156 169.472C494.753 170.779 495.846 172.584 496.253 174.588L509.351 236.918C509.625 238.189 509.608 239.505 509.299 240.768C508.991 242.032 508.399 243.211 507.567 244.221C506.775 245.181 505.775 245.956 504.641 246.49C503.507 247.024 502.266 247.303 501.009 247.307ZM426.749 169.263C425.707 169.263 424.678 169.493 423.737 169.936C422.797 170.38 421.97 171.025 421.317 171.824C420.63 172.663 420.138 173.639 419.876 174.684C419.614 175.73 419.588 176.819 419.801 177.876L432.878 240.045C433.174 241.534 433.981 242.878 435.164 243.851C436.346 244.824 437.833 245.368 439.375 245.39H501.009C501.988 245.385 502.955 245.165 503.838 244.746C504.72 244.328 505.498 243.721 506.112 242.97C506.77 242.177 507.239 241.249 507.484 240.254C507.728 239.259 507.743 238.222 507.527 237.221L494.409 174.87C494.09 173.285 493.228 171.855 491.967 170.82C490.706 169.785 489.123 169.207 487.481 169.182L426.749 169.263Z" fill="#231F20"/>
<path d="M513.696 215.093C514.052 212.913 513.884 210.681 513.204 208.577C512.533 207.163 511.609 205.879 510.478 204.785C508.554 202.768 506.5 200.874 504.329 199.117C502.28 197.543 499.963 196.01 497.504 196.535C498.263 200.149 500.341 203.364 503.345 205.572C502.363 204.416 501.059 203.568 499.594 203.131C498.611 202.828 497.278 202.869 496.868 203.837C496.774 204.148 496.745 204.475 496.784 204.798C496.823 205.12 496.928 205.432 497.094 205.713C498.241 208.21 500.002 210.387 502.218 212.047L499.84 210.554C499.233 210.115 498.532 209.818 497.791 209.687C497.426 209.628 497.051 209.686 496.723 209.854C496.394 210.021 496.129 210.288 495.967 210.614C495.817 211.161 495.875 211.742 496.131 212.248C496.75 213.701 497.773 214.953 499.082 215.859C498.225 215.138 497.195 214.645 496.089 214.427C495.531 214.345 494.961 214.462 494.484 214.758C494.006 215.054 493.652 215.509 493.486 216.041C493.425 216.649 493.554 217.261 493.855 217.796C495.618 221.245 499.82 221.628 501.87 224.533C503.407 226.691 502.689 229.011 505.805 230.322C513.594 233.489 513.266 219.692 513.696 215.093Z" fill="#FFB6B6"/>
<path d="M508.059 231.795C507.182 231.781 506.316 231.588 505.518 231.23C504.651 230.885 503.883 230.337 503.279 229.634C502.676 228.931 502.255 228.094 502.054 227.196C501.845 226.484 501.535 225.804 501.131 225.178C500.206 224.079 499.053 223.185 497.749 222.556C495.794 221.642 494.159 220.174 493.056 218.34C492.62 217.611 492.453 216.756 492.584 215.92C492.764 215.245 493.161 214.645 493.715 214.209C494.268 213.773 494.95 213.524 495.659 213.499C495.519 213.245 495.396 212.982 495.29 212.712C494.92 211.972 494.853 211.119 495.105 210.332C495.317 209.85 495.67 209.441 496.119 209.157C496.568 208.873 497.093 208.728 497.627 208.739C497.079 207.934 496.606 207.084 496.212 206.197C495.977 205.794 495.834 205.345 495.791 204.882C495.749 204.419 495.809 203.952 495.966 203.514C496.202 203.033 496.582 202.634 497.054 202.371C497.527 202.108 498.07 201.993 498.61 202.042C497.632 200.448 496.939 198.702 496.561 196.878C496.502 196.746 496.472 196.604 496.473 196.46C496.473 196.316 496.505 196.174 496.565 196.043C496.624 195.912 496.711 195.795 496.82 195.699C496.929 195.603 497.057 195.53 497.196 195.486C500.127 194.881 502.833 196.656 504.862 198.27C507.084 200.05 509.179 201.977 511.134 204.039C512.35 205.198 513.344 206.565 514.065 208.073C514.82 210.314 515.01 212.703 514.618 215.032C514.618 215.617 514.618 216.343 514.475 217.17C514.229 221.81 513.819 228.809 510.375 230.968C509.701 231.458 508.896 231.745 508.059 231.795ZM495.925 215.395C495.646 215.377 495.367 215.445 495.129 215.59C494.89 215.734 494.703 215.948 494.593 216.202C494.574 216.598 494.674 216.991 494.88 217.332C495.817 218.809 497.17 219.987 498.774 220.721C500.371 221.468 501.773 222.565 502.874 223.928C503.402 224.723 503.803 225.594 504.063 226.51C504.16 227.145 504.426 227.744 504.832 228.246C505.238 228.749 505.772 229.138 506.379 229.374C506.833 229.623 507.344 229.754 507.865 229.754C508.385 229.754 508.896 229.623 509.351 229.374C511.974 227.76 512.364 220.882 512.589 217.271C512.589 216.404 512.589 215.637 512.733 215.052C513.073 213.03 512.925 210.957 512.302 209.001C511.687 207.695 510.833 206.512 509.781 205.511C507.858 203.524 505.804 201.664 503.632 199.944C502.285 198.684 500.599 197.83 498.774 197.483C499.43 199.61 500.581 201.558 502.136 203.171C502.906 203.634 503.598 204.212 504.185 204.886C504.355 205.071 504.45 205.312 504.45 205.562C504.45 205.811 504.355 206.052 504.185 206.237C504.016 206.421 503.783 206.535 503.533 206.557C503.283 206.579 503.033 206.509 502.833 206.358C502.149 205.87 501.505 205.331 500.906 204.745C500.424 204.455 499.908 204.225 499.369 204.059C498.713 203.877 497.995 203.938 497.893 204.2C497.834 204.571 497.914 204.951 498.118 205.269C499.179 207.621 500.829 209.669 502.915 211.22C503.023 211.294 503.114 211.389 503.184 211.499C503.254 211.608 503.301 211.731 503.322 211.859C503.343 211.987 503.338 212.117 503.307 212.243C503.275 212.369 503.219 212.487 503.14 212.591C502.99 212.807 502.761 212.957 502.501 213.009C502.241 213.062 501.971 213.013 501.746 212.874L499.369 211.401C498.91 211.05 498.378 210.802 497.811 210.675C497.67 210.644 497.524 210.654 497.389 210.705C497.254 210.755 497.137 210.843 497.053 210.957C497.01 211.263 497.068 211.574 497.217 211.845C497.712 213.033 498.527 214.065 499.574 214.83L499.82 215.012C499.93 215.087 500.024 215.182 500.096 215.293C500.168 215.404 500.217 215.527 500.24 215.657C500.263 215.787 500.259 215.919 500.229 216.048C500.199 216.176 500.144 216.297 500.066 216.404C499.912 216.622 499.678 216.771 499.413 216.82C499.148 216.869 498.875 216.814 498.651 216.666L498.385 216.485C497.732 215.954 496.959 215.587 496.13 215.415L495.925 215.395Z" fill="#231F20"/>
<path d="M419.842 210.756C420.149 206.58 421.42 201.961 425.007 199.863C426.116 199.236 427.368 198.894 428.647 198.869C429.926 198.844 431.191 199.138 432.324 199.722C432.532 199.802 432.719 199.927 432.872 200.087C433.024 200.248 433.138 200.44 433.205 200.65C433.349 201.315 432.734 201.86 432.181 202.203C430.994 202.935 429.702 203.486 428.348 203.837C429.451 203.748 430.555 203.999 431.506 204.556C432.457 205.113 433.209 205.947 433.656 206.943C432.321 208.489 430.452 209.495 428.409 209.767C429.088 209.59 429.805 209.618 430.467 209.848C431.129 210.078 431.705 210.5 432.119 211.058C433.451 212.954 432.386 213.479 430.93 214.608C431.57 214.475 432.235 214.538 432.836 214.79C433.141 214.926 433.397 215.149 433.572 215.429C433.748 215.709 433.834 216.035 433.82 216.363C433.718 217.574 432.222 217.957 431.176 218.562C430.334 219.066 429.696 219.844 429.373 220.761C429.254 221.287 429.083 221.801 428.86 222.294C426.81 225.905 422.26 222.899 421.133 220.277C419.978 217.24 419.536 213.985 419.842 210.756Z" fill="#FFB6B6"/>
<path d="M426.195 224.977H425.949C424.712 224.806 423.539 224.332 422.536 223.599C421.533 222.866 420.734 221.897 420.21 220.781C418.985 217.564 418.509 214.117 418.817 210.695C419.104 206.661 420.313 201.436 424.494 198.996C425.752 198.282 427.172 197.893 428.624 197.865C430.075 197.837 431.51 198.17 432.795 198.834C433.14 198.98 433.446 199.202 433.691 199.481C433.936 199.761 434.113 200.091 434.21 200.448C434.333 201.013 434.21 202.082 432.734 203.05L431.832 203.575C433.065 204.231 434.039 205.275 434.599 206.54C434.671 206.713 434.694 206.902 434.665 207.087C434.636 207.272 434.557 207.445 434.435 207.589C433.772 208.388 432.975 209.07 432.078 209.606C432.422 209.865 432.72 210.179 432.959 210.534C434.066 212.087 433.882 213.136 433.287 213.923C433.777 214.148 434.188 214.512 434.465 214.968C434.743 215.425 434.875 215.953 434.845 216.484C434.722 217.977 433.369 218.643 432.406 219.107L431.709 219.47C431.069 219.841 430.588 220.429 430.356 221.124C430.296 221.275 430.248 221.43 430.213 221.588C430.12 222.016 429.969 222.43 429.762 222.818C429.419 223.46 428.907 224 428.28 224.379C427.652 224.759 426.932 224.966 426.195 224.977ZM420.866 210.857C420.576 213.953 420.989 217.074 422.076 219.994C422.455 220.765 423.016 221.435 423.711 221.951C424.406 222.467 425.215 222.812 426.072 222.96C426.469 222.97 426.86 222.867 427.199 222.663C427.537 222.459 427.808 222.162 427.979 221.81C428.092 221.563 428.181 221.307 428.245 221.043C428.245 220.842 428.348 220.66 428.409 220.458C428.802 219.307 429.602 218.334 430.664 217.715L431.484 217.271C432.262 216.908 432.775 216.626 432.816 216.283C432.857 215.94 432.631 215.839 432.385 215.718C431.974 215.563 431.525 215.528 431.094 215.617C430.873 215.648 430.648 215.608 430.452 215.501C430.257 215.395 430.102 215.228 430.012 215.027C429.921 214.826 429.9 214.602 429.951 214.388C430.002 214.174 430.123 213.982 430.295 213.842L430.684 213.539C431.934 212.591 431.934 212.591 431.279 211.663C430.623 210.736 429.946 210.614 428.553 210.796C428.417 210.816 428.28 210.808 428.147 210.774C428.015 210.739 427.892 210.679 427.784 210.596C427.677 210.512 427.588 210.409 427.523 210.291C427.457 210.172 427.417 210.042 427.405 209.908C427.37 209.644 427.443 209.376 427.608 209.164C427.773 208.953 428.017 208.814 428.286 208.779C429.839 208.564 431.279 207.856 432.385 206.762C431.995 206.089 431.417 205.541 430.719 205.184C430.021 204.826 429.234 204.674 428.45 204.745C428.193 204.775 427.935 204.708 427.726 204.559C427.516 204.409 427.373 204.187 427.323 203.938C427.272 203.687 427.32 203.427 427.457 203.209C427.594 202.992 427.81 202.834 428.061 202.768C429.312 202.44 430.508 201.93 431.607 201.255C432.016 201.013 432.16 200.811 432.18 200.73L431.812 200.508C430.839 200.001 429.75 199.745 428.649 199.766C427.548 199.787 426.471 200.085 425.519 200.63C422.096 202.647 421.092 207.226 420.846 210.715L420.866 210.857Z" fill="#231F20"/>
<path d="M473.236 94.4057C471.736 94.4057 470.269 93.968 469.022 93.1479C467.775 92.3277 466.803 91.1621 466.229 89.7983C465.655 88.4345 465.505 86.9339 465.798 85.4861C466.09 84.0383 466.812 82.7084 467.873 81.6647C468.934 80.6209 470.285 79.91 471.756 79.6221C473.227 79.3341 474.752 79.4819 476.138 80.0468C477.524 80.6117 478.708 81.5683 479.541 82.7957C480.375 84.023 480.819 85.466 480.819 86.9422C480.814 88.92 480.013 90.8153 478.592 92.2138C477.171 93.6123 475.245 94.4003 473.236 94.4057ZM473.236 81.4958C472.141 81.4958 471.071 81.8152 470.161 82.4137C469.251 83.0121 468.542 83.8627 468.123 84.8579C467.704 85.8531 467.594 86.9482 467.808 88.0047C468.021 89.0612 468.548 90.0316 469.322 90.7933C470.096 91.555 471.083 92.0737 472.156 92.2839C473.23 92.494 474.342 92.3861 475.353 91.9739C476.365 91.5617 477.229 90.8636 477.837 89.968C478.445 89.0723 478.77 88.0193 478.77 86.9422C478.764 85.4993 478.18 84.1171 477.143 83.0969C476.106 82.0766 474.702 81.5011 473.236 81.4958Z" fill="#231F20"/>
<path d="M490.125 94.4057C488.625 94.4057 487.159 93.968 485.911 93.1479C484.664 92.3277 483.692 91.1621 483.118 89.7983C482.544 88.4345 482.394 86.9339 482.687 85.4861C482.979 84.0383 483.702 82.7084 484.762 81.6647C485.823 80.6209 487.174 79.91 488.645 79.6221C490.116 79.3341 491.641 79.4819 493.027 80.0468C494.413 80.6117 495.597 81.5683 496.431 82.7957C497.264 84.023 497.709 85.466 497.709 86.9422C497.709 88.9216 496.91 90.82 495.487 92.2197C494.065 93.6193 492.136 94.4057 490.125 94.4057ZM490.125 81.4958C489.03 81.4958 487.96 81.8152 487.05 82.4137C486.14 83.0121 485.431 83.8627 485.012 84.8579C484.593 85.8531 484.484 86.9482 484.697 88.0047C484.911 89.0612 485.438 90.0316 486.212 90.7933C486.986 91.555 487.972 92.0737 489.045 92.2839C490.119 92.494 491.231 92.3861 492.243 91.9739C493.254 91.5617 494.118 90.8636 494.726 89.968C495.334 89.0723 495.659 88.0193 495.659 86.9422C495.659 85.4977 495.076 84.1124 494.038 83.091C493 82.0696 491.593 81.4958 490.125 81.4958Z" fill="#231F20"/>
<path d="M483.34 106.731C480.716 106.679 478.138 106.045 475.798 104.875C475.565 104.74 475.395 104.522 475.323 104.266C475.25 104.01 475.281 103.737 475.408 103.503C475.542 103.271 475.763 103.1 476.025 103.028C476.286 102.956 476.565 102.989 476.802 103.12C477.191 103.322 486.312 108.243 491.888 99.9327C492.037 99.708 492.271 99.551 492.538 99.4961C492.805 99.4413 493.084 99.4931 493.312 99.6402C493.54 99.7874 493.7 100.018 493.756 100.281C493.811 100.544 493.759 100.817 493.609 101.042C492.551 102.79 491.046 104.234 489.244 105.232C487.443 106.23 485.408 106.747 483.34 106.731Z" fill="#231F20"/>
<path d="M483.566 87.9508H479.794C479.523 87.9508 479.262 87.8445 479.07 87.6554C478.878 87.4662 478.77 87.2097 478.77 86.9422C478.77 86.6747 478.878 86.4182 479.07 86.229C479.262 86.0399 479.523 85.9336 479.794 85.9336H483.566C483.838 85.9336 484.098 86.0399 484.291 86.229C484.483 86.4182 484.591 86.6747 484.591 86.9422C484.585 87.2081 484.476 87.4616 484.285 87.6497C484.094 87.8377 483.836 87.9456 483.566 87.9508Z" fill="#231F20"/>
<path d="M511.81 91.9851C511.722 92.0043 511.632 92.0043 511.544 91.9851L496.417 87.9508C496.145 87.8812 495.913 87.7083 495.771 87.4699C495.628 87.2316 495.588 86.9475 495.659 86.68C495.729 86.4125 495.905 86.1836 496.147 86.0436C496.39 85.9036 496.678 85.8641 496.95 85.9336L512.077 89.9679C512.337 90.0388 512.558 90.2077 512.692 90.4381C512.827 90.6684 512.863 90.9417 512.794 91.1984C512.747 91.4209 512.623 91.6205 512.444 91.7638C512.265 91.9071 512.041 91.9853 511.81 91.9851Z" fill="#231F20"/>
<path d="M503.345 93.3971C503.751 91.9598 504.613 90.6876 505.805 89.7662C506.714 89.0108 507.777 88.456 508.923 88.1393C510.069 87.8227 511.27 87.7515 512.446 87.9306C513.618 88.4179 514.588 89.281 515.198 90.3797C515.808 91.4785 516.023 92.7481 515.807 93.9821C515.638 95.6597 515.012 97.2613 513.995 98.6176C512.977 99.9739 511.606 101.035 510.027 101.688C508.991 102.053 507.891 102.209 506.792 102.146C505.693 102.084 504.619 101.804 503.632 101.325" fill="#FFB6B6"/>
<path d="M507.301 103.16C505.879 103.158 504.476 102.834 503.202 102.212C503.08 102.154 502.972 102.073 502.883 101.973C502.794 101.873 502.727 101.757 502.684 101.631C502.642 101.504 502.627 101.371 502.638 101.239C502.649 101.107 502.688 100.978 502.751 100.861C502.81 100.741 502.892 100.635 502.993 100.547C503.094 100.459 503.212 100.391 503.339 100.348C503.467 100.305 503.602 100.287 503.737 100.295C503.871 100.304 504.003 100.338 504.124 100.397C504.987 100.815 505.926 101.061 506.887 101.12C507.847 101.179 508.81 101.049 509.719 100.74C511.115 100.141 512.325 99.1896 513.225 97.9812C514.126 96.7728 514.684 95.3511 514.844 93.861C515.024 92.8625 514.861 91.8335 514.383 90.9354C513.904 90.0373 513.137 89.321 512.2 88.8988C511.177 88.774 510.14 88.8583 509.153 89.1464C508.165 89.4345 507.248 89.9202 506.461 90.573C505.461 91.3613 504.743 92.4423 504.411 93.6593C504.374 93.7917 504.312 93.9159 504.227 94.0245C504.142 94.1332 504.036 94.2244 503.915 94.2927C503.794 94.3611 503.661 94.4054 503.523 94.423C503.384 94.4407 503.244 94.4313 503.109 94.3956C502.975 94.3598 502.849 94.2983 502.738 94.2146C502.628 94.1309 502.535 94.0266 502.466 93.9076C502.396 93.7887 502.351 93.6574 502.333 93.5214C502.315 93.3853 502.325 93.2471 502.361 93.1147C502.839 91.5111 503.823 90.0984 505.169 89.0803C506.205 88.223 507.418 87.5984 508.725 87.25C510.031 86.9017 511.399 86.8379 512.733 87.0632C514.134 87.6127 515.303 88.6152 516.048 89.9057C516.793 91.1962 517.069 92.6978 516.832 94.1636C516.647 96.0241 515.953 97.8004 514.823 99.3031C513.693 100.806 512.17 101.979 510.416 102.696C509.414 103.03 508.359 103.187 507.301 103.16Z" fill="#231F20"/>
<path d="M541.94 220.922C532.491 220.922 518.656 213.398 516.668 212.289C516.551 212.223 516.448 212.134 516.366 212.029C516.283 211.924 516.223 211.804 516.188 211.675C516.152 211.547 516.143 211.413 516.161 211.281C516.178 211.149 516.222 211.022 516.289 210.907C516.356 210.792 516.446 210.691 516.553 210.61C516.66 210.529 516.782 210.469 516.912 210.434C517.043 210.4 517.179 210.391 517.313 210.408C517.447 210.425 517.576 210.468 517.693 210.534C524.313 214.245 542.596 222.637 547.413 217.049C552.23 211.462 537.8 183.807 531.815 173.64C531.711 173.412 531.696 173.155 531.773 172.917C531.85 172.679 532.015 172.478 532.234 172.353C532.453 172.227 532.712 172.186 532.96 172.238C533.209 172.289 533.429 172.43 533.578 172.631C535.853 176.504 555.694 210.574 548.991 218.34C548.08 219.253 546.976 219.957 545.758 220.403C544.539 220.849 543.236 221.026 541.94 220.922Z" fill="#231F20"/>
<path d="M549.155 255.214H549.012C533.865 252.975 514.167 241.094 513.307 240.65C513.192 240.58 513.093 240.488 513.014 240.381C512.936 240.273 512.879 240.151 512.849 240.021C512.819 239.892 512.814 239.758 512.837 239.627C512.859 239.496 512.907 239.371 512.979 239.258C513.048 239.143 513.14 239.044 513.249 238.965C513.359 238.886 513.484 238.83 513.616 238.799C513.748 238.769 513.885 238.766 514.018 238.789C514.152 238.813 514.279 238.862 514.393 238.936C514.577 239.036 534.582 251.038 549.237 253.237C549.371 253.252 549.5 253.293 549.617 253.359C549.734 253.424 549.835 253.513 549.916 253.619C549.997 253.724 550.055 253.845 550.086 253.974C550.117 254.103 550.121 254.236 550.098 254.367C550.062 254.592 549.948 254.799 549.777 254.953C549.606 255.106 549.387 255.199 549.155 255.214Z" fill="#231F20"/>
<path d="M14.7014 281.803L0.923401 339.433L72.1317 355.921L85.9097 298.291L14.7014 281.803Z" fill="white"/>
<path d="M72.1561 356.859H71.9306L0.725079 340.359C0.604303 340.332 0.490076 340.283 0.389188 340.212C0.2883 340.142 0.202814 340.053 0.137803 339.949C0.0727924 339.846 0.0295917 339.73 0.010762 339.61C-0.00806773 339.49 -0.0021453 339.367 0.0281903 339.249L13.802 281.619C13.8604 281.381 14.0115 281.176 14.2225 281.048C14.4336 280.919 14.6875 280.878 14.9293 280.933L86.1349 297.433C86.256 297.459 86.3709 297.507 86.4729 297.577C86.5749 297.646 86.662 297.734 86.7293 297.837C86.8555 298.05 86.8923 298.303 86.8318 298.543L73.058 356.173C72.9988 356.406 72.8523 356.607 72.648 356.738C72.4992 356.824 72.3285 356.866 72.1561 356.859ZM2.05737 338.704L71.4592 354.842L84.8026 299.007L15.4212 282.869L2.05737 338.704Z" fill="#231F20"/>
<path d="M57.6196 270.597C57.6196 270.597 56.4308 300.351 53.2948 298.576C49.1955 296.215 50.8967 289.357 50.8967 289.357L37 286.473C37 286.473 42.903 266.724 43.2925 266.059C43.6819 265.393 57.6196 270.597 57.6196 270.597Z" fill="#FFB6B6"/>
<path d="M53.9345 299.652C53.6746 299.652 53.4195 299.582 53.1967 299.451C49.4253 297.312 49.8147 292.269 50.1632 290.172L37.1887 287.469C37.0614 287.439 36.9414 287.384 36.8358 287.308C36.7302 287.231 36.6412 287.135 36.5738 287.025C36.4822 286.791 36.4822 286.532 36.5738 286.299C38.7875 278.875 42.5794 266.349 42.9688 265.683C43.3583 265.018 43.7477 264.332 58.4233 269.839C58.6103 269.9 58.7716 270.02 58.8827 270.18C58.9937 270.341 59.0484 270.532 59.0382 270.726C58.7103 278.795 57.6444 297.897 54.7339 299.471C54.4925 299.61 54.2136 299.673 53.9345 299.652ZM38.562 285.855L51.4544 288.538C51.7065 288.597 51.9262 288.749 52.0694 288.961C52.1596 289.188 52.1596 289.44 52.0694 289.667C52.0694 289.667 50.6141 295.557 53.7706 297.736C55.1234 295.719 56.4351 282.89 56.9271 271.351C51.6594 269.334 45.9818 267.458 44.2191 267.095C43.5427 269.334 40.6527 278.896 38.562 285.855Z" fill="#231F20"/>
<path d="M79.4528 437.889C79.4528 437.889 78.305 456.527 78.3665 463.587C78.428 470.647 78.3665 477.284 86.7906 475.69C91.3819 474.863 116.593 468.59 114.277 463.97C111.961 459.351 95.5837 458.161 95.5837 458.161L97.0595 436.86" fill="white"/>
<path d="M84.5566 476.9C83.0259 476.971 81.5203 476.499 80.3137 475.569C77.5262 473.31 77.4852 468.731 77.4442 463.89V463.607C77.4442 456.588 78.51 438.03 78.51 437.828C78.5179 437.709 78.5495 437.592 78.6032 437.485C78.657 437.378 78.7317 437.282 78.8231 437.203C78.9145 437.124 79.0208 437.064 79.1359 437.026C79.2511 436.988 79.3727 436.972 79.4939 436.981C79.6178 436.983 79.7399 437.01 79.8526 437.061C79.9653 437.112 80.0662 437.185 80.1489 437.276C80.2316 437.367 80.2943 437.473 80.3333 437.589C80.3722 437.705 80.3865 437.827 80.3752 437.949C80.3752 438.13 79.2479 456.628 79.3094 463.587V463.869C79.3094 468.267 79.3094 472.442 81.5026 474.157C82.2532 474.634 83.1006 474.944 83.9855 475.066C84.8705 475.188 85.7718 475.119 86.6267 474.863C92.5708 473.774 111.571 468.569 113.395 464.999C113.446 464.917 113.473 464.823 113.473 464.727C113.473 464.631 113.446 464.536 113.395 464.454C111.879 461.449 101.61 459.613 95.4813 459.169C95.2347 459.149 95.0062 459.034 94.8452 458.849C94.6841 458.664 94.6034 458.424 94.6204 458.181L96.0962 436.88C96.117 436.639 96.2304 436.415 96.4133 436.254C96.5961 436.093 96.8346 436.006 97.08 436.012C97.3283 436.033 97.5588 436.147 97.7231 436.332C97.8875 436.516 97.9729 436.756 97.9614 437.001L96.5471 457.394C100.339 457.737 112.944 459.21 114.994 463.648C115.17 463.984 115.262 464.358 115.262 464.737C115.262 465.116 115.17 465.489 114.994 465.826C112.186 471.313 87.1186 476.618 86.8727 476.658C86.1097 476.808 85.3344 476.889 84.5566 476.9Z" fill="#231F20"/>
<path d="M138.36 440.107C138.36 440.107 137.213 458.746 137.274 465.806C137.336 472.866 137.274 479.503 145.698 477.909C150.29 477.082 177.489 472.806 175.172 468.186C172.856 463.567 154.491 460.38 154.491 460.38L155.967 439.079" fill="white"/>
<path d="M143.464 479.119C141.933 479.19 140.428 478.718 139.221 477.788C136.434 475.529 136.393 470.95 136.352 466.109V465.786C136.352 458.766 137.418 440.208 137.418 440.027C137.433 439.784 137.545 439.557 137.729 439.395C137.913 439.233 138.155 439.148 138.401 439.159C138.525 439.162 138.648 439.189 138.76 439.24C138.873 439.291 138.974 439.364 139.056 439.455C139.139 439.545 139.202 439.652 139.241 439.768C139.28 439.884 139.294 440.006 139.283 440.128C139.283 440.309 138.156 458.827 138.217 465.766V466.048C138.217 470.446 138.217 474.621 140.41 476.336C141.161 476.813 142.008 477.123 142.893 477.245C143.778 477.367 144.679 477.297 145.534 477.042L146.969 476.779C168.142 473.128 173.615 470.526 174.312 468.973C174.312 468.812 174.312 468.731 174.312 468.63C172.774 465.584 161.235 462.579 154.307 461.328C154.078 461.293 153.872 461.173 153.731 460.993C153.59 460.813 153.525 460.586 153.549 460.36L155.024 439.058C155.045 438.818 155.159 438.594 155.341 438.433C155.524 438.272 155.763 438.185 156.008 438.191C156.256 438.212 156.487 438.326 156.651 438.51C156.816 438.695 156.901 438.935 156.889 439.179L155.496 459.734C159.431 460.461 173.779 463.406 175.992 467.803C176.161 468.113 176.249 468.46 176.249 468.812C176.249 469.163 176.161 469.51 175.992 469.82C174.496 472.745 165.744 475.448 147.297 478.615L145.883 478.877C145.085 479.023 144.276 479.104 143.464 479.119Z" fill="#231F20"/>
<path d="M77.0138 227.498C77.0138 227.498 71.1927 426.068 74.2672 443.052C74.2672 443.052 86.0938 456.184 101.425 449.628L120.836 288.578L131.084 449.487C131.084 449.487 140.902 459.089 161.481 443.133V220.478L77.0138 227.498Z" fill="#2F2E41"/>
<path d="M140 453.4C136.485 453.579 133.032 452.432 130.346 450.193C130.164 450.024 130.054 449.794 130.039 449.548L120.549 299.773L102.491 449.749C102.466 449.924 102.396 450.089 102.289 450.23C102.181 450.371 102.039 450.484 101.876 450.556C86.0324 457.314 73.6523 443.859 73.5294 443.718C73.4034 443.574 73.3185 443.4 73.2834 443.214C70.2499 426.33 75.8045 235.567 76.03 227.377C76.0435 227.132 76.1461 226.899 76.3191 226.721C76.492 226.544 76.724 226.433 76.9728 226.409L161.378 219.389C161.52 219.378 161.662 219.396 161.796 219.442C161.93 219.487 162.053 219.56 162.157 219.655C162.261 219.749 162.343 219.864 162.4 219.992C162.457 220.12 162.486 220.258 162.485 220.398V443.133C162.486 443.288 162.451 443.441 162.384 443.58C162.317 443.72 162.218 443.843 162.096 443.94C152.524 451.343 145.186 453.4 140 453.4ZM132.068 449.003C133.728 450.334 142.788 456.144 160.435 442.649V221.568L78.0591 228.426C77.6492 242.909 72.4635 424.737 75.2716 442.589C76.8498 444.243 87.1802 454.248 100.524 448.922L119.852 288.457C119.857 288.33 119.888 288.205 119.944 288.09C120.001 287.975 120.08 287.873 120.178 287.789C120.276 287.706 120.391 287.643 120.514 287.606C120.638 287.568 120.769 287.556 120.897 287.569C121.152 287.574 121.396 287.671 121.581 287.843C121.767 288.014 121.881 288.248 121.902 288.497L132.068 449.003Z" fill="#231F20"/>
<path d="M249 141.829C249 141.829 260.232 135.576 261.052 134.89C261.872 134.204 265.787 123.977 266.422 123.311C267.058 122.646 268.636 121.435 269.169 122.847C269.702 124.259 268.554 132.106 268.554 132.106C268.554 132.106 282.369 121.476 283.332 122.02C284.295 122.565 285.013 123.795 282.84 126.781C280.878 129.091 278.561 131.085 275.974 132.691C275.974 132.691 280.831 138.057 280.073 139.892C279.315 141.728 260.888 153.891 260.888 153.891" fill="#FFB6B6"/>
<path d="M260.931 154.84C260.776 154.844 260.624 154.809 260.488 154.738C260.351 154.667 260.236 154.564 260.152 154.437C260.082 154.336 260.032 154.223 260.007 154.103C259.981 153.984 259.98 153.861 260.003 153.741C260.025 153.621 260.072 153.507 260.14 153.404C260.208 153.302 260.295 153.214 260.398 153.146C269.129 147.397 278.558 140.74 279.255 139.55C279.48 138.884 277.574 135.899 275.155 133.317C275.064 133.217 274.996 133.098 274.957 132.969C274.918 132.84 274.909 132.703 274.93 132.57C274.948 132.438 274.995 132.311 275.07 132.199C275.144 132.087 275.244 131.994 275.36 131.925C277.844 130.389 280.07 128.484 281.96 126.277C283.19 124.562 283.272 123.735 283.19 123.392C283.159 123.244 283.079 123.11 282.964 123.009C278.096 125.969 273.433 129.244 269.006 132.812C268.852 132.917 268.67 132.972 268.484 132.972C268.297 132.972 268.115 132.917 267.961 132.812C267.799 132.72 267.669 132.582 267.585 132.418C267.501 132.253 267.468 132.068 267.489 131.885C268.041 128.986 268.268 126.037 268.166 123.09C268.043 123.09 267.489 123.332 266.998 123.856C266.506 124.381 265.747 126.559 264.948 128.476C262.898 133.438 262.099 135.052 261.545 135.515C260.992 135.979 251.297 141.567 249.247 142.555C249.032 142.657 248.785 142.673 248.557 142.602C248.329 142.531 248.137 142.378 248.02 142.173C247.903 141.968 247.869 141.726 247.926 141.498C247.983 141.269 248.125 141.071 248.325 140.942C252.629 138.561 259.66 134.588 260.254 134.083C261.327 132.032 262.285 129.924 263.124 127.77C263.754 125.974 264.565 124.244 265.542 122.606C265.911 122.222 267.223 120.992 268.494 121.214C268.808 121.286 269.098 121.437 269.335 121.653C269.572 121.869 269.749 122.141 269.847 122.444C270.12 124.932 270.03 127.445 269.58 129.908C282.186 120.346 283.026 120.851 283.62 121.194C283.955 121.375 284.245 121.626 284.472 121.929C284.698 122.232 284.855 122.58 284.932 122.949C284.992 123.735 284.888 124.525 284.627 125.271C284.366 126.016 283.954 126.702 283.415 127.285C281.668 129.434 279.594 131.305 277.266 132.833C278.988 134.85 281.591 138.319 280.915 140.155C280.238 141.991 266.998 150.906 261.361 154.618C261.238 154.726 261.09 154.802 260.931 154.84Z" fill="#231F20"/>
<path d="M151.765 130.614C151.765 130.614 131.863 124.199 79.4528 134.103C70.3523 135.818 66.171 219.329 73.0373 269.556L164.842 268.81C164.842 268.81 179.989 137.573 151.765 130.614Z" fill="#F40000"/>
<path d="M75.9889 122.021C75.9889 122.021 56.1276 184.553 54.8568 190.1C53.586 195.647 40.1196 269.274 40.1196 269.274L60.9853 276.172C60.9853 276.172 91.2384 207.347 89.3118 188.022C87.3851 168.698 75.9889 122.021 75.9889 122.021Z" fill="#F40000"/>
<path d="M150.043 130.654C166.01 132.147 199.236 170.09 201.941 168.98C204.647 167.871 253.88 134.688 253.88 134.688L269.457 151.471C269.457 151.471 221.761 205.935 212.066 211.704C197.145 220.478 133.79 180.539 133.79 180.539C133.79 180.539 134.077 129.141 150.043 130.654Z" fill="#F40000"/>
<path d="M51.3315 289.748C51.3315 289.748 44.875 286.299 47.7241 280.449L51.3315 289.748Z" fill="white"/>
<path d="M51.3316 290.676C51.1733 290.673 51.0182 290.632 50.8806 290.555C48.38 289.223 44.3217 285.31 46.7813 280.045C46.89 279.823 47.0839 279.653 47.3203 279.571C47.5567 279.49 47.8162 279.505 48.0418 279.612C48.2674 279.719 48.4406 279.909 48.5232 280.142C48.6059 280.375 48.5912 280.63 48.4825 280.852C46.0434 285.855 51.4546 288.921 51.68 288.921C51.86 289.021 52.0013 289.177 52.0823 289.365C52.1633 289.552 52.1793 289.76 52.1281 289.958C52.0768 290.155 51.961 290.33 51.7985 290.456C51.6361 290.582 51.436 290.652 51.2291 290.656L51.3316 290.676Z" fill="#231F20"/>
<path d="M198.518 212.894H198.334C188.311 210.877 168.695 199.46 142.993 180.619L141.824 179.752C141.62 179.616 141.478 179.408 141.428 179.17C141.378 178.932 141.425 178.685 141.558 178.481C141.688 178.284 141.892 178.144 142.125 178.091C142.358 178.038 142.603 178.077 142.808 178.199C143.261 178.493 143.699 178.809 144.12 179.147C169.536 197.846 188.885 209.223 198.641 211.119C198.885 211.168 199.1 211.309 199.239 211.514C199.377 211.718 199.427 211.967 199.379 212.208C199.325 212.396 199.213 212.562 199.059 212.685C198.905 212.808 198.716 212.881 198.518 212.894Z" fill="#231F20"/>
<path d="M145.022 92.0255C143.688 92.0255 142.384 91.6363 141.275 90.907C140.166 90.1778 139.302 89.1413 138.792 87.9287C138.281 86.716 138.148 85.3816 138.408 84.0943C138.668 82.8069 139.31 81.6244 140.254 80.6963C141.197 79.7682 142.398 79.1361 143.706 78.88C145.014 78.624 146.37 78.7554 147.602 79.2577C148.835 79.76 149.888 80.6106 150.629 81.702C151.37 82.7933 151.765 84.0764 151.765 85.389C151.765 87.1491 151.055 88.8371 149.79 90.0817C148.526 91.3263 146.81 92.0255 145.022 92.0255ZM145.022 80.7697C144.094 80.7697 143.186 81.0406 142.414 81.5482C141.642 82.0558 141.041 82.7772 140.685 83.6213C140.33 84.4653 140.237 85.3941 140.418 86.2902C140.599 87.1862 141.046 88.0093 141.703 88.6553C142.359 89.3014 143.196 89.7413 144.106 89.9196C145.017 90.0978 145.96 90.0063 146.818 89.6567C147.676 89.3071 148.409 88.715 148.925 87.9553C149.44 87.1957 149.716 86.3026 149.716 85.389C149.716 84.7824 149.594 84.1817 149.358 83.6213C149.122 83.0608 148.777 82.5516 148.341 82.1226C147.905 81.6937 147.388 81.3534 146.818 81.1213C146.249 80.8892 145.638 80.7697 145.022 80.7697Z" fill="#231F20"/>
<path d="M142.275 89.7662C142.275 89.7662 148.937 100.578 147.399 102.696C145.862 104.814 141.046 103.201 141.046 103.201" fill="white"/>
<path d="M144.51 104.713C143.214 104.682 141.929 104.464 140.697 104.068C140.425 103.98 140.2 103.789 140.072 103.537C139.943 103.286 139.921 102.994 140.011 102.726C140.1 102.459 140.294 102.237 140.55 102.111C140.805 101.984 141.102 101.962 141.374 102.051C142.706 102.515 145.719 103.059 146.559 101.93C147.092 100.961 144.694 95.4344 141.415 90.1091C141.344 89.9982 141.296 89.8744 141.274 89.7451C141.252 89.6157 141.256 89.4833 141.287 89.3557C141.317 89.228 141.373 89.1076 141.451 89.0015C141.53 88.8953 141.629 88.8056 141.743 88.7375C141.857 88.667 141.984 88.6195 142.117 88.5976C142.25 88.5757 142.386 88.5799 142.518 88.6099C142.649 88.6399 142.773 88.6951 142.883 88.7723C142.993 88.8496 143.086 88.9474 143.157 89.0602C145.206 92.4894 149.982 100.699 148.22 103.18C147.774 103.713 147.203 104.13 146.557 104.397C145.91 104.664 145.208 104.773 144.51 104.713Z" fill="#231F20"/>
<path d="M141.312 75.8074C145.678 79.5795 144.079 87.1842 143.833 92.1464C143.505 99.1393 143.013 106.125 142.357 113.105C141.947 117.522 130.285 117.139 128.276 115.767L130.736 126.842L105.258 123.17L106.836 108.728C106.836 108.728 105.197 88.5559 110.116 79.761C111.544 77.2125 113.667 75.107 116.245 73.6815C118.824 72.256 121.755 71.5671 124.71 71.6924C124.71 71.6924 137.049 72.0958 141.312 75.8074Z" fill="#FFB6B6"/>
<path d="M130.736 127.85H130.592L105.115 124.179C104.854 124.139 104.618 124.001 104.458 123.795C104.297 123.588 104.224 123.328 104.254 123.07L105.812 108.627C105.812 107.981 104.213 88.2937 109.214 79.277C110.723 76.5463 112.987 74.2919 115.744 72.7747C118.501 71.2576 121.638 70.5396 124.792 70.704C125.263 70.704 137.52 71.1478 141.988 75.0409C146.088 78.5306 145.473 84.6225 145.063 89.5242C145.063 90.4723 144.899 91.38 144.858 92.207C144.53 99.1864 144.038 106.327 143.382 113.186C143.289 113.955 142.973 114.682 142.471 115.279C141.97 115.877 141.304 116.319 140.554 116.554C137.068 117.796 133.3 118.062 129.67 117.321L131.72 126.64C131.753 126.797 131.748 126.959 131.705 127.113C131.663 127.267 131.583 127.409 131.474 127.528C131.38 127.629 131.266 127.71 131.139 127.765C131.012 127.821 130.875 127.85 130.736 127.85ZM106.386 122.323L129.424 125.631L127.374 115.989C127.328 115.792 127.345 115.586 127.422 115.398C127.499 115.211 127.632 115.051 127.805 114.94C127.976 114.823 128.18 114.761 128.389 114.761C128.598 114.761 128.801 114.823 128.973 114.94C132.511 116.013 136.306 115.936 139.795 114.719C140.82 114.255 141.373 113.67 141.435 112.984C142.091 106.065 142.583 99.0452 142.911 92.086C142.911 91.2388 143.034 90.3109 143.116 89.3426C143.505 84.8847 143.977 79.2568 140.738 76.5336C136.803 73.1246 124.894 72.701 124.792 72.701C122.024 72.5612 119.273 73.1933 116.854 74.5243C114.436 75.8554 112.448 77.8314 111.12 80.2251C106.406 88.7173 107.943 108.465 107.964 108.627L106.386 122.323Z" fill="#231F20"/>
<path d="M100.257 126.579L102.655 118.934L133.933 121.9L135.716 128.919C129.996 131.127 123.851 132.063 117.72 131.658C111.59 131.254 105.626 129.519 100.257 126.579Z" fill="white"/>
<path d="M120.836 132.772C113.482 132.738 106.251 130.915 99.7856 127.467C99.5758 127.356 99.4119 127.176 99.3221 126.959C99.2323 126.742 99.2223 126.501 99.2936 126.277L101.61 118.632C101.683 118.411 101.83 118.22 102.028 118.092C102.225 117.964 102.461 117.905 102.696 117.926L134.036 120.851C134.243 120.87 134.439 120.952 134.597 121.086C134.755 121.219 134.867 121.398 134.917 121.597L136.721 128.617C136.777 128.842 136.752 129.079 136.651 129.288C136.551 129.498 136.38 129.667 136.167 129.767C131.324 131.805 126.103 132.829 120.836 132.772ZM101.61 126.075C106.657 128.665 112.192 130.202 117.87 130.591C123.548 130.98 129.247 130.211 134.609 128.334L133.216 122.848L103.495 120.004L101.61 126.075Z" fill="#231F20"/>
<path d="M115.568 110.543C115.568 122.424 127.702 146.449 117.29 155.889C107.513 164.764 90.644 167.084 78.018 165.712C59.571 163.695 49.876 151.128 57.5213 133.438C61.2312 124.804 67.7696 117.684 73.2013 109.978C77.9817 103.193 81.9955 95.9154 85.1714 88.2735C87.8769 81.7984 89.8856 74.1534 93.534 68.1019C101.61 54.7079 115.875 49.4633 130.879 53.78C137.315 55.6358 149.695 63.2607 146.662 71.5109C145.924 73.5281 143.403 76.574 141.394 75.7268C140.82 79.6401 138.258 81.516 135.142 84.0173C131.872 86.391 128.471 88.5863 124.956 90.5933C122.563 91.9944 120.474 93.845 118.806 96.0396C116.983 99.033 115.927 102.419 115.732 105.904C115.586 107.446 115.531 108.995 115.568 110.543Z" fill="white"/>
<path d="M84.8026 167.084C82.5021 167.081 80.2033 166.96 77.9157 166.721C67.9543 165.672 60.391 161.557 56.5581 155.183C52.7252 148.809 52.9097 141.446 56.5581 132.994C59.5444 126.751 63.2958 120.891 67.7288 115.546C69.2866 113.528 70.8443 111.511 72.3406 109.353C77.0726 102.62 81.0515 95.4038 84.2082 87.8297C85.0895 85.6915 85.8889 83.4928 86.7292 81.1529C88.2584 76.4679 90.2349 71.936 92.6323 67.6177C96.3127 61.1399 102.168 56.124 109.195 53.4299C116.222 50.7359 123.982 50.5316 131.146 52.8521C135.942 54.2238 144.038 58.7624 146.99 64.4911C147.618 65.6122 147.998 66.8517 148.104 68.1277C148.21 69.4038 148.039 70.6875 147.604 71.8941C146.86 73.9019 145.404 75.578 143.505 76.6143C143.089 76.7886 142.645 76.891 142.193 76.9169C141.332 80.3864 138.934 82.3027 136.188 84.5014L135.757 84.8443C133.624 86.4909 131.37 87.9809 129.014 89.3023C127.866 89.9881 126.718 90.6739 125.591 91.3194C123.297 92.7016 121.299 94.5104 119.708 96.6447C117.993 99.5045 117.001 102.729 116.818 106.045C116.648 107.552 116.573 109.067 116.593 110.583C116.954 115.421 117.834 120.209 119.216 124.865C122.148 136.585 125.366 149.878 117.987 156.655C109.399 164.422 95.9528 167.084 84.8026 167.084ZM120.754 53.3967C115.366 53.4009 110.077 54.8203 105.432 57.5081C100.788 60.196 96.9563 64.055 94.3335 68.6868C92.0101 72.9002 90.0889 77.3165 88.5944 81.8791C87.7951 84.1383 86.9342 86.5589 86.0324 88.5761C82.836 96.2915 78.7875 103.638 73.9598 110.483C72.4636 112.5 70.8853 114.678 69.2866 116.736C64.9694 121.958 61.3082 127.675 58.3823 133.761C55.0619 141.547 55.0414 148.587 58.3823 154.094C61.8668 159.923 68.8971 163.675 78.1821 164.664C89.7218 165.894 106.714 164.119 116.654 155.082C123.234 149.031 120.077 136.423 117.29 125.248C115.855 120.436 114.954 115.485 114.605 110.483C114.581 108.899 114.663 107.315 114.851 105.742C115.034 102.117 116.118 98.5917 118.007 95.4748C119.724 93.1725 121.891 91.2315 124.382 89.7662C125.529 89.0199 126.698 88.3139 127.866 87.628C130.146 86.3425 132.331 84.9 134.405 83.3113L134.835 82.9885C137.725 80.6688 139.795 78.9542 140.308 75.646C140.332 75.4949 140.392 75.3513 140.482 75.2261C140.571 75.1009 140.689 74.9974 140.825 74.9236C140.961 74.8497 141.113 74.8073 141.268 74.7997C141.424 74.7921 141.579 74.8194 141.722 74.8795C142.011 74.9961 142.335 74.9961 142.624 74.8795C144.007 74.0704 145.064 72.8164 145.616 71.3293C145.956 70.3809 146.086 69.372 145.998 68.3701C145.91 67.3682 145.605 66.3964 145.104 65.5199C142.46 60.3761 134.855 56.1401 130.51 54.9096C127.348 53.9519 124.062 53.4425 120.754 53.3967Z" fill="#231F20"/>
<path d="M142.398 107.88C142.398 107.88 136.762 111.007 134.036 105.278L142.398 107.88Z" fill="white"/>
<path d="M138.996 109.736C138.349 109.741 137.706 109.646 137.09 109.454C136.195 109.146 135.378 108.654 134.692 108.01C134.006 107.367 133.468 106.587 133.113 105.722C133.055 105.601 133.022 105.471 133.016 105.338C133.009 105.205 133.029 105.071 133.075 104.946C133.12 104.82 133.191 104.705 133.282 104.606C133.373 104.508 133.483 104.427 133.605 104.37C133.728 104.314 133.86 104.281 133.996 104.274C134.131 104.268 134.266 104.288 134.394 104.333C134.521 104.378 134.638 104.447 134.739 104.536C134.839 104.626 134.92 104.734 134.978 104.855C135.213 105.464 135.575 106.017 136.041 106.479C136.507 106.942 137.067 107.302 137.684 107.537C139.105 107.863 140.598 107.669 141.886 106.993C142.004 106.929 142.134 106.889 142.268 106.874C142.403 106.86 142.538 106.872 142.668 106.909C142.797 106.947 142.918 107.009 143.023 107.093C143.128 107.176 143.215 107.279 143.28 107.396C143.348 107.509 143.392 107.635 143.409 107.765C143.426 107.895 143.416 108.028 143.38 108.154C143.343 108.281 143.281 108.399 143.197 108.501C143.113 108.603 143.008 108.687 142.89 108.748C141.691 109.379 140.355 109.718 138.996 109.736Z" fill="#231F20"/>
<path d="M112.986 93.9014C112.898 93.9205 112.807 93.9205 112.719 93.9014C112.459 93.8306 112.238 93.6616 112.103 93.4312C111.969 93.2009 111.933 92.9276 112.002 92.6709C113.109 88.8988 113.928 88.8383 114.42 88.798C114.912 88.7576 138.402 85.9134 150.618 84.4409C150.887 84.4065 151.158 84.4785 151.374 84.6411C151.589 84.8037 151.73 85.0436 151.765 85.3083C151.794 85.5751 151.716 85.8426 151.548 86.0537C151.38 86.2647 151.134 86.4026 150.864 86.4379C147.42 86.8615 118.479 90.4722 114.912 90.7748C114.519 91.5543 114.21 92.3724 113.99 93.2155C113.917 93.4191 113.78 93.5949 113.6 93.718C113.42 93.8411 113.205 93.9052 112.986 93.9014Z" fill="#231F20"/>
<path d="M128.481 93.74C128.347 91.9806 127.723 90.2917 126.677 88.8585C126.025 87.6563 125.196 86.5552 124.218 85.5907C123.725 85.1147 123.131 84.752 122.479 84.5288C121.827 84.3056 121.133 84.2273 120.446 84.2997C119.848 84.4184 119.282 84.6593 118.784 85.0068C118.286 85.3542 117.868 85.8005 117.556 86.3168C116.97 87.3749 116.621 88.5441 116.531 89.746C116.313 92.3754 116.801 95.015 117.944 97.4009C119.088 99.7868 120.849 101.835 123.049 103.342L122.68 102.898" fill="#FFB6B6"/>
<path d="M123.049 104.391C122.844 104.387 122.644 104.324 122.475 104.209C120.133 102.597 118.26 100.411 117.041 97.8668C115.822 95.3228 115.3 92.5094 115.527 89.7057C115.611 88.3438 116.011 87.019 116.695 85.8327C117.069 85.1838 117.582 84.6224 118.198 84.1872C118.813 83.7519 119.517 83.4531 120.262 83.3113C121.104 83.2066 121.96 83.2901 122.766 83.5555C123.571 83.8209 124.306 84.2614 124.914 84.8443C125.971 85.8764 126.862 87.0597 127.559 88.3542C128.742 89.9322 129.452 91.805 129.608 93.7602C129.588 94.0227 129.471 94.2687 129.278 94.4511C129.085 94.6334 128.83 94.7394 128.563 94.7486C128.428 94.746 128.296 94.7173 128.172 94.6641C128.049 94.611 127.937 94.5345 127.844 94.439C127.751 94.3434 127.678 94.2308 127.629 94.1074C127.58 93.984 127.556 93.8523 127.559 93.7198C127.418 92.1521 126.844 90.6521 125.898 89.3829C125.301 88.2652 124.542 87.2391 123.644 86.337C123.261 85.9644 122.801 85.6777 122.295 85.4966C121.789 85.3156 121.249 85.2444 120.713 85.2881C120.257 85.3896 119.829 85.5839 119.455 85.8584C119.081 86.1328 118.769 86.4814 118.54 86.8817C118.022 87.806 117.72 88.8331 117.659 89.8872C117.469 92.1722 117.848 94.4683 118.762 96.577C119.676 98.6857 121.099 100.544 122.906 101.99C123.033 102.001 123.157 102.036 123.27 102.095C123.382 102.154 123.482 102.235 123.562 102.333L123.931 102.757C124.095 102.941 124.186 103.177 124.186 103.422C124.186 103.667 124.095 103.904 123.931 104.088C123.817 104.201 123.678 104.287 123.525 104.339C123.373 104.392 123.21 104.409 123.049 104.391Z" fill="#231F20"/>
<path d="M140.452 86.7525C141.006 86.744 141.438 85.6173 141.416 84.236C141.394 82.8548 140.927 81.742 140.372 81.7506C139.817 81.7592 139.386 82.8858 139.408 84.2671C139.43 85.6483 139.897 86.7611 140.452 86.7525Z" fill="#231F20"/>
<path d="M71.5822 257.514C71.3464 257.519 71.1178 257.433 70.9454 257.275C70.773 257.117 70.6705 256.898 70.6599 256.666C68.8767 233.086 72.443 169.928 72.484 169.303C72.4892 169.182 72.519 169.063 72.5715 168.954C72.6241 168.844 72.6984 168.746 72.7901 168.665C72.8818 168.584 72.989 168.522 73.1054 168.483C73.2218 168.444 73.345 168.427 73.4678 168.436C73.7161 168.456 73.9466 168.571 74.111 168.755C74.2753 168.939 74.3607 169.179 74.3492 169.424C74.3492 170.049 70.7418 233.066 72.525 256.525C72.542 256.768 72.4613 257.008 72.3003 257.193C72.1392 257.378 71.9108 257.493 71.6642 257.514H71.5822Z" fill="#231F20"/>
<path d="M80.2113 259.511C79.9877 259.478 79.7835 259.367 79.6359 259.199C79.4883 259.03 79.4071 258.815 79.4071 258.593C79.4071 258.37 79.4883 258.155 79.6359 257.987C79.7835 257.818 79.9877 257.708 80.2113 257.675L162.198 253.641C162.323 253.632 162.447 253.649 162.565 253.69C162.683 253.731 162.791 253.794 162.883 253.877C162.975 253.96 163.049 254.061 163.1 254.173C163.152 254.284 163.179 254.405 163.182 254.528C163.188 254.773 163.097 255.01 162.929 255.191C162.761 255.371 162.528 255.481 162.28 255.496L80.2933 259.531L80.2113 259.511Z" fill="#231F20"/>
</svg>
