<svg width="806" height="489" viewBox="0 0 806 489" fill="none" xmlns="http://www.w3.org/2000/svg">
<g clip-path="url(#clip0_10_315)">
<path d="M793.433 1.35145e-08H233.019C230.884 0.00194113 228.837 0.850774 227.328 2.36017C225.819 3.86957 224.97 5.91618 224.968 8.05075V387.803C224.97 389.938 225.819 391.984 227.328 393.494C228.837 395.003 230.884 395.852 233.019 395.854H793.433C794.597 395.854 795.747 395.602 796.804 395.114C797.861 394.626 798.8 393.915 799.555 393.029C799.619 392.959 799.677 392.885 799.73 392.807C800.211 392.22 800.6 391.563 800.884 390.859C801.289 389.891 801.496 388.852 801.493 387.803V8.05078C801.491 5.91469 800.641 3.86691 799.129 2.35733C797.618 0.847749 795.569 -0.0001236 793.433 1.35145e-08ZM799.195 387.803C799.195 388.927 798.865 390.025 798.243 390.961C797.691 391.785 796.943 392.457 796.065 392.918C795.251 393.338 794.349 393.557 793.433 393.555H233.019C231.494 393.553 230.032 392.947 228.953 391.868C227.875 390.79 227.269 389.328 227.267 387.803V8.05078C227.269 6.52586 227.875 5.06393 228.953 3.98564C230.032 2.90736 231.494 2.30077 233.019 2.29892H793.433C794.96 2.29872 796.424 2.90436 797.504 3.98281C798.584 5.06127 799.192 6.52436 799.195 8.05078V387.803Z" fill="#3F3D56"/>
<path d="M800.339 32.267H226.115V34.5685H800.339V32.267Z" fill="#3F3D56"/>
<path d="M245.678 24.1657C249.491 24.1657 252.583 21.0744 252.583 17.2612C252.583 13.4479 249.491 10.3567 245.678 10.3567C241.865 10.3567 238.774 13.4479 238.774 17.2612C238.774 21.0744 241.865 24.1657 245.678 24.1657Z" fill="#3F3D56"/>
<path d="M265.528 24.1657C269.342 24.1657 272.433 21.0744 272.433 17.2612C272.433 13.4479 269.342 10.3567 265.528 10.3567C261.715 10.3567 258.624 13.4479 258.624 17.2612C258.624 21.0744 261.715 24.1657 265.528 24.1657Z" fill="#3F3D56"/>
<path d="M285.379 24.1657C289.192 24.1657 292.283 21.0744 292.283 17.2612C292.283 13.4479 289.192 10.3567 285.379 10.3567C281.566 10.3567 278.474 13.4479 278.474 17.2612C278.474 21.0744 281.566 24.1657 285.379 24.1657Z" fill="#3F3D56"/>
<path d="M732.245 199.119H284.467C280.306 199.115 276.317 197.459 273.374 194.517C270.432 191.575 268.777 187.585 268.772 183.424V88.3289C268.777 84.1676 270.432 80.1782 273.374 77.2358C276.317 74.2934 280.306 72.6382 284.467 72.6335H732.245C736.406 72.6382 740.396 74.2934 743.338 77.2358C746.281 80.1782 747.936 84.1676 747.94 88.3289V183.424C747.936 187.585 746.281 191.575 743.338 194.517C740.396 197.459 736.406 199.115 732.245 199.119ZM284.467 74.4801C280.796 74.4842 277.276 75.9446 274.679 78.5409C272.083 81.1371 270.623 84.6572 270.619 88.3289V183.424C270.623 187.096 272.083 190.616 274.679 193.212C277.276 195.808 280.796 197.269 284.467 197.273H732.245C735.917 197.269 739.437 195.808 742.033 193.212C744.629 190.616 746.09 187.096 746.094 183.424V88.3289C746.09 84.6572 744.629 81.1371 742.033 78.5409C739.437 75.9446 735.917 74.4842 732.245 74.4801H284.467Z" fill="#F2F2F2"/>
<path d="M383.255 370.844H284.467C280.306 370.84 276.317 369.185 273.374 366.242C270.432 363.3 268.777 359.31 268.772 355.149V284.982C268.777 280.821 270.432 276.831 273.374 273.889C276.317 270.946 280.306 269.291 284.467 269.286H383.255C387.417 269.291 391.406 270.946 394.349 273.889C397.291 276.831 398.946 280.821 398.951 284.982V355.149C398.946 359.31 397.291 363.3 394.349 366.242C391.406 369.185 387.417 370.84 383.255 370.844ZM284.467 271.133C280.796 271.137 277.276 272.598 274.679 275.194C272.083 277.79 270.623 281.31 270.619 284.982V355.149C270.623 358.821 272.083 362.341 274.679 364.937C277.276 367.533 280.796 368.994 284.467 368.998H383.255C386.927 368.994 390.447 367.533 393.043 364.937C395.64 362.341 397.1 358.821 397.104 355.149V284.982C397.1 281.31 395.64 277.79 393.043 275.194C390.447 272.598 386.927 271.137 383.255 271.133H284.467Z" fill="#F2F2F2"/>
<path d="M732.245 370.844H633.457C629.296 370.84 625.306 369.185 622.364 366.242C619.422 363.3 617.767 359.31 617.762 355.149V284.982C617.767 280.821 619.422 276.831 622.364 273.889C625.306 270.946 629.296 269.291 633.457 269.286H732.245C736.406 269.291 740.396 270.946 743.338 273.889C746.281 276.831 747.936 280.821 747.94 284.982V355.149C747.936 359.31 746.281 363.3 743.338 366.242C740.396 369.185 736.406 370.84 732.245 370.844ZM633.457 271.133C629.785 271.137 626.265 272.598 623.669 275.194C621.073 277.79 619.613 281.31 619.608 284.982V355.149C619.613 358.821 621.073 362.341 623.669 364.937C626.265 367.533 629.785 368.994 633.457 368.998H732.245C735.917 368.994 739.437 367.533 742.033 364.937C744.629 362.341 746.09 358.821 746.094 355.149V284.982C746.09 281.31 744.629 277.79 742.033 275.194C739.437 272.598 735.917 271.137 732.245 271.133H633.457Z" fill="#F2F2F2"/>
<path d="M565.136 370.844H466.348C462.187 370.84 458.198 369.185 455.255 366.242C452.313 363.3 450.658 359.31 450.653 355.149V284.982C450.658 280.821 452.313 276.831 455.255 273.889C458.198 270.946 462.187 269.291 466.348 269.286H565.136C569.298 269.291 573.287 270.946 576.229 273.889C579.172 276.831 580.827 280.821 580.832 284.982V355.149C580.827 359.31 579.172 363.3 576.229 366.242C573.287 369.185 569.298 370.84 565.136 370.844ZM466.348 271.133C462.677 271.137 459.157 272.598 456.56 275.194C453.964 277.79 452.504 281.31 452.499 284.982V355.149C452.504 358.821 453.964 362.341 456.56 364.937C459.157 367.533 462.677 368.994 466.348 368.998H565.136C568.808 368.994 572.328 367.533 574.924 364.937C577.521 362.341 578.981 358.821 578.985 355.149V284.982C578.981 281.31 577.521 277.79 574.924 275.194C572.328 272.598 568.808 271.137 565.136 271.133H466.348Z" fill="#F2F2F2"/>
<path d="M274.266 76.9635L273.827 78.7568L746.798 194.476L747.236 192.683L274.266 76.9635Z" fill="#F2F2F2"/>
<path d="M742.437 76.935L273.832 193.026L274.276 194.818L742.881 78.7274L742.437 76.935Z" fill="#F2F2F2"/>
<path d="M750.71 230.971H302.933C298.894 230.967 295.022 229.36 292.166 226.504C289.31 223.648 287.703 219.776 287.699 215.738V120.642C287.703 116.604 289.31 112.732 292.166 109.876C295.022 107.02 298.894 105.413 302.933 105.409H750.71C754.749 105.413 758.621 107.02 761.477 109.876C764.333 112.732 765.939 116.604 765.944 120.642V215.738C765.939 219.776 764.333 223.648 761.477 226.504C758.621 229.36 754.749 230.967 750.71 230.971Z" fill="white"/>
<path d="M456.845 273.455L455.709 274.911L574.039 367.217L575.174 365.761L456.845 273.455Z" fill="#F2F2F2"/>
<path d="M574.63 273.456L457.853 366.899L459.007 368.341L575.783 274.898L574.63 273.456Z" fill="#F2F2F2"/>
<path d="M274.963 273.456L273.828 274.912L392.157 367.217L393.293 365.761L274.963 273.456Z" fill="#F2F2F2"/>
<path d="M392.749 273.456L275.972 366.899L277.126 368.341L393.902 274.898L392.749 273.456Z" fill="#F2F2F2"/>
<path d="M623.955 273.455L622.819 274.911L741.148 367.216L742.284 365.76L623.955 273.455Z" fill="#F2F2F2"/>
<path d="M741.738 273.456L624.962 366.899L626.115 368.341L742.892 274.898L741.738 273.456Z" fill="#F2F2F2"/>
<path d="M578.985 437.78H480.197C476.158 437.776 472.286 436.169 469.43 433.313C466.574 430.457 464.968 426.585 464.963 422.547V352.379C464.968 348.34 466.574 344.468 469.43 341.613C472.286 338.757 476.158 337.15 480.197 337.146H578.985C583.024 337.15 586.896 338.757 589.752 341.613C592.608 344.468 594.214 348.34 594.219 352.379V422.547C594.214 426.585 592.608 430.457 589.752 433.313C586.896 436.169 583.024 437.776 578.985 437.78Z" fill="#F40000"/>
<path d="M630.582 439.165H428.389C428.145 439.165 427.91 439.068 427.737 438.895C427.564 438.722 427.466 438.487 427.466 438.242C427.466 437.997 427.564 437.762 427.737 437.589C427.91 437.416 428.145 437.319 428.389 437.319H630.582C630.827 437.319 631.062 437.416 631.235 437.589C631.408 437.762 631.505 437.997 631.505 438.242C631.505 438.487 631.408 438.722 631.235 438.895C631.062 439.068 630.827 439.165 630.582 439.165Z" fill="#CCCCCC"/>
<path d="M203.116 488.097H0.923253C0.678391 488.097 0.443557 488 0.270414 487.827C0.0972703 487.654 0 487.419 0 487.174C0 486.929 0.0972703 486.694 0.270414 486.521C0.443557 486.348 0.678391 486.251 0.923253 486.251H203.116C203.361 486.251 203.595 486.348 203.769 486.521C203.942 486.694 204.039 486.929 204.039 487.174C204.039 487.419 203.942 487.654 203.769 487.827C203.595 488 203.361 488.097 203.116 488.097Z" fill="#CCCCCC"/>
<path d="M542.473 382.385H516.622C514.663 382.385 512.784 381.607 511.399 380.222C510.014 378.837 509.236 376.958 509.236 374.999C509.236 373.04 510.014 371.161 511.399 369.776C512.784 368.391 514.663 367.613 516.622 367.613H542.473C544.432 367.613 546.311 368.391 547.696 369.776C549.081 371.161 549.859 373.04 549.859 374.999C549.859 376.958 549.081 378.837 547.696 380.222C546.311 381.607 544.432 382.385 542.473 382.385Z" fill="white"/>
<path d="M557.75 407.313H501.432C499.473 407.313 497.594 406.535 496.209 405.15C494.824 403.764 494.046 401.886 494.046 399.927C494.046 397.968 494.824 396.089 496.209 394.704C497.594 393.319 499.473 392.541 501.432 392.541H557.75C559.709 392.541 561.588 393.319 562.973 394.704C564.358 396.089 565.136 397.968 565.136 399.927C565.136 401.886 564.358 403.764 562.973 405.15C561.588 406.535 559.709 407.313 557.75 407.313Z" fill="white"/>
<path d="M398.951 384.232H300.163C296.124 384.227 292.252 382.621 289.396 379.765C286.54 376.909 284.934 373.037 284.929 368.998V298.831C284.934 294.792 286.54 290.92 289.396 288.064C292.252 285.208 296.124 283.601 300.163 283.597H398.951C402.99 283.601 406.862 285.208 409.718 288.064C412.573 290.92 414.18 294.792 414.184 298.831V368.998C414.18 373.037 412.573 376.909 409.718 379.765C406.862 382.621 402.99 384.227 398.951 384.232Z" fill="#F40000"/>
<path d="M362.439 328.836H336.588C334.629 328.836 332.75 328.058 331.365 326.673C329.98 325.288 329.202 323.409 329.202 321.45C329.202 319.491 329.98 317.613 331.365 316.228C332.75 314.842 334.629 314.064 336.588 314.064H362.439C364.398 314.064 366.276 314.842 367.661 316.228C369.046 317.613 369.825 319.491 369.825 321.45C369.825 323.409 369.046 325.288 367.661 326.673C366.276 328.058 364.398 328.836 362.439 328.836Z" fill="white"/>
<path d="M377.716 353.764H321.398C319.439 353.764 317.56 352.986 316.175 351.601C314.79 350.216 314.011 348.337 314.011 346.378C314.011 344.419 314.79 342.541 316.175 341.155C317.56 339.77 319.439 338.992 321.398 338.992H377.716C379.675 338.992 381.554 339.77 382.939 341.155C384.324 342.541 385.102 344.419 385.102 346.378C385.102 348.337 384.324 350.216 382.939 351.601C381.554 352.986 379.675 353.764 377.716 353.764Z" fill="white"/>
<path d="M753.48 411.006H654.692C650.653 411.001 646.781 409.395 643.925 406.539C641.069 403.683 639.463 399.811 639.458 395.772V325.605C639.463 321.566 641.069 317.694 643.925 314.838C646.781 311.982 650.653 310.376 654.692 310.371H753.48C757.519 310.376 761.391 311.982 764.247 314.838C767.103 317.694 768.709 321.566 768.714 325.605V395.772C768.709 399.811 767.103 403.683 764.247 406.539C761.391 409.395 757.519 411.001 753.48 411.006Z" fill="#E6E6E6"/>
<path d="M716.968 355.611H691.117C689.158 355.611 687.279 354.832 685.894 353.447C684.509 352.062 683.731 350.184 683.731 348.225C683.731 346.266 684.509 344.387 685.894 343.002C687.279 341.617 689.158 340.839 691.117 340.839H716.968C718.927 340.839 720.805 341.617 722.191 343.002C723.576 344.387 724.354 346.266 724.354 348.225C724.354 350.184 723.576 352.062 722.191 353.447C720.805 354.832 718.927 355.611 716.968 355.611Z" fill="white"/>
<path d="M732.245 380.539H675.927C673.968 380.539 672.089 379.76 670.704 378.375C669.319 376.99 668.541 375.111 668.541 373.152C668.541 371.194 669.319 369.315 670.704 367.93C672.089 366.545 673.968 365.766 675.927 365.766H732.245C734.204 365.766 736.083 366.545 737.468 367.93C738.853 369.315 739.631 371.194 739.631 373.152C739.631 375.111 738.853 376.99 737.468 378.375C736.083 379.76 734.204 380.539 732.245 380.539Z" fill="white"/>
<path d="M278.218 320.007V308.688L234.559 303.302L234.56 320.009L278.218 320.007Z" fill="#FFB6B6"/>
<path d="M288.727 286.858L288.729 322.432L274.984 322.432L274.983 300.603C274.983 296.958 276.431 293.462 279.008 290.884C281.586 288.306 285.082 286.858 288.727 286.858Z" fill="#2F2E41"/>
<path d="M83.7898 475.404L95.1089 475.403L100.493 431.745L83.788 431.746L83.7898 475.404Z" fill="#FFB6B6"/>
<path d="M116.939 485.913L81.365 485.915L81.3644 472.17L103.194 472.169C106.839 472.169 110.335 473.617 112.913 476.194C115.49 478.772 116.938 482.268 116.939 485.913Z" fill="#2F2E41"/>
<path d="M97.7879 459.671C97.6533 459.671 97.5174 459.665 97.3808 459.653L81.9646 458.37C81.3255 458.317 80.7038 458.135 80.1371 457.835C79.5703 457.535 79.0702 457.123 78.667 456.624C78.2638 456.126 77.9659 455.551 77.7912 454.934C77.6165 454.317 77.5686 453.671 77.6506 453.035L85.6511 390.809C85.682 390.567 85.6821 390.322 85.6515 390.08L72.9428 289.787C72.8589 289.125 72.9159 288.452 73.11 287.813C73.3041 287.173 73.6308 286.582 74.069 286.078C74.5071 285.574 75.0468 285.168 75.6526 284.887C76.2584 284.605 76.9168 284.455 77.5847 284.445L122.541 283.808C122.77 283.807 122.999 283.82 123.226 283.848L123.349 283.882L131.996 287.624L257.708 301.47C258.851 301.621 259.9 302.181 260.661 303.047C261.423 303.913 261.844 305.025 261.848 306.178V322.364C261.847 323.033 261.706 323.695 261.432 324.306C261.158 324.917 260.758 325.463 260.258 325.908C259.758 326.354 259.169 326.688 258.531 326.89C257.892 327.092 257.218 327.156 256.553 327.079L183.928 318.614C183.561 318.569 183.189 318.598 182.832 318.698L125.402 334.526C124.878 334.671 124.407 334.961 124.041 335.363C123.676 335.765 123.432 336.262 123.336 336.797L102.452 455.746C102.262 456.845 101.69 457.841 100.836 458.56C99.9829 459.278 98.9033 459.672 97.7879 459.671Z" fill="#2F2E41"/>
<path d="M94.104 192.941C111.22 192.941 125.094 179.066 125.094 161.95C125.094 144.835 111.22 130.96 94.104 130.96C76.9885 130.96 63.1137 144.835 63.1137 161.95C63.1137 179.066 76.9885 192.941 94.104 192.941Z" fill="#2F2E41"/>
<path d="M83.2632 142.157C90.3454 142.157 96.0867 136.416 96.0867 129.333C96.0867 122.251 90.3454 116.51 83.2632 116.51C76.1809 116.51 70.4396 122.251 70.4396 129.333C70.4396 136.416 76.1809 142.157 83.2632 142.157Z" fill="#2F2E41"/>
<path d="M66.165 122.387C66.1652 119.218 67.3392 116.16 69.4606 113.805C71.5819 111.45 74.5004 109.964 77.6528 109.633C77.2091 109.587 76.7632 109.564 76.3171 109.564C72.9179 109.567 69.659 110.919 67.2565 113.324C64.8539 115.728 63.5044 118.988 63.5044 122.387C63.5044 125.786 64.8539 129.047 67.2565 131.451C69.659 133.856 72.9179 135.208 76.3171 135.211C76.7632 135.211 77.2091 135.188 77.6528 135.142C74.5004 134.811 71.5819 133.325 69.4606 130.97C67.3392 128.614 66.1652 125.557 66.165 122.387Z" fill="#2F2E41"/>
<path d="M97.7547 301.296C90.0565 301.296 81.4935 299.164 72.579 293.221L72.428 293.12L72.386 292.944C72.3031 292.596 64.1013 257.881 63.9397 230.994C63.89 226.273 64.9702 221.608 67.0901 217.389C69.21 213.17 72.3082 209.519 76.1261 206.741C79.7958 203.993 84.0698 202.162 88.5913 201.401C93.1129 200.641 97.7506 200.974 102.117 202.371C102.694 202.554 103.273 202.751 103.853 202.96C109.907 205.22 115.052 209.404 118.499 214.87C121.946 220.336 123.505 226.782 122.936 233.219C121.767 247.426 121.298 273.3 131.297 286.971L131.531 287.291L131.25 287.57C131.057 287.762 117.152 301.296 97.7547 301.296Z" fill="#CCCCCC"/>
<path d="M94.0155 194.49C106.539 194.49 116.692 184.338 116.692 171.814C116.692 159.291 106.539 149.138 94.0155 149.138C81.4919 149.138 71.3395 159.291 71.3395 171.814C71.3395 184.338 81.4919 194.49 94.0155 194.49Z" fill="#FFB6B6"/>
<path d="M66.2398 170.318C66.5652 171.635 66.5978 173.008 66.3352 174.34C66.0726 175.672 65.5212 176.929 64.7199 178.025C63.9185 179.12 62.8868 180.027 61.6973 180.68C60.5077 181.334 59.1894 181.719 57.835 181.808L49.0855 213.619L37.7884 200.723L47.8291 172.492C47.8305 170.206 48.6701 168.001 50.1888 166.294C51.7074 164.586 53.7996 163.495 56.0689 163.227C58.3383 162.959 60.627 163.533 62.5016 164.84C64.3761 166.147 65.7062 168.096 66.2398 170.318Z" fill="#FFB6B6"/>
<path d="M31.8447 240.412C30.4402 240.407 29.0573 240.065 27.8121 239.415C26.5669 238.765 25.4955 237.827 24.6879 236.677C23.8802 235.528 23.3597 234.202 23.17 232.811C22.9803 231.419 23.127 230.002 23.5976 228.679L40.2311 181.943C40.6256 180.853 41.4125 179.949 42.4378 179.409C43.4632 178.868 44.6533 178.73 45.7753 179.02L57.8969 182.229C58.5207 182.395 59.1032 182.688 59.6067 183.092C60.1103 183.496 60.5239 184 60.821 184.573C61.1181 185.146 61.2921 185.775 61.3318 186.419C61.3715 187.063 61.2761 187.708 61.0516 188.313L50.3616 217.128L68.494 211.361C70.0453 210.867 71.682 210.7 73.301 210.87C74.92 211.041 76.4862 211.544 77.901 212.35C79.3158 213.155 80.5485 214.244 81.5215 215.549C82.4945 216.855 83.1867 218.347 83.5546 219.933C83.9224 221.519 83.9578 223.164 83.6587 224.764C83.3595 226.364 82.7323 227.885 81.8164 229.231C80.9006 230.577 79.716 231.718 78.3372 232.584C76.9584 233.449 75.4153 234.02 73.8052 234.26L33.1676 240.313C32.7297 240.379 32.2875 240.412 31.8447 240.412Z" fill="#CCCCCC"/>
<path d="M97.7091 168.203C109.513 168.203 119.082 162.462 119.082 155.38C119.082 148.297 109.513 142.556 97.7091 142.556C85.9053 142.556 76.3364 148.297 76.3364 155.38C76.3364 162.462 85.9053 168.203 97.7091 168.203Z" fill="#2F2E41"/>
<path d="M162.768 308.834C161.458 308.478 160.243 307.839 159.207 306.962C158.171 306.085 157.34 304.992 156.772 303.759C156.204 302.526 155.914 301.184 155.921 299.826C155.928 298.469 156.233 297.13 156.814 295.903L133.269 272.791L150.031 269.189L169.819 291.689C171.816 292.801 173.334 294.607 174.088 296.764C174.842 298.921 174.778 301.28 173.909 303.394C173.04 305.507 171.426 307.228 169.372 308.231C167.319 309.234 164.969 309.448 162.768 308.834Z" fill="#FFB6B6"/>
<path d="M151.9 296.259C151.269 296.261 150.646 296.123 150.075 295.855C149.505 295.588 149 295.197 148.598 294.711L122.896 263.529L102.78 224.895C102.15 222.954 101.995 220.89 102.327 218.876C102.659 216.862 103.469 214.956 104.689 213.32C105.858 211.729 107.395 210.445 109.167 209.575C110.939 208.706 112.895 208.277 114.869 208.325C115.866 208.346 116.86 208.459 117.836 208.665C119.833 209.113 121.687 210.054 123.228 211.4C124.77 212.747 125.95 214.457 126.663 216.376L143.704 256.411L164.127 282.174C164.824 283.058 165.145 284.181 165.02 285.299C164.896 286.418 164.336 287.443 163.461 288.152L154.574 295.319C153.817 295.929 152.873 296.261 151.9 296.259Z" fill="#CCCCCC"/>
<path d="M805.077 412.391H602.884C602.639 412.391 602.405 412.293 602.231 412.12C602.058 411.947 601.961 411.712 601.961 411.467C601.961 411.223 602.058 410.988 602.231 410.815C602.405 410.641 602.639 410.544 602.884 410.544H805.077C805.322 410.544 805.556 410.641 805.73 410.815C805.903 410.988 806 411.223 806 411.467C806 411.712 805.903 411.947 805.73 412.12C805.556 412.293 805.322 412.391 805.077 412.391Z" fill="#CCCCCC"/>
<path d="M627.244 229.342V230.51H429.944V229.288L431.006 227.785L493.557 139.479C493.846 139.077 494.227 138.751 494.668 138.525C495.108 138.3 495.596 138.182 496.091 138.182C496.586 138.182 497.074 138.3 497.514 138.525C497.955 138.751 498.336 139.077 498.625 139.479L540.569 198.694L570.427 156.912C570.716 156.513 571.097 156.188 571.536 155.963C571.976 155.739 572.463 155.622 572.956 155.622C573.45 155.622 573.936 155.739 574.376 155.963C574.816 156.188 575.196 156.513 575.486 156.912L626.182 227.849L627.244 229.342Z" fill="#F40000"/>
<path d="M429.535 170.588C442.218 170.588 452.499 160.307 452.499 147.624C452.499 134.941 442.218 124.659 429.535 124.659C416.852 124.659 406.571 134.941 406.571 147.624C406.571 160.307 416.852 170.588 429.535 170.588Z" fill="#F40000"/>
<path d="M750.71 231.433H302.932C298.771 231.428 294.782 229.773 291.839 226.831C288.897 223.888 287.242 219.899 287.237 215.738V120.643C287.242 116.481 288.897 112.492 291.839 109.55C294.782 106.607 298.771 104.952 302.932 104.947H750.71C754.871 104.952 758.861 106.607 761.803 109.55C764.746 112.492 766.401 116.481 766.406 120.643V215.738C766.401 219.899 764.746 223.888 761.803 226.831C758.861 229.773 754.871 231.428 750.71 231.433ZM302.932 106.794C299.261 106.798 295.741 108.258 293.144 110.855C290.548 113.451 289.088 116.971 289.084 120.643V215.738C289.088 219.409 290.548 222.93 293.144 225.526C295.741 228.122 299.261 229.582 302.932 229.587H750.71C754.382 229.582 757.902 228.122 760.498 225.526C763.095 222.93 764.555 219.409 764.559 215.738V120.643C764.555 116.971 763.095 113.451 760.498 110.855C757.902 108.258 754.382 106.798 750.71 106.794H302.932Z" fill="#3F3D56"/>
</g>
<defs>
<clipPath id="clip0_10_315">
<rect width="806" height="488.097" fill="white"/>
</clipPath>
</defs>
</svg>
