<svg width="680" height="350" viewBox="0 0 680 350" fill="none" xmlns="http://www.w3.org/2000/svg">
<g clip-path="url(#clip0_39_190)">
<path d="M494.537 216.149C494.108 216.169 493.684 216.056 493.322 215.827C492.959 215.597 492.676 215.262 492.511 214.866C492.345 214.47 492.306 214.033 492.397 213.614C492.488 213.195 492.706 212.814 493.021 212.522L493.164 211.953C493.145 211.907 493.126 211.861 493.107 211.816C492.676 210.796 491.952 209.927 491.028 209.317C490.104 208.707 489.021 208.384 487.914 208.388C486.807 208.392 485.725 208.723 484.806 209.34C483.886 209.957 483.17 210.831 482.746 211.854C481.051 215.937 478.893 220.026 478.362 224.343C478.128 226.251 478.227 228.185 478.654 230.06C474.674 221.375 472.607 211.936 472.593 202.382C472.593 199.984 472.726 197.589 472.992 195.206C473.213 193.253 473.518 191.313 473.909 189.388C476.042 178.941 480.623 169.149 487.274 160.817C490.493 159.06 493.097 156.358 494.734 153.075C495.327 151.895 495.746 150.636 495.978 149.336C495.615 149.383 494.609 143.851 494.883 143.512C494.377 142.744 493.471 142.362 492.918 141.612C490.169 137.884 486.382 138.535 484.405 143.601C480.181 145.733 480.14 149.269 482.732 152.67C484.381 154.834 484.607 157.762 486.054 160.078C485.905 160.269 485.75 160.453 485.601 160.644C482.881 164.143 480.509 167.901 478.522 171.863C479.005 167.424 478.428 162.934 476.838 158.762C475.227 154.874 472.207 151.599 469.547 148.238C466.352 144.2 459.801 145.962 459.238 151.081C459.233 151.13 459.228 151.18 459.222 151.229C459.617 151.452 460.004 151.689 460.382 151.939C460.858 152.257 461.226 152.711 461.439 153.241C461.652 153.772 461.7 154.354 461.576 154.913C461.453 155.471 461.163 155.979 460.746 156.37C460.329 156.761 459.804 157.017 459.239 157.104L459.181 157.113C459.321 158.537 459.57 159.948 459.925 161.335C456.513 174.533 463.879 179.341 474.397 179.557C474.629 179.676 474.856 179.795 475.088 179.908C473.091 185.569 471.838 191.466 471.361 197.451C471.091 200.982 471.107 204.528 471.409 208.057L471.391 207.932C470.629 204.008 468.537 200.468 465.467 197.909C460.909 194.164 454.469 192.785 449.551 189.774C449.028 189.438 448.42 189.259 447.799 189.257C447.178 189.256 446.57 189.432 446.045 189.765C445.521 190.098 445.103 190.574 444.84 191.137C444.578 191.7 444.482 192.327 444.563 192.943C444.57 192.986 444.576 193.03 444.583 193.074C445.316 193.373 446.03 193.717 446.72 194.104C447.116 194.327 447.502 194.564 447.881 194.814C448.356 195.132 448.724 195.586 448.937 196.116C449.15 196.647 449.198 197.23 449.074 197.788C448.951 198.346 448.661 198.854 448.244 199.245C447.827 199.636 447.302 199.892 446.737 199.979L446.679 199.988C446.637 199.994 446.601 200 446.56 200.006C447.812 202.997 449.57 205.751 451.757 208.146C453.89 219.668 463.054 220.761 472.855 217.406H472.861C473.937 222.08 475.495 226.63 477.511 230.983H494.121C494.18 230.798 494.234 230.608 494.287 230.423C492.75 230.52 491.206 230.428 489.691 230.149C490.924 228.637 492.156 227.112 493.388 225.6C493.416 225.571 493.442 225.541 493.466 225.51C494.091 224.736 494.722 223.968 495.347 223.194L495.347 223.193C495.381 220.82 495.108 218.453 494.537 216.149L494.537 216.149Z" fill="#F2F2F2"/>
<path d="M544.28 259.201H414.826C406.008 259.201 397.551 262.705 391.316 268.942C385.08 275.179 381.577 283.638 381.577 292.459V347.887H392.008V317.302C392.008 308.481 395.511 300.022 401.747 293.785C407.982 287.548 416.439 284.044 425.257 284.044H533.849C542.668 284.044 551.125 287.548 557.36 293.785C563.596 300.022 567.099 308.481 567.099 317.302V347.887H577.53V292.459C577.53 283.638 574.027 275.179 567.791 268.942C561.556 262.705 553.099 259.201 544.28 259.201Z" fill="#F2F2F2"/>
<path d="M480.299 273.361C499.021 273.361 514.199 271.192 514.199 268.517C514.199 265.841 499.021 263.672 480.299 263.672C461.576 263.672 446.398 265.841 446.398 268.517C446.398 271.192 461.576 273.361 480.299 273.361Z" fill="#E6E6E6"/>
<path d="M505.926 269.731H460.772C449.625 259.046 441.655 248.748 448.036 240.199C448.036 237.742 449.012 235.386 450.749 233.648C452.486 231.911 454.842 230.935 457.299 230.935H509.4C511.856 230.935 514.212 231.911 515.949 233.648C517.686 235.386 518.662 237.742 518.662 240.199C521.091 249.94 516.751 259.785 505.926 269.731Z" fill="#F2F2F2"/>
<path d="M356.213 110.098C302.339 79.5275 322.952 0.805613 263.772 25.8835C186.924 7.57799 230.605 84.0391 162.389 110.098C159.265 110.098 156.172 110.714 153.286 111.91C150.399 113.106 147.777 114.858 145.568 117.068C143.359 119.278 141.607 121.901 140.411 124.788C139.216 127.675 138.6 130.769 138.6 133.894V133.894C138.6 137.089 139.244 140.252 140.492 143.193C141.74 146.134 143.568 148.793 145.866 151.013C148.164 153.232 150.886 154.966 153.868 156.11C156.851 157.255 160.033 157.787 163.225 157.674L172.128 157.361V232.322H346.474V157.361L355.377 157.674C358.569 157.787 361.752 157.255 364.734 156.11C367.716 154.966 370.438 153.232 372.736 151.013C375.034 148.793 376.862 146.134 378.11 143.193C379.359 140.252 380.002 137.089 380.002 133.894V133.894C380.002 130.769 379.387 127.675 378.191 124.788C376.996 121.901 375.243 119.278 373.034 117.068C370.825 114.858 368.203 113.106 365.317 111.91C362.43 110.714 359.337 110.098 356.213 110.098Z" fill="#E6E6E6"/>
<path d="M339.581 267.349H176.786C174.958 267.349 173.205 268.076 171.912 269.369C170.619 270.662 169.893 272.416 169.893 274.245V284.303C169.893 286.131 170.619 287.885 171.912 289.178C173.205 290.471 174.958 291.198 176.786 291.198H189.265V349.329H198.206V291.198H314.436V349.329H323.377V291.198H339.581C341.409 291.198 343.162 290.471 344.455 289.178C345.748 287.885 346.474 286.131 346.474 284.303V274.245C346.474 272.416 345.748 270.662 344.455 269.369C343.162 268.076 341.409 267.349 339.581 267.349Z" fill="#E6E6E6"/>
<path d="M373.109 250.954H368.118C369.561 248.463 370.319 245.634 370.316 242.756V147.362C370.316 143.013 368.589 138.843 365.515 135.768C362.441 132.693 358.272 130.966 353.924 130.966C349.577 130.966 345.408 132.693 342.334 135.768C339.26 138.843 337.533 143.013 337.533 147.362V226.207C214.825 208.967 294.792 209.141 184.049 226.755V147.362C184.049 143.013 182.322 138.843 179.248 135.768C176.174 132.693 172.005 130.966 167.658 130.966C163.311 130.966 159.141 132.693 156.067 135.768C152.993 138.843 151.266 143.013 151.266 147.362V242.756C151.263 245.634 152.022 248.463 153.465 250.954H143.258C141.43 250.954 139.677 251.68 138.384 252.973C137.091 254.266 136.365 256.02 136.365 257.849V267.907C136.365 269.736 137.091 271.489 138.384 272.782C139.677 274.076 141.43 274.802 143.258 274.802H373.109C374.937 274.802 376.69 274.076 377.983 272.782C379.276 271.489 380.002 269.736 380.002 267.907V257.849C380.002 256.02 379.276 254.266 377.983 252.973C376.69 251.68 374.937 250.954 373.109 250.954Z" fill="#F2F2F2"/>
<path d="M141.617 153.529C144.512 153.793 147.396 152.917 149.656 151.086C151.915 149.256 153.371 146.615 153.714 143.727C153.775 143.139 153.787 142.547 153.749 141.957L222.006 108.178L205.424 88.3584L141.379 132.041C138.945 132.385 136.693 133.525 134.975 135.283C133.257 137.042 132.169 139.32 131.881 141.762C131.577 144.571 132.401 147.387 134.172 149.588C135.944 151.79 138.517 153.197 141.325 153.501C141.422 153.512 141.519 153.521 141.617 153.529Z" fill="#FFB6B6"/>
<path d="M291.603 92.2277C291.603 92.2277 298.231 79.0721 277.534 74.2985C256.837 69.5248 218.626 85.5993 216.682 87.4354C214.737 89.2715 217.263 86.7776 211.114 85.8213C208.161 85.3622 202.268 80.3655 201.057 84.5701C199.847 88.7747 200.182 93.8241 196.64 89.7366C193.099 85.6492 207.054 124.685 207.054 124.685C207.054 124.685 208.855 124.395 215.239 121.01C218.824 119.108 218.862 111.213 221.261 113.422C223.66 115.63 244.988 115.255 246.187 114.964C247.385 114.673 252.759 104.776 252.759 104.776L291.603 92.2277Z" fill="#2F2E41"/>
<path d="M180.687 337.039L169.324 334.67L173.051 289.701L189.823 293.198L180.687 337.039Z" fill="#FFB6B6"/>
<path d="M178.617 348.98L143.673 341.695L143.765 341.253C144.517 337.645 146.671 334.483 149.753 332.464C152.835 330.444 156.593 329.732 160.2 330.484L160.201 330.484L167.593 326.97L178.493 334.297L181.544 334.933L178.617 348.98Z" fill="#2F2E41"/>
<path d="M376.337 284.918L387.647 282.305L382.953 237.427L366.261 241.283L376.337 284.918Z" fill="#FFB6B6"/>
<path d="M378.663 296.812L413.443 288.777L413.341 288.337C412.512 284.746 410.29 281.632 407.165 279.679C404.041 277.726 400.268 277.094 396.678 277.923L396.677 277.924L389.211 274.57L378.471 282.13L375.435 282.831L378.663 296.812Z" fill="#2F2E41"/>
<path d="M242.91 181.644L240.959 203.716C240.959 203.716 177.615 183.368 176.844 231.233C176.599 246.482 169.893 305.358 169.893 305.358L189.265 308.339C189.265 308.339 199.696 292.688 199.696 287.472C199.696 282.255 210.127 244.246 210.127 244.246L264.492 238.898C321.887 235.303 339.768 233.813 352.434 192.823C352.434 192.823 360.157 247.665 364.491 251.918C368.826 256.17 372.035 251.943 366.705 257.41C361.375 262.878 357.65 260.642 361.375 262.878C365.1 265.114 387.452 261.387 387.452 261.387C392.444 261.947 386.043 182.036 369.314 158.453C354.386 137.409 302.88 203.538 302.88 203.538L242.91 181.644Z" fill="#2F2E41"/>
<path d="M310.028 87.754C310.028 87.754 329.391 85.5557 333.515 94.8373C337.639 104.119 348.032 123.446 348.032 123.446C348.032 123.446 342.702 125.717 348.145 119.816C350.584 117.172 346.083 118.785 349.176 117.754C352.269 116.723 353.3 117.754 353.3 117.754L363.61 135.286C363.61 135.286 362.781 139.281 357.424 139.411C352.068 139.541 360.517 134.254 353.3 141.474C349.574 145.201 336.043 150.343 336.043 150.343L301.456 118.548L310.028 87.754Z" fill="#2F2E41"/>
<path d="M248.971 78.3366L268.54 73.2642L277.675 60.6619L299.369 63.3295L303.987 80.5193L319.432 89.4865C319.432 89.4865 310.895 179.798 312.926 184.757C314.956 189.716 310.029 193.865 303.811 200.257C297.593 206.65 308.978 199.517 310.42 206.477C311.863 213.436 322.381 220.801 310.42 220.728C298.46 220.655 232.671 223.977 234.733 215.727C236.795 207.476 230.38 205.218 233.49 200.045C236.599 194.873 238.691 197.763 237.645 190.13C236.599 182.497 237.63 177.341 237.63 173.216C237.63 169.09 241.084 131.604 241.084 131.604L248.971 78.3366Z" fill="#F40000"/>
<path d="M319.277 220.883C323.009 227.545 301.986 229.505 279.211 228.608C278.771 226.92 278.042 225.322 277.056 223.884C274.541 220.233 277.582 195.534 273.912 193.038C275.572 197.06 268.86 223.791 267.458 227.906C246.858 226.256 228.083 222.513 228.31 218.057C228.372 216.758 232.671 192.007 234.754 190.13C236.826 188.253 234.733 152.818 234.754 145.217C234.764 137.606 246.074 81.6586 246.074 79.596C246.074 77.5334 272.881 67.2205 272.881 67.2205L284.222 132.192L301.461 71.0981C303.146 73.3905 305.094 75.4776 307.265 77.3168C310.719 80.1941 324.432 91.9715 324.432 91.9715L312.688 178.889C312.688 178.889 318.246 192.007 317.957 197.215C317.845 201.347 317.033 205.431 315.555 209.291C313.884 214.19 314.06 211.56 319.277 220.883Z" fill="#2F2E41"/>
<path d="M337.723 41.2866C339.871 43.2463 341.17 45.9672 341.343 48.8704C341.517 51.7735 340.551 54.6298 338.651 56.8314C338.258 57.2729 337.829 57.681 337.368 58.0516L358.488 131.237L332.676 132.365L321.705 55.6076C320.317 53.5784 319.639 51.1466 319.777 48.6915C319.916 46.2365 320.863 43.8964 322.471 42.0363C323.396 40.9867 324.519 40.1297 325.775 39.5141C327.031 38.8985 328.396 38.5364 329.792 38.4485C331.189 38.3607 332.588 38.5487 333.912 39.0019C335.235 39.4552 336.456 40.1647 337.506 41.09C337.579 41.1546 337.651 41.2201 337.723 41.2866Z" fill="#FFB6B6"/>
<path d="M328.61 126.12C329.434 125.464 355.122 117.121 355.122 117.121C355.122 117.121 366.032 133.357 359.439 138.611C352.846 143.864 338.445 145.234 338.445 145.234C338.445 145.234 332.393 141.829 332.536 137.815C332.678 133.801 328.61 126.12 328.61 126.12Z" fill="#2F2E41"/>
<path d="M312.715 50.8933L315.508 30.3238C315.895 27.4716 317.843 25.5987 319.85 26.1489L324.842 27.5174C326.849 28.0677 328.167 30.836 327.78 33.6882L324.987 54.2577C324.6 57.11 322.652 58.9829 320.645 58.4327L315.653 57.0642C313.646 56.5139 312.328 53.7456 312.715 50.8933Z" fill="#3F3D56"/>
<path d="M314.099 49.6986L316.945 30.8826C317.339 28.2735 318.759 26.6175 320.11 27.1912L323.47 28.618C324.821 29.1917 325.599 31.7813 325.204 34.3904L322.358 53.2063C321.963 55.8154 320.543 57.4714 319.192 56.8977L315.833 55.4709C314.482 54.8973 313.704 52.3077 314.099 49.6986Z" fill="#F40000"/>
<path d="M261.004 30.1548C262.944 45.8179 273.795 58.7325 289.574 58.7325C293.326 58.7325 297.041 57.9933 300.507 56.5571C303.973 55.1209 307.123 53.0159 309.776 50.3623C312.429 47.7086 314.533 44.5582 315.969 41.091C317.405 37.6238 318.144 33.9076 318.144 30.1548C318.144 14.3717 305.285 3.03627 289.574 1.57706C272.903 0.0287385 258.512 10.0452 261.004 30.1548Z" fill="#2F2E41"/>
<path d="M292.732 60.4293C306.724 60.4293 318.066 49.0836 318.066 35.0878C318.066 21.0921 306.724 9.74634 292.732 9.74634C278.74 9.74634 267.397 21.0921 267.397 35.0878C267.397 49.0836 278.74 60.4293 292.732 60.4293Z" fill="#FFB6B6"/>
<path d="M266.498 37.8488C267.3 43.3555 271.992 51.0385 270.893 51.0385C269.794 51.0385 261.982 28.3375 269.794 26.8573C275.461 25.7837 276.728 26.7254 282.025 24.4282L281.277 25.1317C284.783 27.6817 289.662 26.1099 293.661 24.4502C297.672 22.8015 302.54 21.2297 306.056 23.7688C308.265 25.3625 309.199 28.1323 310.573 30.4845C311.946 32.8477 314.485 35.0789 317.1 34.3535C319.199 33.7709 320.407 31.4187 320.396 29.2425C320.385 27.0662 317.552 24.9959 318.506 23.0433C321.334 17.2569 318.791 13.3129 312.628 10.5901C310.386 10.2493 308.144 9.90127 305.903 9.54586C307.077 7.91842 308.501 6.48659 310.122 5.30319C309.287 3.59947 308.331 1.8848 306.716 0.939551C304.925 -0.12658 302.705 -0.0496912 300.628 0.0602578C295.991 0.302037 291.358 0.543833 286.728 0.785656C283.299 0.961539 279.75 1.17039 276.684 2.74216C272.86 4.7096 270.355 8.5456 268.531 12.4476C264.443 21.2188 265.091 28.2753 266.498 37.8488Z" fill="#2F2E41"/>
<path d="M3.92446e-06 348.769C-0.000343333 348.886 0.0223581 349.001 0.0667957 349.109C0.111233 349.217 0.176534 349.315 0.25894 349.397C0.341346 349.48 0.439224 349.545 0.546958 349.589C0.654691 349.634 0.770156 349.657 0.886692 349.656H679.113C679.348 349.656 679.574 349.563 679.74 349.397C679.906 349.23 680 349.005 680 348.769C680 348.534 679.906 348.309 679.74 348.142C679.574 347.976 679.348 347.883 679.113 347.883H0.886692C0.770157 347.882 0.654701 347.905 0.546969 347.949C0.439237 347.994 0.341345 348.059 0.25894 348.142C0.176535 348.224 0.111234 348.322 0.0667957 348.43C0.0223571 348.537 -0.000340366 348.653 3.92446e-06 348.769Z" fill="#CCCCCC"/>
</g>
<defs>
<clipPath id="clip0_39_190">
<rect width="680" height="349.656" fill="white"/>
</clipPath>
</defs>
</svg>
