<svg width="806" height="615" viewBox="0 0 806 615" fill="none" xmlns="http://www.w3.org/2000/svg">
<g clip-path="url(#clip0_10_253)">
<path d="M392.009 86.847C383.946 97.8918 377.743 110.181 373.647 123.229C369.992 134.617 367.263 146.282 365.487 158.109C364.618 157.767 363.762 157.399 362.92 156.991C355.177 153.234 348.938 146.962 345.221 139.2C341.504 131.438 340.53 122.646 342.457 114.258C344.384 105.871 349.098 98.385 355.83 93.0237C362.561 87.6623 370.912 84.7424 379.518 84.741C382.751 84.7358 385.972 85.1472 389.1 85.9651C390.088 86.2152 391.062 86.5048 392.009 86.847Z" fill="#FF6584"/>
<path d="M39.6678 526.454C42.2834 505.422 55.318 484.699 75.3763 477.854C67.4659 499.503 67.4676 523.251 75.3812 544.898C78.4634 553.235 82.7596 562.187 79.8604 570.59C78.0566 575.818 73.6437 579.818 68.7109 582.32C63.7779 584.821 58.3033 586.013 52.8972 587.181L51.8332 588.061C43.2511 568.682 37.0522 547.486 39.6678 526.454Z" fill="#E6E6E6"/>
<path d="M75.5754 478.252C63.8944 491.34 56.6342 507.777 54.8263 525.226C54.3704 528.975 54.5083 532.773 55.2351 536.48C56.0598 540.068 57.8301 543.369 60.3623 546.042C62.6732 548.581 65.331 550.91 66.9845 553.967C67.8076 555.544 68.2881 557.277 68.3944 559.053C68.5006 560.829 68.2303 562.607 67.6011 564.271C66.1413 568.458 63.2641 571.871 60.3343 575.111C57.0814 578.708 53.6457 582.392 52.263 587.161C52.0954 587.739 51.2086 587.445 51.3759 586.868C53.7817 578.571 61.8357 573.859 65.6766 566.386C67.4689 562.899 68.2212 558.851 66.541 555.17C65.0717 551.951 62.3329 549.547 59.9709 546.996C57.4625 544.425 55.6217 541.28 54.6093 537.834C53.6961 534.176 53.4121 530.39 53.7693 526.637C54.4387 518.175 56.4344 509.871 59.6832 502.029C63.3416 493.059 68.5074 484.78 74.9574 477.552C75.3568 477.104 75.9722 477.808 75.5754 478.252H75.5754Z" fill="white"/>
<path d="M55.0777 519.573C52.1913 518.872 49.6479 517.168 47.9018 514.765C46.1558 512.362 45.3207 509.417 45.5457 506.455C45.5933 505.856 46.5266 505.902 46.479 506.502C46.2643 509.26 47.0425 512.003 48.673 514.237C50.3035 516.471 52.6789 518.049 55.3706 518.686C55.9554 518.825 55.6592 519.711 55.0777 519.573H55.0777Z" fill="white"/>
<path d="M59.021 544.908C64.2342 541.796 68.0827 536.832 69.799 531.008C69.9686 530.431 70.8554 530.724 70.686 531.301C68.8887 537.358 64.8732 542.515 59.4411 545.743C58.9231 546.05 58.5058 545.214 59.021 544.908Z" fill="white"/>
<path d="M64.2081 493.943C65.2685 494.447 66.4373 494.68 67.6098 494.62C68.7822 494.561 69.9215 494.211 70.9254 493.602C71.4392 493.289 71.856 494.125 71.3455 494.437C70.2333 495.104 68.9745 495.489 67.6793 495.557C66.3841 495.626 65.0917 495.376 63.9152 494.83C63.8 494.788 63.7052 494.704 63.65 494.594C63.5948 494.485 63.5834 494.358 63.6181 494.241C63.6575 494.123 63.7416 494.026 63.852 493.971C63.9625 493.915 64.0904 493.905 64.208 493.943H64.2081Z" fill="white"/>
<path d="M136.517 515.42C136.202 515.625 135.887 515.83 135.571 516.043C131.347 518.821 127.355 521.937 123.635 525.362C123.343 525.622 123.052 525.89 122.768 526.158C113.894 534.503 106.647 544.424 101.395 555.414C99.3095 559.79 97.5594 564.318 96.1605 568.958C94.2288 575.368 92.6444 582.471 88.8207 587.714C88.4279 588.265 88.0014 588.792 87.5435 589.29H52.9892C52.9107 589.251 52.8317 589.219 52.7528 589.18L51.3732 589.243C51.4287 588.999 51.4914 588.746 51.5468 588.502C51.5784 588.36 51.6177 588.218 51.6492 588.076C51.6727 587.982 51.6966 587.887 51.7124 587.8C51.7201 587.769 51.7282 587.737 51.7359 587.714C51.7517 587.627 51.7755 587.548 51.7913 587.469C52.1381 586.058 52.4955 584.647 52.8634 583.236C52.8634 583.228 52.8634 583.228 52.8711 583.22C55.5714 572.44 59.541 562.019 64.6966 552.174C64.8544 551.882 65.0119 551.583 65.1855 551.291C67.5729 546.933 70.3124 542.778 73.3768 538.866C75.0616 536.73 76.8535 534.68 78.7456 532.725C83.6442 527.682 89.3055 523.442 95.5219 520.158C107.915 513.615 122.263 511.108 135.508 515.105C135.847 515.208 136.178 515.31 136.517 515.42Z" fill="#E6E6E6"/>
<path d="M136.439 515.859C119.233 519.277 103.54 528.029 91.591 540.873C88.9695 543.592 86.793 546.707 85.1417 550.104C83.64 553.466 83.0658 557.168 83.4787 560.826C83.7952 564.244 84.5148 567.705 83.9947 571.14C83.7024 572.895 83.0425 574.569 82.0581 576.05C81.0738 577.532 79.7873 578.789 78.2831 579.739C74.5966 582.203 70.2444 583.196 65.9547 584.019C61.1918 584.933 56.2301 585.806 52.2549 588.781C51.7733 589.142 51.2421 588.373 51.7231 588.013C58.6391 582.837 67.9072 583.923 75.4731 580.269C79.0035 578.564 82.0415 575.785 82.9161 571.834C83.6808 568.38 82.9418 564.811 82.5915 561.352C82.1364 557.789 82.5605 554.17 83.8269 550.809C85.3 547.338 87.3528 544.144 89.8975 541.363C95.5266 535.009 102.12 529.581 109.435 525.275C117.757 520.316 126.866 516.816 136.368 514.928C136.956 514.811 137.024 515.743 136.439 515.859H136.439Z" fill="white"/>
<path d="M95.1951 536.51C93.3124 534.213 92.3076 531.321 92.3601 528.351C92.4127 525.382 93.5192 522.527 95.4821 520.298C95.8808 519.848 96.5984 520.447 96.1991 520.897C94.3675 522.969 93.337 525.629 93.2937 528.394C93.2504 531.16 94.1971 533.85 95.963 535.979C96.3462 536.442 95.5761 536.971 95.1951 536.51Z" fill="white"/>
<path d="M83.0899 559.114C89.1265 559.767 95.1876 558.121 100.065 554.504C100.548 554.145 101.079 554.914 100.597 555.272C95.5144 559.026 89.2034 560.726 82.9231 560.033C82.3245 559.966 82.4946 559.047 83.0899 559.114Z" fill="white"/>
<path d="M117.916 521.544C118.459 522.585 119.252 523.474 120.224 524.132C121.196 524.791 122.317 525.198 123.485 525.316C124.084 525.375 123.913 526.294 123.318 526.235C122.028 526.098 120.791 525.648 119.716 524.923C118.64 524.197 117.759 523.22 117.148 522.076C117.081 521.973 117.057 521.848 117.079 521.728C117.1 521.607 117.167 521.499 117.266 521.426C117.368 521.356 117.494 521.329 117.615 521.351C117.737 521.373 117.845 521.443 117.916 521.544Z" fill="white"/>
<path d="M404.242 539.412C389.883 523.823 382.495 500.483 390.237 480.753C401.643 500.781 419.765 516.129 441.398 524.082C449.752 527.118 459.36 529.626 463.898 537.269C466.721 542.025 466.921 547.978 465.642 553.358C464.362 558.739 461.733 563.687 459.131 568.567L459.114 569.948C438.78 563.971 418.6 555.002 404.242 539.412Z" fill="#E6E6E6"/>
<path d="M390.669 480.859C393.106 498.231 400.956 514.394 413.102 527.052C415.668 529.823 418.656 532.173 421.954 534.014C425.224 535.703 428.888 536.486 432.564 536.281C435.995 536.159 439.49 535.636 442.891 536.35C444.626 536.742 446.26 537.495 447.683 538.562C449.107 539.629 450.289 540.984 451.152 542.54C453.404 546.36 454.148 550.761 454.727 555.091C455.369 559.898 455.96 564.901 458.705 569.038C459.038 569.54 458.241 570.026 457.909 569.526C453.133 562.328 454.742 553.136 451.522 545.375C450.02 541.754 447.417 538.564 443.522 537.467C440.117 536.507 436.512 537.043 433.039 537.197C429.456 537.449 425.866 536.821 422.582 535.366C419.201 533.699 416.128 531.469 413.495 528.77C407.471 522.791 402.425 515.901 398.541 508.353C394.06 499.764 391.082 490.471 389.735 480.877C389.652 480.284 390.586 480.269 390.669 480.859V480.859Z" fill="white"/>
<path d="M408.951 523.207C406.551 524.956 403.607 525.795 400.644 525.575C397.682 525.354 394.895 524.088 392.781 522.002C392.354 521.578 392.992 520.896 393.419 521.32C395.385 523.266 397.981 524.445 400.74 524.645C403.499 524.845 406.238 524.052 408.463 522.41C408.947 522.053 409.432 522.852 408.951 523.207Z" fill="white"/>
<path d="M430.832 536.573C431.826 530.583 430.526 524.438 427.191 519.364C426.861 518.862 427.658 518.375 427.988 518.877C431.449 524.163 432.789 530.56 431.74 536.791C431.64 537.385 430.732 537.163 430.832 536.573Z" fill="white"/>
<path d="M395.295 499.674C396.365 499.191 397.298 498.449 398.011 497.516C398.723 496.583 399.192 495.488 399.377 494.328C399.469 493.734 400.377 493.956 400.285 494.547C400.075 495.827 399.555 497.036 398.771 498.069C397.986 499.102 396.96 499.926 395.783 500.471C395.676 500.532 395.551 500.55 395.431 500.521C395.312 500.492 395.208 500.419 395.141 500.317C395.077 500.211 395.057 500.084 395.086 499.964C395.115 499.844 395.19 499.74 395.295 499.674Z" fill="white"/>
<path d="M458.419 458.379C458.371 458.752 458.324 459.126 458.283 459.504C457.672 464.523 457.47 469.583 457.679 474.634C457.689 475.025 457.705 475.421 457.726 475.811C458.359 487.976 461.244 499.917 466.237 511.029C468.227 515.448 470.551 519.71 473.188 523.777C476.83 529.394 481.227 535.194 482.756 541.5C482.923 542.156 483.049 542.822 483.133 543.494L460.8 569.861C460.719 569.895 460.644 569.935 460.563 569.97L459.719 571.063C459.569 570.863 459.417 570.652 459.266 570.452C459.178 570.336 459.095 570.214 459.008 570.098C458.951 570.019 458.894 569.94 458.838 569.872C458.819 569.846 458.8 569.819 458.787 569.798C458.731 569.73 458.686 569.661 458.636 569.598C457.783 568.421 456.938 567.236 456.099 566.043C456.093 566.038 456.093 566.038 456.092 566.027C449.611 556.999 444.225 547.235 440.045 536.938C439.924 536.629 439.797 536.315 439.687 535.994C437.905 531.356 436.504 526.58 435.5 521.713C434.959 519.047 434.553 516.355 434.284 513.647C433.602 506.65 434.026 499.589 435.538 492.724C438.555 479.038 445.916 466.469 457.526 458.946C457.823 458.753 458.116 458.567 458.419 458.379Z" fill="#E6E6E6"/>
<path d="M458.703 458.722C450.19 474.061 446.726 491.692 448.803 509.111C449.184 512.869 450.155 516.543 451.679 519.999C453.274 523.317 455.727 526.148 458.786 528.197C461.599 530.165 464.704 531.853 466.99 534.47C468.14 535.828 468.99 537.413 469.485 539.122C469.979 540.83 470.107 542.625 469.86 544.386C469.357 548.792 467.302 552.755 465.157 556.56C462.776 560.785 460.236 565.135 459.936 570.091C459.9 570.692 458.971 570.601 459.007 570.001C459.527 561.378 466.346 555.008 468.448 546.873C469.429 543.077 469.271 538.963 466.822 535.742C464.68 532.926 461.479 531.183 458.614 529.215C455.601 527.259 453.113 524.596 451.367 521.457C449.671 518.09 448.56 514.46 448.083 510.72C446.873 502.318 446.992 493.779 448.435 485.414C450.029 475.858 453.246 466.646 457.946 458.175C458.237 457.651 458.993 458.201 458.703 458.722H458.703Z" fill="white"/>
<path d="M447.804 503.542C444.834 503.493 441.978 502.391 439.746 500.432C437.514 498.472 436.051 495.783 435.619 492.844C435.533 492.249 436.454 492.088 436.539 492.684C436.937 495.421 438.3 497.926 440.382 499.747C442.464 501.567 445.129 502.583 447.895 502.612C448.496 502.619 448.402 503.549 447.804 503.542Z" fill="white"/>
<path d="M457.228 527.388C461.628 523.204 464.29 517.515 464.682 511.456C464.72 510.855 465.65 510.947 465.611 511.546C465.192 517.851 462.41 523.765 457.821 528.109C457.384 528.523 456.793 527.799 457.228 527.388Z" fill="white"/>
<path d="M451.069 476.531C452.214 476.789 453.406 476.759 454.536 476.443C455.667 476.126 456.701 475.534 457.546 474.72C457.979 474.301 458.569 475.025 458.14 475.441C457.202 476.337 456.059 476.989 454.81 477.341C453.562 477.693 452.246 477.734 450.979 477.461C450.857 477.445 450.746 477.383 450.668 477.289C450.59 477.194 450.551 477.073 450.559 476.951C450.571 476.828 450.632 476.714 450.728 476.636C450.823 476.557 450.946 476.52 451.069 476.531Z" fill="white"/>
<path d="M264.211 506.772C276.927 506.772 287.235 496.464 287.235 483.748C287.235 471.033 276.927 460.725 264.211 460.725C251.496 460.725 241.188 471.033 241.188 483.748C241.188 496.464 251.496 506.772 264.211 506.772Z" fill="#F2F2F2"/>
<path d="M247.1 284.872C251.83 284.872 255.664 281.038 255.664 276.308C255.664 271.578 251.83 267.743 247.1 267.743C242.37 267.743 238.535 271.578 238.535 276.308C238.535 281.038 242.37 284.872 247.1 284.872Z" fill="#F40000"/>
<path d="M129.325 380.459C134.055 380.459 137.889 376.624 137.889 371.894C137.889 367.164 134.055 363.33 129.325 363.33C124.595 363.33 120.76 367.164 120.76 371.894C120.76 376.624 124.595 380.459 129.325 380.459Z" fill="#F0F0F0"/>
<path d="M636.136 0H3.54067C2.60239 0.00253606 1.70328 0.376407 1.03982 1.03988C0.376361 1.70335 0.00251525 2.60247 1.18367e-07 3.54075V24.3772C-0.000242444 25.3175 0.372326 26.2196 1.036 26.8858C1.69968 27.5519 2.60034 27.9278 3.54067 27.9311H636.136C637.077 27.9278 637.977 27.5519 638.641 26.8858C639.305 26.2196 639.677 25.3175 639.677 24.3772V3.54075C639.674 2.60246 639.301 1.70333 638.637 1.03986C637.974 0.376388 637.075 0.00253251 636.136 0Z" fill="#F40000"/>
<path d="M20.5664 17.9764C23.3448 17.9764 25.5971 15.7241 25.5971 12.9457C25.5971 10.1673 23.3448 7.91504 20.5664 7.91504C17.7881 7.91504 15.5358 10.1673 15.5358 12.9457C15.5358 15.7241 17.7881 17.9764 20.5664 17.9764Z" fill="white"/>
<path d="M39.6612 17.9764C42.4395 17.9764 44.6918 15.7241 44.6918 12.9457C44.6918 10.1673 42.4395 7.91504 39.6612 7.91504C36.8828 7.91504 34.6305 10.1673 34.6305 12.9457C34.6305 15.7241 36.8828 17.9764 39.6612 17.9764Z" fill="white"/>
<path d="M58.7567 17.9764C61.5351 17.9764 63.7874 15.7241 63.7874 12.9457C63.7874 10.1673 61.5351 7.91504 58.7567 7.91504C55.9784 7.91504 53.7261 10.1673 53.7261 12.9457C53.7261 15.7241 55.9784 17.9764 58.7567 17.9764Z" fill="white"/>
<path d="M617.432 6.22583H595.438C595.006 6.22583 594.593 6.3971 594.288 6.70195C593.983 7.00681 593.812 7.42028 593.812 7.85141C593.812 8.28255 593.983 8.69602 594.288 9.00087C594.593 9.30573 595.006 9.477 595.438 9.477H617.432C617.863 9.477 618.277 9.30573 618.582 9.00087C618.887 8.69602 619.058 8.28255 619.058 7.85141C619.058 7.42028 618.887 7.00681 618.582 6.70195C618.277 6.3971 617.863 6.22583 617.432 6.22583Z" fill="white"/>
<path d="M617.432 12.3333H595.438C595.006 12.3333 594.593 12.5045 594.288 12.8094C593.983 13.1142 593.812 13.5277 593.812 13.9588C593.812 14.39 593.983 14.8035 594.288 15.1083C594.593 15.4132 595.006 15.5844 595.438 15.5844H617.432C617.863 15.5844 618.277 15.4132 618.582 15.1083C618.887 14.8035 619.058 14.39 619.058 13.9588C619.058 13.5277 618.887 13.1142 618.582 12.8094C618.277 12.5045 617.863 12.3333 617.432 12.3333Z" fill="white"/>
<path d="M617.432 18.4409H595.438C595.005 18.4409 594.59 18.6129 594.283 18.919C593.977 19.225 593.805 19.6402 593.805 20.0731C593.805 20.5059 593.977 20.9211 594.283 21.2272C594.59 21.5333 595.005 21.7052 595.438 21.7052H617.432C617.865 21.7052 618.28 21.5333 618.586 21.2272C618.893 20.9211 619.065 20.5059 619.065 20.0731C619.065 19.6402 618.893 19.225 618.586 18.919C618.28 18.6129 617.865 18.4409 617.432 18.4409Z" fill="white"/>
<path d="M23.6584 181.682C21.8315 181.687 20.3533 184.06 20.3569 186.981C20.3606 189.893 21.8366 192.253 23.6584 192.259H271.753C273.58 192.253 275.058 189.88 275.054 186.96C275.051 184.047 273.575 181.687 271.753 181.682H23.6584Z" fill="#E6E6E6"/>
<path d="M23.6584 212.327C21.8315 212.333 20.3533 214.705 20.3569 217.626C20.3606 220.539 21.8366 222.898 23.6584 222.904H271.753C273.58 222.898 275.058 220.526 275.054 217.605C275.051 214.693 273.575 212.333 271.753 212.327H23.6584Z" fill="#E6E6E6"/>
<path d="M23.6584 242.602C21.8315 242.608 20.3533 244.98 20.3569 247.901C20.3606 250.814 21.8366 253.173 23.6584 253.179H182.905C184.732 253.173 186.21 250.801 186.206 247.88C186.203 244.968 184.727 242.608 182.905 242.602H23.6584Z" fill="#E6E6E6"/>
<path d="M5.80865 580.958C5.89218 580.768 5.98754 580.586 6.07413 580.398C6.22721 578.821 5.80865 580.958 5.80865 580.958Z" fill="#F2F2F2"/>
<path d="M50.8808 557.121C47.7389 557.118 44.6011 557.345 41.4922 557.799L41.0435 557.865C31.0948 559.459 22.0703 564.63 15.665 572.408C9.25975 580.185 5.91454 590.034 6.25771 600.104L6.37661 603.892C6.45502 606.286 6.53852 608.861 6.60735 611.717C6.61557 612.382 6.88582 613.016 7.35931 613.482C7.8328 613.949 8.47123 614.209 9.13575 614.207H512.052C547.51 613.834 582.84 613.365 617.054 612.812C623.497 612.833 629.928 612.256 636.264 611.089C645.772 609.14 652.372 605.277 656.441 599.28H656.442C661.503 591.842 661.662 582.477 661.357 571.895C660.733 550.529 660.115 528.083 659.498 505.705C658.953 485.983 658.41 466.314 657.868 447.483C657.532 436.307 656.787 426.443 651.04 418.904C644.811 410.751 633.45 406.618 617.273 406.618C617.078 406.618 616.884 406.618 616.686 406.619C565.989 406.932 515.757 437.118 491.69 481.735C488.918 486.873 486.336 492.373 483.839 497.693C480.284 505.676 476.257 513.44 471.78 520.944C469.446 524.755 466.781 528.354 463.814 531.697C463.619 531.93 463.395 532.181 463.159 532.419C462.618 533.029 462.052 533.618 461.501 534.143C458.462 537.222 455.049 539.909 451.342 542.14L450.986 542.347C450.718 542.513 450.428 542.679 450.137 542.831C448.121 543.953 446.024 544.924 443.863 545.734C434.689 549.236 424.257 550.075 412.859 548.227C402.044 546.363 391.621 542.685 382.031 537.348C371.476 531.572 361.597 524.37 352.042 517.405C347.845 514.345 343.504 511.181 339.169 508.184C338.354 507.619 337.553 507.068 336.739 506.517C331.445 502.943 326.644 499.992 322.064 497.494C311.273 491.458 299.382 487.644 287.093 486.278C274.485 485.082 263.374 487.337 254.076 492.963C251.417 494.581 248.916 496.446 246.608 498.535C235.596 508.438 228.807 523.053 222.242 537.188C214.076 554.768 205.632 572.949 188.957 582.374C169.717 593.259 141.632 588.737 121.762 580.873C115.515 578.399 109.275 575.555 103.241 572.803C100.804 571.691 98.3666 570.58 95.9243 569.49C91.1285 567.346 87.2035 565.703 83.5722 564.316L82.4237 563.874C81.7848 563.634 81.1453 563.393 80.4943 563.165C76.4709 561.685 72.3699 560.426 68.2096 559.392L67.2738 559.155C65.3977 558.727 63.6438 558.371 61.9226 558.072L61.2355 557.954C57.8122 557.396 54.3493 557.117 50.8808 557.121Z" fill="#E6E6E6"/>
<path d="M332.699 557.743C324.33 526.264 342.916 495.581 364.635 474.341C376.21 463.021 389.1 453.181 401.671 443.016C413.732 433.37 425.219 423.025 436.071 412.035C457.027 390.586 475.307 366.074 487.412 338.521C498.924 312.319 504.365 283.776 501.67 255.187C499.114 228.073 489.395 201.401 471.516 180.598C469.289 178.005 466.945 175.521 464.486 173.144C463.167 171.863 461.146 173.88 462.467 175.162C482.432 194.548 494.052 220.818 497.984 248.149C502.04 276.334 497.861 305.068 487.322 331.419C476.094 359.489 458.241 384.537 437.536 406.396C427.109 417.333 416.017 427.617 404.323 437.189C391.834 447.476 378.858 457.196 366.966 468.19C345.049 488.452 325.351 516.323 328.057 547.696C328.372 551.346 329.004 554.961 329.947 558.502C330.057 558.855 330.301 559.152 330.626 559.329C330.951 559.506 331.332 559.55 331.689 559.452C332.046 559.353 332.351 559.12 332.54 558.801C332.728 558.482 332.785 558.103 332.699 557.743Z" fill="#E6E6E6"/>
<path d="M420.348 378.531C420.525 378.856 420.568 379.238 420.469 379.594C420.369 379.951 420.136 380.255 419.817 380.443C419.497 380.631 419.118 380.687 418.758 380.601C418.398 380.514 418.086 380.291 417.887 379.979C414.609 374.358 411.516 368.641 408.607 362.828C406.646 358.879 404.764 354.878 403 350.837C383.201 305.953 374.722 256.895 378.307 207.97C379.282 194.585 381.213 181.288 384.085 168.179C384.678 165.52 385.309 162.861 386.007 160.229C387.06 160.058 388.087 159.834 389.1 159.571C382.914 182 380.426 205.653 380.347 228.793C380.256 254.968 383.624 281.041 390.364 306.334C397.074 331.636 407.159 355.92 420.348 378.531Z" fill="#E6E6E6"/>
<path d="M607.837 301.134C597.135 324.156 579.155 343.057 558.99 358.115C536.127 375.187 510.236 387.508 484.582 399.736C482.937 400.525 481.489 398.064 483.147 397.274C489.268 394.352 495.388 391.43 501.47 388.455C525.794 376.517 549.908 363.38 570.271 345.295C589.106 328.565 604.454 307.729 611.456 283.286C618.762 257.842 617.38 230.333 609.521 205.192C604.645 189.925 597.649 175.418 588.738 162.098C585.789 157.635 582.67 153.296 579.379 149.08C576.983 146.013 574.509 143.007 571.955 140.063C563.61 130.491 554.536 121.58 544.814 113.409C534.702 104.685 523.509 97.297 511.513 91.4275C499.188 85.4323 485.713 82.1725 472.012 81.8715C459.063 81.6927 446.313 85.0612 435.143 91.6118C427.506 96.161 420.645 101.902 414.82 108.618C414.438 107.657 414.017 106.709 413.543 105.788C423.599 94.6655 436.143 85.9255 450.741 81.7793C477.711 74.1186 506.182 83.1087 528.94 97.9824C540.044 105.392 550.415 113.846 559.912 123.228C563.452 126.664 566.901 130.205 570.218 133.851C574.219 138.221 578.041 142.744 581.683 147.421C581.683 147.421 581.709 147.434 581.709 147.448C582.933 149.014 584.135 150.602 585.315 152.212C600.703 173.141 612.193 197.163 616.774 222.843C621.46 249.102 619.143 276.797 607.837 301.134Z" fill="#E6E6E6"/>
<path d="M589.751 273.546C579.063 296.567 561.083 315.469 540.905 330.527C519.042 346.835 494.415 358.826 469.879 370.528C468.761 371.067 467.629 371.594 466.51 372.134C466.33 372.226 466.132 372.278 465.93 372.287C465.728 372.296 465.526 372.262 465.338 372.186C465.078 372.111 464.846 371.96 464.671 371.753C464.497 371.546 464.388 371.291 464.358 371.022C464.328 370.752 464.379 370.48 464.505 370.24C464.63 370 464.824 369.802 465.062 369.672C466.01 369.211 466.97 368.764 467.918 368.316C469.55 367.527 471.169 366.75 472.801 365.973C476.342 364.289 479.874 362.582 483.397 360.853C507.709 348.928 531.836 335.778 552.185 317.693C571.034 300.963 586.382 280.127 593.384 255.684C600.676 230.24 599.294 202.744 591.436 177.603C588.325 167.737 584.288 158.187 579.379 149.08C576.576 143.867 573.509 138.773 570.218 133.851C565.236 126.376 559.775 119.231 553.87 112.461C545.532 102.89 536.462 93.9832 526.742 85.8202C516.626 77.0942 505.429 69.7063 493.427 63.8386C481.109 57.8394 467.638 54.5751 453.94 54.2694C440.987 54.0907 428.233 57.459 417.058 64.0098C407.278 69.8872 398.763 77.65 392.009 86.8469C383.946 97.8917 377.743 110.181 373.647 123.228C369.992 134.617 367.263 146.281 365.487 158.109C363.346 172.37 362.268 186.77 362.262 201.191C362.177 227.37 365.545 253.446 372.278 278.745C378.997 304.044 389.082 328.327 402.263 350.942C402.299 351.001 402.33 351.062 402.355 351.126C402.476 351.458 402.471 351.823 402.339 352.151C402.207 352.478 401.959 352.746 401.641 352.901C401.324 353.056 400.96 353.089 400.621 352.992C400.281 352.895 399.989 352.676 399.802 352.377C396.524 346.769 393.435 341.052 390.535 335.226C366.769 287.244 356.301 233.769 360.222 180.367C360.801 172.549 361.7 164.757 362.92 156.991C363.775 151.489 364.807 146.017 366.013 140.577C368.805 127.214 373.248 114.25 379.242 101.984C382.065 96.3727 385.363 91.0135 389.1 85.965C400.012 71.2097 414.807 59.2581 432.669 54.1904C459.639 46.5166 488.096 55.5067 510.868 70.3805C521.967 77.7969 532.337 86.2501 541.839 95.6264C551.092 104.567 559.585 114.262 567.23 124.61C572.577 131.866 577.406 139.488 581.683 147.421C581.683 147.421 581.709 147.434 581.709 147.448C584.276 152.226 586.632 157.109 588.738 162.098C593.286 172.738 596.624 183.855 598.689 195.241C603.388 221.514 601.071 249.195 589.751 273.546Z" fill="#E6E6E6"/>
<path d="M501.712 283.474C514.303 283.396 526.477 278.952 536.157 270.9C546.013 262.613 552.499 251.008 554.395 238.271C555.509 231.071 555.15 223.719 553.341 216.662C553.23 216.308 552.986 216.012 552.661 215.835C552.336 215.657 551.955 215.613 551.598 215.712C551.241 215.81 550.936 216.043 550.748 216.362C550.559 216.681 550.502 217.06 550.588 217.42C553.639 229.404 552.262 242.087 546.711 253.137C542.446 261.399 535.994 268.331 528.059 273.178C520.124 278.024 511.01 280.598 501.712 280.62C501.342 280.632 500.991 280.788 500.734 281.055C500.477 281.321 500.333 281.677 500.333 282.047C500.333 282.417 500.477 282.773 500.734 283.039C500.991 283.306 501.342 283.462 501.712 283.474Z" fill="#E6E6E6"/>
<path d="M394.513 445.733L385.324 429.559C385.126 429.246 384.815 429.022 384.455 428.934C384.095 428.846 383.715 428.901 383.396 429.088C383.076 429.275 382.841 429.579 382.741 429.936C382.641 430.292 382.683 430.674 382.859 431L392.048 447.174C392.246 447.487 392.558 447.711 392.917 447.799C393.277 447.887 393.657 447.831 393.977 447.645C394.297 447.458 394.531 447.154 394.631 446.797C394.731 446.441 394.689 446.059 394.513 445.733Z" fill="#E6E6E6"/>
<path d="M340.865 115.773C338.116 113.832 335.107 111.808 331.743 111.889C323.599 112.084 319.209 124.022 311.074 123.603C305.886 123.335 302.442 118.065 297.611 116.154C291.322 113.666 283.319 118.531 282.633 125.259L283.441 124.52C307.887 130.48 333.256 131.652 358.147 127.971C352.387 123.905 346.626 119.839 340.865 115.773Z" fill="#E6E6E6"/>
<path d="M307.212 601.388C311.753 601.388 315.434 597.707 315.434 593.165C315.434 588.624 311.753 584.943 307.212 584.943C302.671 584.943 298.99 588.624 298.99 593.165C298.99 597.707 302.671 601.388 307.212 601.388Z" fill="white"/>
<path d="M331.057 601.388C335.598 601.388 339.279 597.707 339.279 593.165C339.279 588.624 335.598 584.943 331.057 584.943C326.516 584.943 322.834 588.624 322.834 593.165C322.834 597.707 326.516 601.388 331.057 601.388Z" fill="white"/>
<path d="M354.902 601.388C359.443 601.388 363.124 597.707 363.124 593.165C363.124 588.624 359.443 584.943 354.902 584.943C350.36 584.943 346.679 588.624 346.679 593.165C346.679 597.707 350.36 601.388 354.902 601.388Z" fill="white"/>
<path d="M331.132 599.743C334.765 599.743 337.71 596.798 337.71 593.166C337.71 589.533 334.765 586.588 331.132 586.588C327.499 586.588 324.554 589.533 324.554 593.166C324.554 596.798 327.499 599.743 331.132 599.743Z" fill="#3F3D56"/>
<path d="M717.263 596.052H708.25L703.962 561.289H717.263V596.052Z" fill="#FFB6B6"/>
<path d="M722.02 611.667H715.557L714.403 605.565L711.449 611.667H694.307C693.485 611.667 692.685 611.405 692.023 610.918C691.361 610.431 690.872 609.745 690.628 608.96C690.383 608.176 690.396 607.334 690.664 606.557C690.932 605.78 691.441 605.11 692.117 604.643L705.806 595.189V589.02L720.205 589.879L722.02 611.667Z" fill="#2F2E41"/>
<path d="M665.461 588.346L656.975 591.384L641.22 560.101L653.744 555.618L665.461 588.346Z" fill="#FFB6B6"/>
<path d="M676.361 597.178L670.778 600.435L666.707 595.745L667.23 602.505L652.423 611.143C651.713 611.557 650.89 611.733 650.073 611.646C649.256 611.559 648.488 611.213 647.881 610.659C647.275 610.104 646.861 609.37 646.701 608.564C646.541 607.759 646.643 606.923 646.992 606.179L654.053 591.115L650.944 585.786L663.814 579.273L676.361 597.178Z" fill="#2F2E41"/>
<path d="M718.969 574.812H718.86L716.945 512.339C718.184 509.947 718.814 507.287 718.776 504.593C718.739 501.9 718.036 499.258 716.73 496.902L716.456 496.405L717.167 493.109C718.081 488.873 717.662 484.459 715.967 480.471L714.18 422.196C720.565 380.816 690.636 348.415 690.636 348.415H642.748L634.767 387.452L609.215 485.131C608.082 486.852 607.378 488.819 607.159 490.868C606.941 492.918 607.216 494.989 607.961 496.91L644.25 568.702L643.97 568.843C643.44 569.139 643.043 569.628 642.863 570.209C642.683 570.79 642.734 571.417 643.005 571.961C643.479 573.336 644.681 574.168 645.688 573.82L659.834 566.665C660.365 566.369 660.761 565.88 660.941 565.3C661.121 564.719 661.07 564.091 660.8 563.547C660.325 562.173 659.124 561.341 658.116 561.688L656.479 562.516L645.53 508.55L645.143 497.539L645.941 485.046L669.486 431.565L683.453 500.662L704.036 575.507C703.643 575.863 703.367 576.331 703.244 576.847C703.122 577.364 703.159 577.905 703.351 578.4C703.542 578.895 703.88 579.32 704.318 579.62C704.757 579.919 705.275 580.078 705.806 580.077H718.969C719.667 580.077 720.337 579.799 720.83 579.306C721.324 578.812 721.601 578.142 721.601 577.444C721.601 576.746 721.324 576.076 720.83 575.583C720.337 575.089 719.667 574.812 718.969 574.812Z" fill="#2F2E41"/>
<path d="M695.987 320.773L694.71 335.041C694.71 335.041 694.157 346.888 692.407 349.507C690.669 352.113 643.257 352.442 643.257 352.442C643.257 352.442 640.125 335.555 637.426 320.773H695.987Z" fill="#FFB6B6"/>
<path d="M672.245 231.872C685.699 231.872 696.606 220.965 696.606 207.51C696.606 194.056 685.699 183.149 672.245 183.149C658.791 183.149 647.884 194.056 647.884 207.51C647.884 220.965 658.791 231.872 672.245 231.872Z" fill="#FFB6B6"/>
<path d="M684.746 236.532L665.194 238.832C664.369 238.929 663.596 239.281 662.98 239.839C662.365 240.396 661.94 241.132 661.762 241.943L658.653 256.171L639.27 278.997C639.27 278.997 632.31 292.048 634.92 306.839C637.53 321.629 638.677 332.619 638.677 332.619C638.677 332.619 690.672 352.114 692.412 349.504C694.152 346.894 694.716 335.038 694.716 335.038L701.677 257.605C701.677 257.605 693.846 244.555 689.496 244.555C686.689 244.46 687.049 238.141 684.746 236.532Z" fill="#F40000"/>
<path opacity="0.2" d="M676.113 286.563L667.413 350.946L658.288 351.421L676.113 286.563Z" fill="black"/>
<path d="M638.148 337.38C640.89 337.38 643.113 334.713 643.113 331.423C643.113 328.133 640.89 325.466 638.148 325.466C635.406 325.466 633.184 328.133 633.184 331.423C633.184 334.713 635.406 337.38 638.148 337.38Z" fill="#F40000"/>
<path d="M672.162 410.981C673.196 409.951 673.993 408.707 674.495 407.337C674.997 405.966 675.192 404.502 675.067 403.048C674.942 401.594 674.5 400.184 673.771 398.92C673.043 397.655 672.046 396.565 670.851 395.727L687.148 316.849L669.565 322.397L656.452 398.705C655.178 400.806 654.718 403.301 655.161 405.719C655.604 408.136 656.918 410.307 658.854 411.82C660.791 413.333 663.215 414.084 665.667 413.929C668.12 413.774 670.431 412.725 672.162 410.981Z" fill="#FFB6B6"/>
<path d="M685.124 246.675C685.124 246.675 696.841 241.603 703.955 254.372C711.068 267.141 700.802 311.522 699.362 318.724C697.921 325.927 678.165 360.261 678.165 360.261L658.421 356.312L685.124 246.675Z" fill="#F40000"/>
<path d="M661.164 184.223C669.611 178.413 677.05 177.528 683.16 179.176C683.953 177.951 685.063 176.964 686.374 176.323C691.139 164.315 705.642 157.103 718.088 160.609C730.615 164.137 739.258 178.013 736.901 190.812C735.44 198.745 730.447 205.615 728.439 213.428C724.552 228.552 734.035 245.877 748.87 250.752C734.824 253.572 719.362 244.993 714.323 231.581C711.876 225.067 711.728 217.955 711.417 211.003C711.106 204.051 710.546 196.891 707.395 190.686C705.284 186.43 701.776 183.027 697.459 181.045C697.845 182.241 697.942 183.512 697.741 184.752C697.539 185.993 697.046 187.168 696.301 188.18C699.595 192.307 701.388 196.769 701.388 199.442C708.231 211.949 698.446 222.692 685.939 229.535C680.95 232.278 675.19 233.282 669.567 232.389L669.044 230.155L668.335 232.167L665.968 238.913C663.238 240.233 660.532 241.681 657.849 243.256C658.868 238.469 659.693 233.692 660.26 229.02C661.046 222.663 658.307 213.197 656.332 207.441C655.107 203.894 654.479 200.168 654.472 196.415V196.251L652.549 202.429L645.546 199.442C646.849 191.97 645.546 183.487 661.164 184.223Z" fill="#2F2E41"/>
<path d="M806 613.299C805.999 613.714 805.834 614.112 805.54 614.406C805.247 614.699 804.849 614.865 804.434 614.866H507.893C507.478 614.866 507.079 614.701 506.785 614.407C506.492 614.113 506.327 613.715 506.327 613.299C506.327 612.884 506.492 612.485 506.785 612.192C507.079 611.898 507.478 611.733 507.893 611.733H804.434C804.639 611.732 804.844 611.772 805.034 611.851C805.224 611.929 805.397 612.045 805.543 612.19C805.688 612.336 805.804 612.509 805.882 612.699C805.961 612.889 806.001 613.093 806 613.299Z" fill="#CCCCCC"/>
</g>
<defs>
<clipPath id="clip0_10_253">
<rect width="806" height="614.866" fill="white"/>
</clipPath>
</defs>
</svg>
